<svg id="Organisms" xmlns="http://www.w3.org/2000/svg" viewBox="0 0 51.23 38.56"><defs><style>.cls-1{fill:#1d1d1b;}.cls-2{fill:none;stroke:#1d1d1b;stroke-miterlimit:10;}</style></defs><circle class="cls-1" cx="6.78" cy="6.78" r="3.15"/><circle class="cls-2" cx="6.78" cy="6.78" r="6.28"/><circle class="cls-1" cx="19.33" cy="6.78" r="3.15"/><circle class="cls-2" cx="19.33" cy="6.78" r="6.28"/><circle class="cls-1" cx="31.89" cy="6.78" r="3.15"/><circle class="cls-2" cx="31.89" cy="6.78" r="6.28"/><circle class="cls-1" cx="44.45" cy="6.78" r="3.15"/><circle class="cls-2" cx="44.45" cy="6.78" r="6.28"/><circle class="cls-1" cx="6.78" cy="19.22" r="3.15"/><circle class="cls-2" cx="6.78" cy="19.22" r="6.28"/><circle class="cls-1" cx="19.33" cy="19.22" r="3.15"/><circle class="cls-2" cx="19.33" cy="19.22" r="6.28"/><circle class="cls-1" cx="31.89" cy="19.22" r="3.15"/><circle class="cls-2" cx="31.89" cy="19.22" r="6.28"/><circle class="cls-1" cx="44.45" cy="19.22" r="3.15"/><circle class="cls-2" cx="44.45" cy="19.22" r="6.28"/><circle class="cls-1" cx="6.78" cy="31.78" r="3.15"/><circle class="cls-2" cx="6.78" cy="31.78" r="6.28"/><circle class="cls-1" cx="19.33" cy="31.78" r="3.15"/><circle class="cls-2" cx="19.33" cy="31.78" r="6.28"/><circle class="cls-1" cx="31.89" cy="31.78" r="3.15"/><circle class="cls-2" cx="31.89" cy="31.78" r="6.28"/><circle class="cls-1" cx="44.45" cy="31.78" r="3.15"/><circle class="cls-2" cx="44.45" cy="31.78" r="6.28"/><circle class="cls-1" cx="31.94" cy="12.75" r="1.7"/><circle class="cls-1" cx="13.06" cy="6.78" r="1.7"/><circle class="cls-1" cx="19.33" cy="13.06" r="1.7"/><circle class="cls-1" cx="6.73" cy="13.06" r="1.7"/><circle class="cls-1" cx="7.06" cy="25.5" r="1.7"/><circle class="cls-1" cx="19.33" cy="25.5" r="1.7"/><circle class="cls-1" cx="13.06" cy="31.78" r="1.7"/><circle class="cls-1" cx="31.89" cy="25.5" r="1.7"/><circle class="cls-1" cx="44.45" cy="25.5" r="1.7"/><circle class="cls-1" cx="38.17" cy="19.22" r="1.7"/><circle class="cls-1" cx="25.61" cy="19.22" r="1.7"/><circle class="cls-1" cx="13.06" cy="19.22" r="1.7"/><circle class="cls-1" cx="38.17" cy="31.66" r="1.7"/><circle class="cls-1" cx="25.61" cy="31.78" r="1.7"/><circle class="cls-1" cx="25.61" cy="6.78" r="1.7"/><circle class="cls-1" cx="38.17" cy="6.78" r="1.7"/><circle class="cls-1" cx="44.45" cy="13.06" r="1.7"/></svg>