<svg width="138" height="138" viewBox="0 0 138 138" fill="none" xmlns="http://www.w3.org/2000/svg">
<circle cx="69" cy="69" r="69" fill="#C2FF46"/>
<path d="M26.6854 75.6885L24.84 100.207C29.8491 108.907 48.8308 123.934 66.2307 124.197C92.067 124.461 104.194 100.207 104.194 100.207C96.0215 105.479 90.7488 106.27 82.0488 106.534C57.7944 107.061 34.8581 89.9248 26.6854 75.6885Z" fill="black"/>
<path d="M119.222 53.2794C118.958 53.0158 118.695 52.7521 118.431 52.4885C119.749 51.9612 121.595 50.6431 121.595 48.7976C121.595 45.8976 111.84 32.7159 109.467 32.9795C108.149 33.2431 106.567 34.5613 105.513 35.6159C102.086 31.925 98.1311 28.2341 93.6493 26.6523C93.6493 26.3886 93.6493 26.125 93.6493 25.8614C94.1766 21.1159 93.3857 15.316 89.9585 13.9978C89.1675 13.7341 88.113 13.7341 87.3221 13.9978C84.6858 14.7887 82.0494 20.325 79.1494 25.3341C73.8767 25.8614 68.8676 27.1795 63.8586 29.2886C62.5404 25.3341 59.6404 22.1705 55.9495 19.7977C51.2041 17.1614 47.7768 17.9523 45.6677 18.7432C43.295 19.5341 41.1859 22.6977 40.395 26.9159C39.0769 32.1886 40.6587 39.3068 45.4041 44.0522C44.6132 45.1067 43.8223 46.4249 43.295 47.7431C37.7587 58.2885 38.8132 73.0521 46.195 85.7065C52.5223 96.5156 69.3949 102.316 84.4221 102.316C91.8039 102.316 98.922 100.997 103.931 97.8338C110.258 94.1429 114.74 87.2884 118.431 80.4338C118.431 80.4338 118.431 80.4338 118.431 80.1702C120.54 76.2157 122.122 71.9975 123.704 68.5703L124.758 65.6703C126.076 61.4521 122.649 57.2339 119.222 53.2794ZM88.9039 17.1614C89.4312 17.6887 90.4857 20.325 89.9585 25.0705H89.6948C88.9039 25.0705 88.113 24.8068 87.3221 24.8068C87.3221 24.0159 87.3221 23.4886 87.3221 22.4341C87.5857 19.5341 88.3766 17.6887 88.9039 17.1614ZM44.3496 27.7068C44.8768 24.8068 46.195 22.6977 48.0405 21.9068C48.5677 21.3796 49.3586 21.3796 49.8859 21.3796C51.4677 21.3796 53.0495 21.9068 54.3677 22.6977C57.5313 24.5432 59.6404 27.1795 60.6949 30.6068C59.904 31.1341 59.1131 31.3977 58.3222 31.925C57.2677 30.6068 56.2132 29.025 55.1586 27.7068C54.6313 27.1795 51.995 24.8068 49.3586 25.3341C49.095 25.3341 49.095 25.5977 49.095 25.5977C49.095 25.8614 49.095 25.8614 49.3586 25.8614C51.2041 25.8614 52.5223 27.4432 53.5768 29.025C54.6313 30.3432 55.1586 32.1886 55.6859 33.7704C52.7859 35.8795 49.8859 38.2522 47.7768 41.1522C44.3496 37.1977 43.295 31.925 44.3496 27.7068ZM121.067 64.0885L120.013 66.7248C118.431 70.4157 116.849 74.6339 114.74 78.5884C113.422 80.9611 111.313 82.2793 107.886 83.0702C109.995 80.1702 112.104 75.6884 112.104 71.9975C112.367 71.9975 112.367 71.7339 112.631 71.4702L117.904 65.9339C119.222 64.8794 119.486 63.0339 118.431 62.5066C115.531 61.4521 108.677 63.2976 106.04 64.8794C104.458 65.6703 104.458 67.5157 105.513 68.3066L109.204 71.9975C109.204 71.9975 109.204 71.9975 109.467 71.9975C109.467 74.6339 107.886 78.0611 106.04 80.6975C105.249 82.0157 104.458 82.8066 103.931 83.3338C98.1311 83.3338 92.8584 81.2247 91.2766 80.1702C91.5403 80.1702 91.5403 80.1702 91.8039 79.9066C92.5948 79.6429 93.6493 79.1157 94.4402 78.5884V78.3248C93.3857 77.5339 92.3312 77.2702 91.2766 77.5339C90.2221 77.5339 88.9039 78.3248 88.113 79.3793C87.3221 80.4338 87.0585 81.752 87.0585 82.8066C87.0585 83.8611 87.3221 84.9156 87.5857 85.9702H87.8494C87.8494 84.9156 88.113 83.8611 88.3766 83.0702C91.013 85.7065 97.8675 87.0247 98.3948 87.2884C100.504 87.552 102.349 87.8156 104.195 87.8156C106.304 87.8156 108.149 87.552 109.731 87.0247C107.358 90.1883 104.722 92.8247 101.822 94.4065C87.3221 103.106 57.5313 96.7792 49.6223 83.5975C46.7223 78.852 44.8768 73.5793 44.0859 68.5703C47.5132 68.8339 53.5768 68.043 56.7404 66.7248C58.8495 70.943 62.5404 73.843 67.2858 74.3702C82.313 75.952 88.113 67.2521 90.2221 58.0248C87.5857 61.9794 83.1039 66.1975 77.8312 66.7248C77.304 66.7248 77.0403 66.7248 76.5131 66.7248C68.8676 66.7248 62.5404 59.8703 62.5404 51.6976C62.5404 46.4249 65.4404 41.6795 69.6585 39.0431C59.904 42.2067 54.3677 51.434 54.3677 56.7067C54.3677 56.9703 54.3677 57.4976 54.3677 57.7612C51.2041 58.5521 46.9859 59.0794 44.0859 58.8158C44.6132 55.6521 45.4041 52.4885 46.7223 49.8522C48.5677 46.4249 50.9404 43.5249 53.8404 40.8886C60.4313 36.6704 69.3949 32.9795 79.1494 34.5613C92.5948 37.1977 96.2857 42.4704 96.813 38.2522C97.0766 35.0886 96.2857 32.9795 95.2312 31.3977C99.1857 33.7704 102.877 37.7249 106.04 41.6795C101.295 40.8886 96.813 42.4704 92.8584 45.634C93.913 47.7431 93.913 50.9067 92.5948 54.0703C97.6039 48.7976 103.667 46.1613 110.522 47.7431C111.049 48.534 111.84 49.5885 112.367 50.3794C113.422 51.6976 114.213 53.0158 114.74 53.8067C115.267 54.5976 116.058 55.3885 116.586 55.9158C118.958 58.8158 121.595 62.243 121.067 64.0885Z" fill="black"/>
<path d="M77.3041 38.7795C76.5132 38.7795 75.7223 38.7795 74.9314 39.0432H74.6678C74.1405 39.3068 73.3496 39.3068 72.8223 39.5704C72.5587 39.5704 72.2951 39.8341 72.2951 39.8341C67.8133 41.9432 64.6497 46.425 64.6497 51.6977C64.6497 58.2885 69.6587 64.3522 76.2496 64.3522C76.7769 64.3522 76.7769 64.3522 77.3041 64.3522C79.6769 64.0885 82.0496 62.7703 84.1587 61.1885C84.4223 60.9249 84.6859 60.6613 84.9496 60.3976C86.5314 58.8158 87.8495 57.234 88.9041 55.3886C89.1677 55.1249 89.1677 54.8613 89.4314 54.334C89.4314 54.334 89.4314 54.0704 89.695 54.0704C91.0132 51.1704 91.2768 48.2704 90.4859 46.1613C87.5859 40.3614 81.2587 38.7795 77.3041 38.7795ZM72.8223 56.4431C71.2405 56.4431 70.186 54.8613 70.186 52.7522C70.186 50.6431 71.5042 49.0613 72.8223 49.0613C74.4042 49.0613 75.4587 50.6431 75.4587 52.7522C75.4587 54.8613 74.4042 56.4431 72.8223 56.4431ZM87.5859 53.0158C87.0586 50.6431 85.7405 47.2159 81.7859 45.3704C77.0405 43.2613 73.3496 42.9977 70.4496 44.0522C72.2951 42.2068 74.9314 41.1523 77.5678 41.1523C80.4678 41.1523 86.2677 42.4704 88.6405 47.2159C89.1677 48.2704 88.6405 50.6431 87.5859 53.0158Z" fill="black"/>
</svg>
