<svg width="492" height="98" viewBox="0 0 492 98" fill="none" xmlns="http://www.w3.org/2000/svg">
<path d="M0.461365 25.4438H18.3701L26.5458 58.5361L45.6225 25.4438H61.39L69.7604 58.9254L89.8104 25.4438H107.914L76.9628 76.6395H55.9395L49.5157 49.1924L33.9429 76.6395H13.3089L0.461365 25.4438Z" fill="black"/>
<path d="M112.975 25.4433H130.494L121.54 76.6389H104.021L112.975 25.4433ZM113.948 9.48114C115.116 2.86269 119.399 0.137451 126.017 0.137451C132.636 0.137451 136.14 2.86269 134.972 9.48114C133.804 16.0996 129.521 18.8248 122.708 18.8248C116.09 18.8248 112.78 16.2943 113.948 9.48114Z" fill="black"/>
<path d="M141.201 25.4431H160.278L154.633 46.4664H155.411C160.473 31.2829 169.038 23.6912 184.805 23.6912C199.21 23.8858 204.466 30.5043 200.378 54.2528L196.485 76.4441H178.965L182.469 56.0048C185 41.5999 182.08 36.9281 172.931 36.9281C163.392 36.9281 155.217 46.6611 152.686 60.8713L149.961 76.4441H132.442L141.201 25.4431Z" fill="black"/>
<path d="M207.935 93.3795L210.66 78.3907C214.358 80.9213 223.897 83.0625 234.214 83.0625C249.008 83.0625 254.653 78.196 257.573 65.1538L258.352 61.4552C253.68 71.7722 242.779 77.0281 230.515 77.0281C214.358 77.0281 205.015 67.295 207.935 50.5543C210.66 34.3975 223.702 23.6912 238.886 23.6912C251.344 23.6912 260.687 30.3096 261.077 41.9892H262.634L263.997 25.4431H281.321L273.34 70.4096C270.031 88.9023 254.848 97.0781 234.603 97.0781C223.897 97.0781 215.526 95.5208 207.935 93.3795ZM257.573 50.7489C259.13 41.9892 251.928 37.7067 243.363 37.7067C234.603 37.7067 226.427 41.9892 224.87 50.7489C223.313 59.7033 229.931 64.1805 238.691 64.1805C247.256 64.3751 256.016 59.7033 257.573 50.7489Z" fill="black"/>
<path d="M282.294 74.3027L284.825 59.5086C292.806 62.8178 299.814 64.1804 308.768 64.1804C319.864 64.1804 324.73 63.2071 325.314 60.0925C326.871 51.9168 282.1 63.0124 285.993 41.2105C288.134 29.3362 301.176 23.8857 319.085 23.8857C325.314 23.8857 335.631 25.0537 344.196 26.8056L341.666 41.2105C334.658 39.6532 326.677 38.2906 318.89 38.2906C308.184 38.2906 303.317 39.4586 302.734 41.9891C301.566 49.1916 346.143 38.6799 342.25 61.0658C340.108 73.3294 327.066 78.1959 309.157 78.1959C301.176 78.1959 290.47 76.6387 282.294 74.3027Z" fill="black"/>
<path d="M410.964 76.6387H391.888L397.533 55.6154H396.754C391.693 70.7989 383.128 78.3906 367.36 78.3906C352.956 78.196 347.7 71.5775 351.982 47.829L355.875 25.6377H373.395L369.891 46.077C367.36 60.4819 370.28 65.1537 379.429 65.1537C388.968 65.1537 397.143 55.4207 399.869 41.4052L402.594 25.8324H420.113L410.964 76.6387Z" fill="black"/>
<path d="M430.431 25.4433H447.951L438.996 76.6389H421.477L430.431 25.4433ZM431.21 9.48114C432.378 2.86269 436.66 0.137451 443.473 0.137451C450.092 0.137451 453.596 2.86269 452.428 9.48114C451.26 16.0996 446.977 18.8248 440.164 18.8248C433.546 18.8248 430.237 16.2943 431.21 9.48114Z" fill="black"/>
<path d="M455.737 58.1464L459.241 38.0964H452.622L454.958 25.2488H462.939L465.08 12.9853L481.626 10.844L479.096 25.2488H491.554L489.218 38.0964H476.76L473.84 55.0319C472.477 63.4023 472.088 65.7382 479.68 65.7382C481.042 65.7382 482.6 65.5435 484.546 65.5435L482.794 75.6658C477.733 77.0285 473.256 77.8071 467.611 77.8071C454.179 77.6125 453.011 72.7459 455.737 58.1464Z" fill="black"/>
</svg>
