<svg xmlns="http://www.w3.org/2000/svg" width="500" height="260" fill="none" xmlns:v="https://vecta.io/nano"><g clip-path="url(#D)" filter="url(#A)"><path transform="translate(0 .16)" fill="#f3f4f6" d="M0 0h500v259.162H0z"/><g filter="url(#B)"><g clip-path="url(#E)"><path d="M54.727 39.252c0-5.757 4.667-10.425 10.425-10.425h370.059c5.758 0 10.425 4.667 10.425 10.425v291.877c0 5.758-4.667 10.425-10.425 10.425H65.152c-5.757 0-10.425-4.667-10.425-10.425V39.252z" fill="#fff"/><path d="M445.636 65.311H54.727V39.251c0-5.757 4.667-10.424 10.424-10.424h370.061c5.757 0 10.424 4.667 10.424 10.424v26.061z" fill="#fff"/><path stroke="#f3f4f6" stroke-width="2.606" d="M54.727 64.009h390.909"/><circle cx="72.651" cy="46.746" r="4.888" fill="#ff6159"/><circle cx="88.946" cy="46.746" r="4.888" fill="#ffbf2f"/><circle cx="105.24" cy="46.746" r="4.888" fill="#25cc3e"/></g><path d="M65.152 31.433h370.059v-5.212H65.152v5.212zm377.878 7.819v291.877h5.212V39.252h-5.212zm-7.819 299.696H65.152v5.212h370.059v-5.212zm-377.878-7.819V39.252h-5.212v291.877h5.212zm7.819 7.819a7.82 7.82 0 0 1-7.819-7.819h-5.212c0 7.197 5.834 13.031 13.031 13.031v-5.212zm377.878-7.819a7.82 7.82 0 0 1-7.819 7.819v5.212c7.197 0 13.031-5.834 13.031-13.031h-5.212zm-7.819-299.696a7.82 7.82 0 0 1 7.819 7.819h5.212c0-7.197-5.834-13.031-13.031-13.031v5.212zM65.152 26.221c-7.197 0-13.031 5.834-13.031 13.031h5.212a7.82 7.82 0 0 1 7.819-7.819v-5.212z" fill="#e7e8ea"/></g><path stroke="#e7e8ea" stroke-width="2.606" d="M54.727 64.009h390.909"/><path stroke="#e7e8ea" stroke-width="2.606" d="M54.727 222.978h390.909"/><path d="M445.636 221.675H54.727V65.311h390.909v156.364z" fill="url(#C)"/><path d="M88.606 156.524l-13.03-13.031 13.03-13.03" stroke="#3b82f6" stroke-width="5.212" stroke-linecap="round" stroke-linejoin="round"/><path d="M411.758 130.463l13.03 13.03-13.03 13.031" stroke="#3b82f6" stroke-width="5.212" stroke-linecap="round" stroke-linejoin="round"/><circle cx="229.333" cy="198.221" r="5.212" fill="#3b82f6"/><circle cx="250.182" cy="198.221" r="5.212" fill="#3b82f6"/><circle cx="271.03" cy="198.221" r="5.212" fill="#3b82f6"/></g><defs><filter id="A" x="-3.306" y="-1.493" width="506.612" height="265.774" filterUnits="userSpaceOnUse" color-interpolation-filters="sRGB"><feFlood flood-opacity="0" result="A"/><feColorMatrix in="SourceAlpha" values="0 0 0 0 0 0 0 0 0 0 0 0 0 0 0 0 0 0 127 0"/><feOffset dy="1.65292"/><feGaussianBlur stdDeviation="1.653"/><feColorMatrix values="0 0 0 0 0 0 0 0 0 0 0 0 0 0 0 0 0 0 0.05 0"/><feBlend in2="A"/><feBlend in="SourceGraphic"/></filter><filter id="B" x="46.909" y="23.615" width="406.545" height="328.364" filterUnits="userSpaceOnUse" color-interpolation-filters="sRGB"><feFlood flood-opacity="0" result="A"/><feColorMatrix in="SourceAlpha" values="0 0 0 0 0 0 0 0 0 0 0 0 0 0 0 0 0 0 127 0"/><feOffset dy="2.60606"/><feGaussianBlur stdDeviation="2.606"/><feColorMatrix values="0 0 0 0 0 0 0 0 0 0 0 0 0 0 0 0 0 0 0.05 0"/><feBlend in2="A"/><feBlend in="SourceGraphic"/></filter><linearGradient id="C" x1="54.727" y1="223.084" x2="258.746" y2="-66.402" gradientUnits="userSpaceOnUse"><stop offset=".557" stop-color="#f9fafb"/><stop offset=".557" stop-color="#f3f4f6"/></linearGradient><clipPath id="D"><path fill="#fff" transform="translate(0 .16)" d="M0 0h500v259.162H0z"/></clipPath><clipPath id="E"><path d="M54.727 39.252c0-5.757 4.667-10.425 10.425-10.425h370.059c5.758 0 10.425 4.667 10.425 10.425v291.877c0 5.758-4.667 10.425-10.425 10.425H65.152c-5.757 0-10.425-4.667-10.425-10.425V39.252z" fill="#fff"/></clipPath></defs></svg>