<?xml version="1.0" encoding="UTF-8"?>
<svg width="143px" height="80px" viewBox="0 0 143 80" version="1.1" xmlns="http://www.w3.org/2000/svg" xmlns:xlink="http://www.w3.org/1999/xlink">
    <!-- Generator: Sketch 51.3 (57544) - http://www.bohemiancoding.com/sketch -->
    <title>gug_logo_typo</title>
    <desc>Created with Sketch.</desc>
    <defs></defs>
    <g id="Symbols" stroke="none" stroke-width="1" fill="none" fill-rule="evenodd">
        <g id="header" transform="translate(-286.000000, -20.000000)" fill="#1A171B">
            <g id="gug_logo_typo" transform="translate(285.000000, 20.000000)">
                <g id="Shape">
                    <path d="M106.726019,25.437552 C106.612414,23.0123556 106.531268,20.5871593 106.368975,18.1703546 C106.117422,14.452839 105.922671,10.7185401 105.338417,7.02619962 C105.200468,6.18703132 105.176124,5.49052164 106.304058,5.34786303 C107.431992,5.20520442 108.397634,4.84436205 108.819595,6.18703132 C109.186666,7.34701445 109.442162,8.54162357 109.58237,9.75349658 C110.350555,16.5004097 111.083577,23.2473228 111.781436,29.9942359 C112.014867,31.3830359 111.851297,32.8120977 111.310787,34.1061605 C110.263999,36.3131731 108.405748,36.5145735 106.977573,34.4670029 C105.432578,32.08526 104.155714,29.5288073 103.17181,26.8473548 C101.910191,23.6351135 100.110974,20.6779654 97.8567255,18.1116128 C97.4347646,19.0430896 97.7836938,19.8822579 97.8567255,20.7214262 C97.9297572,21.5605945 98.0514767,22.5424214 98.2137693,23.4403315 C98.9765448,27.7788316 99.658174,32.1257233 100.096364,36.5061818 C100.161281,37.1439497 100.453408,37.9915097 99.5283399,38.1845184 C98.6032717,38.3775271 97.4753378,38.8390697 96.7774793,37.6978008 C96.3960829,37.0797752 96.1470626,36.3844648 96.0471624,35.6586219 C95.1788966,28.5592581 93.4748237,21.5773779 93.3612189,14.3773139 C93.391047,13.4007211 93.3720876,12.4231869 93.3044164,11.4486165 C93.1595308,10.8730365 93.2518718,10.261097 93.5594479,9.75853474 C93.8670241,9.25597246 94.3623072,8.90776677 94.927343,8.79684472 C96.298716,8.37726057 97.0209183,9.18286214 97.5402548,10.3409144 C99.9746447,15.7199832 104.145566,19.9661747 106.231027,25.5382522 L106.726019,25.437552 Z" fill-rule="nonzero"></path>
                    <path d="M52.70307,65.1097779 C53.7616763,61.3257318 54.8465291,57.549984 55.8438937,53.7493413 C56.3863201,51.6996496 56.8587559,49.6001679 57.2262061,47.5338796 C57.4274288,46.4136028 57.8211253,45.965492 59.098452,46.1812491 C60.3757786,46.3970061 61.2331622,46.6459565 61.1106788,48.0400787 C61.0231907,49.0026869 60.9794467,49.9735935 60.8132192,50.9279034 C59.6408783,57.7989344 57.6374003,64.5039986 56.2463391,71.3335379 C56.0506187,72.5953595 55.4592387,73.7721571 54.5490694,74.710965 C52.6680747,76.5448996 50.7170895,76.1299823 49.90345,73.63218 C49.130056,70.8963089 48.672431,68.0888149 48.5386352,65.2591481 C48.3122932,61.792295 47.4074117,58.3957166 45.8702474,55.2430437 C45.2271186,57.0538655 44.7987003,58.9270162 44.5929208,60.827831 C43.9367598,64.9770043 43.2543524,69.2008628 42.2832343,73.3417378 C42.1257556,73.9973072 42.1869973,75.0014072 41.0409029,74.8022468 C39.8948084,74.6030865 38.608733,74.6777716 38.4162591,73.2006659 C38.302494,72.5439676 38.302494,71.8740594 38.4162591,71.2173611 C39.8510644,64.5288936 40.2972538,57.6495642 42.4932058,51.0938703 C42.8956511,49.8823117 43.3155941,48.6790514 43.6130538,47.4425978 C43.7844434,46.3709297 44.812075,45.6152478 45.9489867,45.72484 C46.5000938,45.6787227 47.0466401,45.8517757 47.4580308,46.2026488 C47.8694215,46.553522 48.1087002,47.0506952 48.1186922,47.5753713 C48.8185972,53.384214 51.5569755,58.7864377 52.1256484,64.6367721 C52.1704629,64.8035789 52.2350315,64.9650405 52.3181222,65.1180762 L52.70307,65.1097779 Z" fill-rule="nonzero" transform="translate(49.726619, 60.779221) rotate(-5.000000) translate(-49.726619, -60.779221) "></path>
                    <path d="M128.267802,51.8743973 C128.34593,53.7989903 128.637224,55.7093869 129.136489,57.5715241 C130.083357,61.9064807 131.012852,66.2414373 131.646994,70.6363636 C131.751236,71.3302993 132.142145,72.2469799 131.004165,72.4611576 C129.866186,72.6753353 128.702145,73.1722275 127.981135,71.8014903 C127.645832,71.2005244 127.402847,70.5537982 127.260125,69.8824581 C126.130832,62.9173994 124.002549,56.1236829 123.620327,49.0301175 C123.550832,47.7279171 123.498711,46.4085825 123.324974,45.1149492 C123.094961,44.0194473 123.780293,42.9395425 124.879923,42.6647564 C125.376168,42.4333671 125.947752,42.4164428 126.457179,42.6180548 C126.966606,42.8196667 127.367768,43.2215668 127.564165,43.7270778 C130.361337,49.1072215 134.904569,53.3650741 137.588812,58.8223218 C137.799744,59.0914728 138.035278,59.3409651 138.292448,59.5676602 C138.049216,56.7833502 137.884165,54.4273955 137.614872,52.0114711 C137.180529,48.1648396 136.833054,44.301074 136.033862,40.4972781 C135.834064,39.5206278 135.834064,38.8438263 137.09366,38.6125144 C138.222953,38.4154709 139.291438,38.1241892 139.760529,39.4692251 C140.143739,40.5864133 140.434257,41.7324662 140.629216,42.8960683 C141.735344,49.8011572 142.806724,56.7148133 143.843357,63.6370365 C144.131838,64.984573 144.020243,66.3855623 143.521943,67.6721443 C142.453458,70.0795016 140.472852,70.3365148 138.804973,68.1947378 C137.083894,65.8172999 135.627672,63.2638321 134.461539,60.5785789 C132.954967,57.3275418 130.855534,54.3771672 128.267802,51.8743973 Z" fill-rule="nonzero"></path>
                    <path d="M93.2276554,65.136146 C94.1120631,60.1724938 94.9791294,55.203233 95.8288544,50.2283636 C96.0282797,49.0841997 96.1670103,47.9316228 96.3230822,46.779046 C96.4791541,45.6264691 97.1034419,44.6505646 98.2913227,44.6758035 C99.4792036,44.7010425 99.4531916,45.8872712 99.4531916,46.7958719 C99.4011676,51.5828517 98.1786041,56.235224 97.4676097,60.9380741 C96.6005434,66.3812655 95.5774052,71.7823921 95.5600638,77.3181262 C95.5600638,78.2856177 95.6641118,79.6401058 94.3375003,79.9429727 C93.0108889,80.2458396 92.2305292,79.2867611 91.4241575,78.3781603 C88.9183358,75.5261636 88.7449226,71.8665218 87.6610897,68.5013339 C85.8142384,62.8141663 85.1726093,56.8914356 84.4269323,50.9939438 C84.3440603,50.3870844 84.2224371,49.7858026 84.0627644,49.1935683 C83.6899259,47.7549505 83.9500458,46.6023736 85.6061425,46.1901381 C86.3227805,45.9379706 87.1173527,46.0035105 87.7798367,46.369434 C88.4423208,46.7353576 88.9060298,47.3648303 89.0483958,48.0914693 C90.2449473,53.4757699 91.4154868,58.8684835 92.6033677,64.2611971 C92.6640623,64.5388251 92.7681103,64.8164531 92.8461463,65.1024941 L93.2276554,65.136146 Z" fill-rule="nonzero"></path>
                    <path d="M112.091309,78.9350087 C108.75877,79.0270559 108.650979,79.0437918 108.27371,75.930923 C107.375452,68.1822226 105.650795,60.5339374 104.743554,52.7768691 C104.492042,50.6346798 103.845296,48.5008585 103.647679,46.3335654 C103.566836,45.5971878 103.44108,44.7938668 104.545937,44.65998 C108.327606,44.1160648 112.082327,43.2541683 115.971786,43.8231873 C117.23833,43.9989138 118.037781,44.316895 118.055746,45.6808671 C118.073711,47.0448392 117.157487,47.1285185 116.034664,47.3042449 C114.07646,47.6054903 112.118257,47.2121977 110.169036,47.4381318 C108.004233,47.6891696 107.878477,47.9485753 108.23778,49.8564626 C108.992317,53.8144921 110.411566,57.6386347 110.932556,61.6385038 C111.130172,63.1614665 111.767936,63.3120891 114.04053,62.4752965 C115.908908,61.8142302 117.157487,62.3832493 117.579669,64.0400988 C117.777286,64.8768915 117.705425,65.4459105 116.807166,65.8392031 C115.908908,66.2324956 114.875911,67.1780714 113.887826,67.2282789 C111.965553,67.3119582 111.848779,68.1989585 112.091309,69.5378268 C112.100463,69.6604082 112.100463,69.7834341 112.091309,69.9060156 C112.324856,72.8682617 112.567386,73.0690919 115.594517,72.1653558 C116.896992,71.7720633 118.289293,71.7051199 119.519907,71.0524216 C120.418166,70.5838176 121.208633,70.7009686 121.208633,72.0816766 C121.208633,75.4790549 120.786452,75.9811305 117.426965,77.4371498 C115.729256,78.2237349 114.04053,79.0605276 112.091309,78.9350087 Z" fill-rule="nonzero"></path>
                    <path d="M76.6353498,34.0291619 C76.282661,27.1334223 75.3783305,20.2796275 75.125118,13.3754989 C75.0527715,11.3537553 74.7000827,9.2816778 74.591563,7.21798929 C74.591563,6.55526006 74.5101733,5.75830718 75.4958935,5.6744174 C79.402601,5.35563625 83.3093085,4.77679679 87.2521893,5.6744174 C88.4278188,5.93447571 89.1874564,6.28681277 89.1422399,7.54515942 C89.0789367,8.97128563 88.165563,9.07195336 86.9085437,9.15584313 C84.8466703,9.29845575 82.8571433,8.76156118 80.8043132,8.86222892 C79.2488648,8.93772971 78.6520067,9.38234553 78.869046,11.0181962 C79.4116443,15.0784614 80.4697109,19.0716147 80.6777069,23.1738248 C80.76814,25.1787905 82.2693285,24.60834 83.3906982,24.230836 C84.8014537,23.7526643 86.0222998,23.7191084 86.7819374,25.0697338 C87.3878388,26.1351339 87.6862679,27.242479 85.9951699,27.8884303 C84.7381506,28.374991 83.5986943,29.1635549 82.1336789,29.0628871 C82.0613325,29.0628871 81.9799428,29.0628871 81.9347262,29.0628871 C80.3973645,30.1282873 81.4735177,31.6215253 81.3016949,32.9637618 C81.1931753,33.8026595 81.4735177,34.4066659 82.640104,34.2137194 C84.5302272,34.0106899 86.4013659,33.6769992 88.2379094,33.2154311 C89.7662279,32.7204814 90.2364797,33.0392626 90.1098735,34.5157226 C89.8385743,37.7287011 89.2688461,38.1062051 86.0765597,39.3393848 C83.7731827,40.1732113 81.3136573,40.5724855 78.8419161,40.5138417 C77.3497709,40.5138417 76.8162159,40.0776148 76.7981293,38.7941012 C76.7800427,37.2001955 76.6896097,35.6146787 76.6353498,34.0291619 Z" fill-rule="nonzero"></path>
                    <path d="M11.3956835,18.9002338 C11.5700886,15.2418918 12.6468312,11.6659239 14.5463408,8.43659158 C15.811622,6.39841629 17.9516676,4.92948413 20.4549389,4.38091632 C24.6855665,3.34266345 28.0415074,6.00318642 27.9701044,10.1643092 C27.8849757,10.630543 27.8520811,11.1034195 27.8719253,11.5756842 C28.2824926,13.3601813 27.1935968,13.7333035 25.5691786,13.7981943 C23.7127007,13.8630851 23.0879244,13.3115132 23.3289096,11.6567977 C23.4270887,10.9592216 23.4806409,10.2454227 23.5877454,9.5478466 C23.7882709,8.77529289 23.3977691,7.97596871 22.6327303,7.59301112 C21.8886329,7.18613485 20.9442273,7.24443261 20.267506,7.73901543 C19.2188168,8.22395281 18.4163642,9.05781498 18.0272369,10.066973 C16.2957142,15.4204644 14.9479826,20.7820671 17.0632964,26.2896741 C18.0094653,28.5097494 20.7202968,29.6501032 23.1950289,28.8690835 C23.6137369,28.6873915 23.8683241,28.2921379 23.8376559,27.8713874 C23.9663076,26.4848708 23.9303993,25.0897979 23.7305514,23.7102646 C23.4627902,22.4530053 22.1596855,23.0694679 21.2849987,23.1343587 C19.4999238,23.2722517 18.7858938,22.631455 19.1786103,21.1551892 C19.3214163,20.6360628 19.6159536,20.2791633 20.2407299,20.3440541 C21.7880869,20.3229777 23.3299166,20.1709084 24.8462233,19.8898185 C26.5241937,19.7275915 27.2828506,20.4819471 27.434582,21.8608767 C27.7594109,23.6046815 27.8909748,25.3736975 27.8272985,27.1413659 C27.5506118,29.4287667 27.0954177,31.8459492 24.150044,32.8193112 C23.7898699,32.9545839 23.4459277,33.1231019 23.1236259,33.322215 C20.3121329,34.9444851 17.8755056,34.4740268 15.5102812,32.2434054 C12.9486987,29.8100002 12.2971463,26.7925778 11.7348477,23.718376 C11.5127261,22.1202082 11.3994557,20.5110961 11.3956835,18.9002338 Z" fill-rule="nonzero"></path>
                    <path d="M3.36073626,49.74562 C5.01956898,46.2831585 7.45828338,43.2268314 10.4967306,40.8024109 C12.4794371,39.3269476 15.0027043,38.7143842 17.4671769,39.1102237 C21.701723,39.6686455 23.6273088,43.4337619 21.8237058,47.4357845 C21.5516262,47.8509269 21.3266778,48.2934791 21.1528004,48.7556905 C20.786852,50.6509401 19.6018761,50.532487 18.1729346,50.007909 C16.4738883,49.4156435 16.1689313,48.6456984 17.0750893,47.1227299 C17.4236116,46.5304644 17.7372817,45.921277 18.085804,45.3374725 C18.6562323,44.6385921 18.6562323,43.6503689 18.085804,42.9514886 C17.5636067,42.3079074 16.6930903,42.0339279 15.8814004,42.2576918 C14.6693731,42.3551145 13.5499786,42.9260967 12.7795518,43.8398868 C9.24205031,48.2734172 5.80910552,52.7323303 5.43444403,58.6719073 C5.26889593,61.4555552 6.82853328,63.3846485 9.6777032,63.6892422 C10.0577982,63.7369921 10.428768,63.5518244 10.6100004,63.2238907 C11.5846308,61.849405 12.2060706,60.2682297 12.4223164,58.6126807 C12.6140037,57.5804466 11.1153577,57.5804466 10.244052,57.3266185 C8.7889713,56.8951108 8.50144039,56.1082437 9.29432866,54.8560252 C9.52304382,54.3211214 10.1548597,54.067376 10.705844,54.2891425 C12.0737941,54.7291112 13.4678834,55.1352361 14.8619726,55.5075173 C16.5000275,55.9728688 17.022811,56.861267 16.5261667,58.4011573 C16.0970263,60.2081947 15.4810839,61.9685368 14.6877115,63.6553985 C13.4853095,65.7537105 12.0737941,67.8858664 9.0155108,67.7504914 C8.70256781,67.7198888 8.38649541,67.7457051 8.08321361,67.8266398 C4.98136502,68.8419521 2.59398717,66.7097963 1.43515047,63.841539 C0.163044029,60.68561 0.903653946,57.5381419 1.61812469,54.4414394 C2.09929712,52.8429514 2.68126649,51.2747172 3.36073626,49.74562 Z" fill-rule="nonzero" transform="translate(11.621850, 53.538017) rotate(-3.000000) translate(-11.621850, -53.538017) "></path>
                    <path d="M34.295181,23.0648597 C34.4346464,17.971543 35.5700971,12.9485532 37.6425758,8.2567046 C37.8125986,7.86202942 38.0239903,7.48492187 38.2734984,7.13118402 C40.692035,3.51943887 42.8652128,3.34305132 45.7043644,6.58522254 C47.6322014,8.63164067 48.9992731,11.1051941 49.6826818,13.7835146 C50.0945341,15.6229848 50.7780335,17.4036592 51.181123,19.2515288 C52.7805764,25.7624165 51.2356514,32.61754 46.9749724,37.9150118 C46.2988498,38.7351264 45.4587294,39.4176149 44.5038589,39.9224702 C43.1504553,40.8201722 41.3277295,40.6943785 40.1224521,39.6200915 C36.8724276,37.0902771 34.8327598,33.4044211 34.4704373,29.4064122 C34.1650389,27.3054753 34.1062533,25.1783483 34.295181,23.0648597 Z M41.4806882,0.00848661737 C40.4111505,-0.0889079183 39.4617391,0.663189604 39.3600873,1.68836808 C39.2461707,2.60390348 39.9471958,2.98187681 40.8234772,2.95667858 C41.8849109,3.04880501 42.8390516,2.33624755 43.0054178,1.32719357 C43.0022493,0.952972298 42.8354186,0.597194302 42.5455495,0.346492539 C42.2556804,0.0957907767 41.8693708,-0.0268307626 41.4806882,0.00848661737 Z M46.9574468,0.739235054 C46.4441554,0.716463513 45.943099,0.893778575 45.5683875,1.2307987 C45.193676,1.56781883 44.9772103,2.03585198 44.9682881,2.52830881 C44.9069484,3.29265488 45.301275,3.95620805 46.1600307,3.82181754 C47.1675439,3.72055641 48.0424394,3.11240244 48.4558879,2.22593015 C48.4388144,1.43103441 47.7856528,0.782992803 46.9574468,0.739235054 Z M44.170872,11.7676569 C43.9956157,10.9277161 43.8028338,9.70980206 42.6461424,9.71820147 C41.6647073,9.71820147 41.4631626,10.8521215 41.1389385,11.6248669 C40.1964199,14.0866367 39.5610811,16.6466518 39.2461707,19.2515288 C38.5626713,23.8460046 37.9755627,28.4908768 40.1224521,32.9257639 C40.4817275,33.6733111 40.6482209,34.7652341 41.8750148,34.5300507 C43.1018087,34.2948673 44.5038589,34.1100803 44.8718971,32.4553971 C45.3100378,30.4647375 45.2837494,28.4488798 45.6605503,25.6770754 C46.2564217,21.4605729 45.204884,16.6225143 44.170872,11.7676569 Z" fill-rule="nonzero"></path>
                    <path d="M80.8055399,64.6697761 C79.814254,68.8848916 79.3968705,73.4116305 76.1099753,76.9706968 C75.7795467,77.3233232 75.4752046,77.7169527 75.127385,78.0531779 C72.4230876,80.6773743 70.1970422,80.6445718 67.5449178,77.9793723 C64.0058535,74.4367072 63.1363045,69.9673727 63.1971729,65.2602203 C63.2077203,59.5837535 64.4475279,53.9691311 66.8405832,48.7605854 C66.9884065,48.4407614 67.1275343,48.1045363 67.3101396,47.792913 C69.570967,43.905822 72.2578733,43.6434024 75.1360805,47.0630583 C76.979687,49.1176244 78.2605895,51.5674227 78.8664456,54.1975923 C79.3446976,56.5921716 80.0577277,58.9375471 80.6055436,61.3239257 C80.7432808,62.4344187 80.8100669,63.5517197 80.8055399,64.6697761 Z M73.3795915,51.975226 C73.2230727,51.1551646 73.0578584,49.9660756 71.9100537,49.957875 C70.9274634,49.957875 70.7100761,51.0485566 70.370952,51.7948125 C69.3741473,54.1697595 68.6766265,56.6469197 68.29273,59.1753649 C67.5188314,63.6446994 66.8405832,68.1468364 68.8492413,72.5341648 C69.1796699,73.27222 69.3361887,74.3382998 70.5100799,74.1742875 C71.683971,74.0102753 73.1187268,73.8052599 73.5187194,72.1979396 C73.9969713,70.2625948 74.0143623,68.2944474 74.4491368,65.5800443 C75.3099903,61.4715368 74.3013134,56.7233814 73.3795915,51.975226 Z" fill-rule="nonzero"></path>
                    <path d="M132.993471,18.1151024 C132.993471,14.75797 132.993471,14.75797 130.110751,14.4642209 C129.429381,14.3886855 128.363648,14.6908274 128.197673,13.7256518 C128.031698,12.7604762 128.879043,12.3324419 129.708917,11.879229 C132.21601,10.486019 135.00264,9.77262841 137.649501,8.73191737 C139.562579,7.97656258 139.711082,9.91530654 140.348775,10.8553036 C140.986468,11.7953007 139.938206,12.0470856 139.283042,12.3492275 C135.919869,13.9102941 136.243083,13.8851156 136.452735,17.4688544 C136.627445,20.6077732 138.846266,21.4302707 141.065087,22.504553 C141.458185,22.6975881 141.938639,22.8150878 142.305531,22.9745516 C144.218608,23.7215135 144.568029,25.6266861 143.06552,27.0198961 C142.471505,27.5654301 141.851284,27.1961455 141.27474,27.0198961 C139.938206,26.6338259 138.505581,25.6602575 137.317551,25.8952567 C136.129521,26.130256 136.199405,28.1109641 135.404473,29.1936393 C133.412776,31.9129166 130.163164,33.5998756 126.520454,30.6707776 C122.37982,27.372395 121.017079,23.1172297 123.026248,18.3417089 C123.410611,17.5024258 123.192223,17.0995699 122.47591,16.596 C119.821165,14.8314456 118.199306,11.958061 118.108153,8.85780983 C117.8985,4.98871475 122.161432,1.30426194 126.127356,2.21908052 C127.139851,2.3484441 128.106438,2.70496105 128.948927,3.25979156 C129.763645,3.84201025 130.037787,4.89556209 129.604091,5.77764086 C129.193522,6.75960209 128.302499,6.18049675 127.612393,6.0042473 C124.790822,5.28246383 123.803709,5.50067744 122.799124,7.11210099 C121.845349,8.96236663 122.291854,11.1965426 123.891064,12.575834 C126.459305,15.0936833 130.023396,15.9329664 132.993471,18.1151024 Z M127.114469,20.3056313 C126.095087,22.2341424 126.124463,24.5202607 127.193089,26.4240051 C128.0833,27.7476834 129.725654,28.4134752 131.333723,28.1025713 C132.495547,27.8423935 132.565431,26.3484696 132.879909,25.2154374 C133.412776,23.3102648 132.879909,22.11009 130.984302,21.3463423 C130.110751,20.9854506 129.33329,20.4567023 128.494681,20.0286679 C128.194325,19.9035902 127.884843,19.7998013 127.568716,19.7181331 C127.402741,19.9279539 127.245502,20.1293819 127.114469,20.3056313 Z" fill-rule="nonzero"></path>
                    <path d="M60.7795194,25.7655154 C60.7795194,28.68348 60.8860763,31.5928623 60.8505573,34.5022446 C60.8505573,35.5063677 60.9482345,36.6821357 59.3143619,36.8451985 C57.8136856,36.9910967 57.0233885,36.656389 56.9878696,35.0085972 C56.9079519,31.5756978 57.3608187,28.1427983 57.3696985,24.7098988 C57.3696985,19.7751058 57.0855467,14.8488951 57.31642,9.90551986 C57.5206541,5.61439553 58.8970141,4.56736119 63.3812838,5.51999079 C68.1141862,6.53269613 69.5171854,8.48944883 69.3839893,14.2138087 C69.338868,16.3316538 69.107157,18.4419345 68.6913694,20.5217615 C68.362819,22.1180597 67.5636422,23.1994231 65.9475292,23.5255485 C64.5622894,23.7915982 64.8198019,24.3408621 65.3792257,25.1733403 C67.5991612,28.4603415 69.70366,31.8160007 72.0123929,35.0429262 C72.9891645,36.416086 72.420861,37.2743109 71.4085705,38.0467133 C70.2453243,38.9049381 69.3573501,38.2355227 68.6824897,37.2657286 C66.9486511,34.8715688 65.4615958,32.3190389 64.2426187,29.6446918 C63.5272695,28.0389243 62.3182493,26.6846453 60.7795194,25.7655154 Z M62.0493225,20.4445212 C63.6986419,20.6585118 65.2631136,19.6784067 65.7344154,18.1358963 C66.2001801,15.5461488 65.8345281,12.8806608 64.6866058,10.497695 C64.233739,9.45924293 63.4256825,9.45066068 62.4577906,9.53648317 C61.3300634,9.63088791 61.3389431,10.394708 61.3211836,11.1585282 C61.2590254,13.5186466 61.2590254,15.8873472 61.2323862,18.2560478 C61.6142151,18.9683745 60.655203,20.1784715 62.0493225,20.4445212 Z" fill-rule="nonzero"></path>
                    <path d="M33.2516782,72.5627061 C32.6270205,73.6199311 32.0991407,74.5756625 31.492079,75.5060205 C31.3086801,75.7924656 30.9414634,75.9160217 30.6122793,75.8020435 C30.0140155,75.6667187 29.8820456,75.2184553 29.7852676,74.6940717 C29.4597418,72.8502713 29.7852676,71.0149287 29.8820456,69.1880439 C29.8820456,68.0377831 29.6357017,67.6994711 28.4831642,68.0631565 C27.5808786,68.381357 26.6114239,68.4829735 25.6590073,68.3591795 C24.7352177,68.2153969 24.2601259,68.7566961 23.899408,69.4840669 C23.3099422,70.7104479 22.6764865,71.9114555 22.0958187,73.1378365 C21.8745588,73.7600773 21.2246592,74.1434587 20.5473714,74.0512789 C17.6176385,73.8905807 17.0281728,72.8333557 18.1279223,70.0084505 C20.8289072,63.2422105 24.4184898,56.881945 27.8057184,50.4032702 C28.773498,48.5425542 29.5125297,46.563429 30.8498252,44.8972424 C31.280927,44.3559432 31.5712609,43.4255852 32.5566365,43.6793192 C33.512327,43.9711913 34.1226662,44.8689725 34.0171039,45.8276004 C34.0874879,48.5848432 34.2282559,51.342086 34.1754679,54.0993288 C34.0083059,60.2904383 32.7325965,66.4392589 33.2516782,72.5627061 Z M29.9964196,53.2958378 C28.6767201,56.6197532 27.1106767,59.8590906 26.354049,63.3775353 C26.2660691,63.8004253 25.7381893,64.2656043 26.354049,64.6800365 C26.9699088,65.0944687 30.3043494,64.0287859 30.3923294,63.2591261 C30.9886876,58.9015489 31.3528138,54.5175009 31.483281,50.1241628 C30.3835314,51.215219 30.3747334,52.3401064 29.9964196,53.2958378 Z" fill-rule="nonzero"></path>
                </g>
            </g>
        </g>
    </g>
</svg>