<?xml version="1.0" standalone="no"?>
<!DOCTYPE svg PUBLIC "-//W3C//DTD SVG 1.1//EN" "http://www.w3.org/Graphics/SVG/1.1/DTD/svg11.dtd">
<svg xmlns="http://www.w3.org/2000/svg">
<defs >
<font id="DMSans" horiz-adv-x="544" ><font-face
    font-family="DM Sans"
    units-per-em="1000"
    panose-1="0 0 0 0 0 0 0 0 0 0"
    ascent="992"
    descent="-310"
    alphabetic="0" />
<glyph unicode=" " glyph-name="space" horiz-adv-x="286" />
<glyph unicode="!" glyph-name="exclam" horiz-adv-x="250" d="M71 194L151 700H242L142 194H71ZM91 -5Q66 -5 50 11T33 52Q33 76 49 92T91 109Q115 109 131 93T148 52Q148 28 132 12T91 -5Z" />
<glyph unicode="&quot;" glyph-name="quotedbl" horiz-adv-x="286" d="M234 558L257 755H337L292 558H234ZM104 558L127 755H207L162 558H104Z" />
<glyph unicode="#" glyph-name="numbersign" horiz-adv-x="814" d="M100 0L177 197H36L49 272H206L270 435H120L133 509H299L376 706H455L379 509H593L670 706H750L673 509H811L799 435H644L580 272H727L713 197H551L474 0H394L471 197H257L180 0H100ZM286 272H500L564
435H350L286 272Z" />
<glyph unicode="$" glyph-name="dollar" horiz-adv-x="591" d="M199 -87L213 -8Q133 5 86 52T39 170Q39 179 40 189T43 210H131Q128 196 128 183Q128 140 154 109T226 65L273 333Q259 338 249 342Q183 366 151 407T118 502Q118 561 145 606T223 679T340 711L354
791H423L408 709Q480 699 523 656T566 549Q566 534 563 518H476Q476 523 476 527T477 537Q477 569 457 597T395 636L353 396Q361 393 370 390T387 384Q448 361 490 320T532 211Q532 146 501 97T413 19T281 -12L268 -87H199ZM207 515Q207 479 229 458T288 420L327
639Q272 631 240 598T207 515ZM442 201Q442 246 412 270T338 311L293 59Q366 63 404 101T442 201Z" />
<glyph unicode="%" glyph-name="percent" horiz-adv-x="774" d="M226 375Q166 375 128 412T89 514Q89 568 114 612T183 684T279 711Q338 711 376 674T415 572Q415 518 390 474T322 402T226 375ZM95 0L625 700H708L179 0H95ZM234 438Q264 438 289 455T329 502T345
566Q345 608 324 628T270 649Q240 649 215 632T174 585T159 521Q159 479 181 459T234 438ZM531 -12Q471 -12 433 25T394 127Q394 181 419 225T488 297T584 324Q644 324 682 288T720 186Q720 132 695 87T627 15T531 -12ZM540 51Q570 51 595 68T635 115T650 179Q650
221 629 241T576 262Q546 262 521 245T480 198T465 134Q465 92 487 72T540 51Z" />
<glyph unicode="&amp;" glyph-name="ampersand" horiz-adv-x="735" d="M240 -12Q143 -12 86 36T28 166Q28 252 85 316T233 415Q211 444 201 471T190 527Q190 582 217 623T291 688T399 712Q469 712 510 677T552 586Q552 573 549 559H466Q467 564 467 567T467 576Q467
609 445 627T388 645Q339 645 307 615T274 541Q274 514 287 488T324 430L507 206Q530 234 555 269L625 362H713L628 244Q590 190 553 149L675 0H570L496 91Q436 38 374 13T240 -12ZM115 179Q115 127 152 94T252 60Q358 60 451 146L274 363Q202 336 159 290T115
179Z" />
<glyph unicode="&apos;" glyph-name="quotesingle" horiz-adv-x="156" d="M104 558L127 755H207L162 558H104Z" />
<glyph unicode="(" glyph-name="parenleft" horiz-adv-x="373" d="M178 -145Q124 -83 88 8T51 215Q51 326 88 435T191 641T347 811H433L432 803Q339 725 273 630T171 432T136 226Q136 120 171 28T267 -137L265 -145H178Z" />
<glyph unicode=")" glyph-name="parenright" horiz-adv-x="373" d="M-30 -145L-29 -137Q64 -59 130 36T231 234T267 440Q267 546 232 638T136 803L138 811H224Q278 749 314 658T351 451Q351 340 315 231T212 25T56 -145H-30Z" />
<glyph unicode="*" glyph-name="asterisk" horiz-adv-x="478" d="M221 360L261 513L121 426L97 487L246 548L120 608L162 667L273 580L287 733H354L313 580L452 666L475 609L325 547L453 486L411 427L300 513L288 360H221Z" />
<glyph unicode="+" glyph-name="plus" horiz-adv-x="584" d="M223 72L256 255H65L77 326H268L300 508H376L344 326H534L522 255H331L299 72H223Z" />
<glyph unicode="," glyph-name="comma" horiz-adv-x="178" d="M-64 -119L33 102H120L-6 -119H-64Z" />
<glyph unicode="-" glyph-name="hyphen" horiz-adv-x="514" d="M61 255L73 326H469L457 255H61Z" />
<glyph unicode="." glyph-name="period" horiz-adv-x="196" d="M64 -5Q39 -5 23 11T6 52Q6 76 22 92T64 109Q89 109 105 93T121 52Q121 28 105 12T64 -5Z" />
<glyph unicode="/" glyph-name="slash" horiz-adv-x="391" d="M-32 -95L370 764H453L50 -95H-32Z" />
<glyph unicode="0" glyph-name="zero" horiz-adv-x="697" d="M305 -12Q226 -12 171 22T87 116T58 259Q58 354 86 436T165 581T282 677T428 712Q507 712 562 678T646 583T675 441Q675 345 647 263T568 119T451 23T305 -12ZM316 62Q371 62 420 91T507 171T566 288T587
431Q587 529 541 583T417 637Q361 637 312 609T226 529T167 412T146 269Q146 171 192 117T316 62Z" />
<glyph unicode="1" glyph-name="one" horiz-adv-x="303" d="M99 0L206 606L88 576L100 639L252 700H309L185 0H99Z" />
<glyph unicode="2" glyph-name="two" horiz-adv-x="574" d="M21 0L31 59Q178 162 270 244T405 395T448 529Q448 557 437 582T402 624T336 640Q290 640 257 620T203 565T176 492H94Q107 561 143 610T231 685T345 712Q429 712 481 665T533 538Q533 465 495 394T374
245T158 70H495L483 0H21Z" />
<glyph unicode="3" glyph-name="three" horiz-adv-x="586" d="M250 -12Q189 -12 142 8T67 68T39 168Q39 187 42 208H127Q127 201 126 194T125 177Q125 129 159 95T259 61Q309 61 348 81T409 136T432 219Q432 279 390 310T284 342H232L244 413H297Q371 413 417
449T463 549Q463 587 437 613T357 639Q299 639 258 605T204 518H119Q132 575 166 619T250 687T365 712Q454 712 502 670T550 561Q550 521 532 484T482 420T406 381Q455 370 486 330T517 229Q517 159 483 105T388 19T250 -12Z" />
<glyph unicode="4" glyph-name="four" horiz-adv-x="605" d="M347 0L374 150H19L30 215L456 700H554L470 224H574L561 150H457L430 0H347ZM125 224H391L459 607L125 224Z" />
<glyph unicode="5" glyph-name="five" horiz-adv-x="613" d="M270 -12Q202 -12 153 13T78 83T53 184Q53 186 53 189H136Q137 131 177 96T280 60Q334 60 378 86T449 160T476 266Q476 328 440 369T342 410Q284 410 240 384T169 316H89L217 700H584L571 627H268L190
414Q220 443 262 462T360 481Q420 481 464 454T533 382T558 280Q558 196 520 130T416 26T270 -12Z" />
<glyph unicode="6" glyph-name="six" horiz-adv-x="625" d="M287 -12Q206 -12 158 21T88 109T67 230Q67 327 91 414T161 568T269 673T408 712Q469 712 510 686T571 617T587 520H509Q509 576 479 607T396 639Q317 639 252 566T154 336Q189 385 241 416T363 448Q421
448 465 423T535 353T560 253Q560 198 539 150T481 66T394 9T287 -12ZM293 62Q346 62 386 85T450 148T474 240Q474 298 439 336T340 375Q288 375 247 351T182 287T158 198Q158 141 194 102T293 62Z" />
<glyph unicode="7" glyph-name="seven" horiz-adv-x="533" d="M85 0L474 628H93L106 700H576L565 637L177 0H85Z" />
<glyph unicode="8" glyph-name="eight" horiz-adv-x="604" d="M263 -12Q201 -12 153 9T78 70T51 166Q51 216 73 258T136 330T227 373Q180 390 155 426T129 504Q129 565 163 612T254 685T382 712Q472 712 522 668T573 550Q573 505 553 470T499 411T425 373Q482
356 508 315T534 221Q534 150 497 98T399 17T263 -12ZM337 403Q373 403 407 417T464 462T487 540Q487 579 471 600T428 631T370 640Q304 640 260 603T215 505Q215 453 250 428T337 403ZM274 62Q325 62 364 81T427 136T450 218Q450 276 413 304T317 333Q267 333
226 314T161 259T136 176Q136 123 173 93T274 62Z" />
<glyph unicode="9" glyph-name="nine" horiz-adv-x="625" d="M254 -12Q192 -12 151 14T91 83T74 180H152Q152 124 182 93T265 61Q344 61 409 134T507 364Q472 315 420 284T299 252Q240 252 196 277T126 347T101 447Q101 502 122 550T180 634T268 691T375 712Q456
712 504 679T573 591T595 470Q595 373 571 286T501 132T393 27T254 -12ZM321 325Q373 325 414 349T480 413T504 502Q504 559 468 598T368 638Q315 638 275 615T211 552T188 460Q188 402 223 364T321 325Z" />
<glyph unicode=":" glyph-name="colon" horiz-adv-x="199" d="M64 -5Q39 -5 23 11T6 52Q6 76 22 92T64 109Q89 109 105 93T121 52Q121 28 105 12T64 -5ZM134 394Q109 394 93 410T76 451Q76 475 92 491T134 508Q159 508 175 492T191 451Q191 427 175 411T134 394Z" />
<glyph unicode=";" glyph-name="semicolon" horiz-adv-x="225" d="M160 393Q135 393 119 409T102 450Q102 474 118 490T160 507Q185 507 201 491T217 450Q217 426 201 410T160 393ZM-46 -119L51 102H138L12 -119H-46Z" />
<glyph unicode="&lt;" glyph-name="less" horiz-adv-x="500" d="M304 137L100 367L386 598H491L205 367L410 137H304Z" />
<glyph unicode="=" glyph-name="equal" horiz-adv-x="526" d="M84 359L96 431H494L482 359H84ZM47 151L59 223H458L445 151H47Z" />
<glyph unicode="&gt;" glyph-name="greater" horiz-adv-x="498" d="M51 137L337 367L132 598H238L441 367L156 137H51Z" />
<glyph unicode="?" glyph-name="question" horiz-adv-x="516" d="M137 196L162 357H191Q262 357 316 373T402 427T434 530Q434 580 402 610T315 641Q251 641 208 606T153 512H74Q84 572 119 617T208 687T327 712Q413 712 464 665T516 538Q516 461 480 408T379
327T231 299L209 196H137ZM153 -5Q128 -5 112 11T95 52Q95 76 111 92T153 109Q178 109 194 93T210 52Q210 28 194 12T153 -5Z" />
<glyph unicode="@" glyph-name="at" horiz-adv-x="1007" d="M425 -199Q318 -199 238 -158T113 -42T68 136Q68 242 105 334T209 494T367 601T567 640Q679 640 760 598T886 480T931 304Q931 247 917 192T876 92T809 21T717 -6Q667 -6 641 20T611 90Q581 45 533 20T432
-6Q356 -6 314 40T271 164Q271 219 288 269T338 359T414 422T513 445Q613 445 643 364L656 434H728L678 148Q671 105 682 79T730 52Q763 52 788 74T829 134T854 215T863 300Q863 387 827 450T722 547T558 581Q467 581 390 547T256 453T168 314T136 143Q136 8 217
-65T440 -139Q483 -139 526 -131T607 -105L619 -162Q575 -181 526 -190T425 -199ZM458 58Q500 58 536 81T595 144T623 238Q630 297 603 339T514 381Q463 381 426 352T369 275T348 177Q348 123 376 91T458 58Z" />
<glyph unicode="A" glyph-name="A" horiz-adv-x="664" d="M-14 0L368 700H457L590 0H503L470 180H172L76 0H-14ZM207 246H458L394 600L207 246Z" />
<glyph unicode="B" glyph-name="B" horiz-adv-x="609" d="M31 0L154 700H401Q498 700 544 657T591 551Q591 478 548 429T436 361Q486 351 517 314T548 222Q548 156 513 106T417 28T285 0H31ZM185 393H340Q413 393 458 432T503 537Q503 581 473 607T379 633H226L185
393ZM127 68H288Q367 68 416 111T465 223Q465 271 429 299T331 327H172L127 68Z" />
<glyph unicode="C" glyph-name="C" horiz-adv-x="722" d="M339 -12Q250 -12 188 23T92 121T59 268Q59 362 89 443T175 584T303 678T463 712Q583 712 649 655T718 494H623Q621 561 578 599T451 638Q386 638 331 611T234 534T170 418T147 275Q147 174 201 118T351
62Q435 62 490 100T572 203H667Q628 101 543 45T339 -12Z" />
<glyph unicode="D" glyph-name="D" horiz-adv-x="701" d="M31 0L154 700H369Q527 700 601 627T676 417Q676 294 623 200T474 53T246 0H31ZM127 70H257Q361 70 435 112T549 230T589 411Q589 518 535 574T355 630H226L127 70Z" />
<glyph unicode="E" glyph-name="E" horiz-adv-x="542" d="M31 0L154 700H559L546 633H226L183 386H473L462 320H171L127 67H447L435 0H31Z" />
<glyph unicode="F" glyph-name="F" horiz-adv-x="530" d="M31 0L154 700H570L558 633H226L183 384H462L450 319H171L115 0H31Z" />
<glyph unicode="G" glyph-name="G" horiz-adv-x="761" d="M333 -12Q248 -12 188 25T94 129T61 279Q61 373 91 452T175 590T303 680T466 712Q585 712 656 655T733 498H636Q633 561 587 598T457 635Q365 635 296 590T188 466T149 284Q149 183 202 123T349 63Q461
63 529 128T626 308H424L435 374H724L658 0H581L594 115Q545 54 485 21T333 -12Z" />
<glyph unicode="H" glyph-name="H" horiz-adv-x="680" d="M31 0L154 700H238L183 390H547L602 700H686L562 0H478L536 324H172L115 0H31Z" />
<glyph unicode="I" glyph-name="I" horiz-adv-x="233" d="M31 0L154 700H238L115 0H31Z" />
<glyph unicode="J" glyph-name="J" horiz-adv-x="486" d="M178 -12Q90 -12 47 40T19 186H104Q95 135 114 99T191 63Q247 63 277 96T315 172L407 700H491L399 172Q384 88 324 38T178 -12Z" />
<glyph unicode="K" glyph-name="K" horiz-adv-x="589" d="M31 0L154 700H238L183 383L530 700H636L327 421L517 0H420L259 360L163 273L115 0H31Z" />
<glyph unicode="L" glyph-name="L" horiz-adv-x="526" d="M31 0L154 700H238L127 67H453L441 0H31Z" />
<glyph unicode="M" glyph-name="M" horiz-adv-x="848" d="M31 0L154 700H252L418 212L754 700H853L730 0H646L742 550L430 100H367L212 549L115 0H31Z" />
<glyph unicode="N" glyph-name="N" horiz-adv-x="690" d="M31 0L154 700H237L512 133L611 700H695L572 0H488L215 567L115 0H31Z" />
<glyph unicode="O" glyph-name="O" horiz-adv-x="795" d="M353 -12Q266 -12 200 26T98 132T61 286Q61 375 93 452T183 587T317 679T478 712Q565 712 630 674T733 569T770 415Q770 326 738 249T647 113T514 21T353 -12ZM365 62Q430 62 488 89T589 163T658 274T683
411Q683 481 656 531T579 609T466 637Q400 637 343 611T241 537T173 427T148 291Q148 221 175 170T252 90T365 62Z" />
<glyph unicode="P" glyph-name="P" horiz-adv-x="583" d="M31 0L154 700H384Q456 700 502 676T570 612T592 525Q592 451 557 399T459 320T313 292H167L115 0H31ZM179 363H323Q409 363 456 401T504 519Q504 567 473 598T370 630H226L179 363Z" />
<glyph unicode="Q" glyph-name="Q" horiz-adv-x="789" d="M353 -12Q266 -12 200 26T98 132T61 286Q61 375 93 452T183 587T317 679T478 712Q565 712 630 674T733 569T770 415Q770 331 741 257T658 124T536 31L680 -135H570L455 1Q405 -12 353 -12ZM365 62Q430
62 488 89T589 163T658 274T683 411Q683 481 656 531T579 609T466 637Q400 637 343 611T241 537T173 427T148 291Q148 221 175 170T252 90T365 62Z" />
<glyph unicode="R" glyph-name="R" horiz-adv-x="594" d="M31 0L154 700H379Q451 700 496 676T562 611T583 524Q583 438 534 380T401 301L500 0H409L318 289Q311 289 304 289H166L115 0H31ZM178 355H314Q397 355 447 396T497 516Q497 563 465 596T361 629H226L178 355Z" />
<glyph unicode="S" glyph-name="S" horiz-adv-x="591" d="M269 -12Q200 -12 149 10T68 74T39 170Q39 179 40 189T43 210H131Q128 196 128 183Q128 129 168 94T278 59Q358 59 400 98T442 201Q442 234 426 255T381 291T319 317T249 342Q183 366 151 407T118 502Q118
565 149 612T236 685T366 712Q425 712 470 692T541 634T566 549Q566 534 563 518H476Q476 523 476 527T477 537Q477 576 447 608T354 640Q288 640 248 605T207 515Q207 477 231 455T297 417T387 384Q448 361 490 320T532 211Q532 144 499 94T407 16T269 -12Z" />
<glyph unicode="T" glyph-name="T" horiz-adv-x="559" d="M194 0L305 633H97L109 700H610L598 633H389L278 0H194Z" />
<glyph unicode="U" glyph-name="U" horiz-adv-x="667" d="M281 -12Q218 -12 169 9T92 76T63 190Q63 222 69 258L148 700H232L153 258Q147 228 147 203Q147 130 187 97T295 64Q373 64 429 110T504 258L583 700H667L589 258Q573 165 528 105T418 17T281 -12Z" />
<glyph unicode="V" glyph-name="V" horiz-adv-x="669" d="M241 0L102 700H193L306 92L636 700H727L339 0H241Z" />
<glyph unicode="W" glyph-name="W" horiz-adv-x="968" d="M168 -1L100 700H191L236 104L513 700H607L667 103L925 700H1016L696 0H600L535 576L263 0L168 -1Z" />
<glyph unicode="X" glyph-name="X" horiz-adv-x="594" d="M-19 0L255 352L102 700H198L321 421L534 700H630L352 349L506 0H410L287 280L75 0H-19Z" />
<glyph unicode="Y" glyph-name="Y" horiz-adv-x="579" d="M198 0L245 266L93 700H189L301 346L539 700H633L329 266L282 0H198Z" />
<glyph unicode="Z" glyph-name="Z" horiz-adv-x="535" d="M-6 0L6 66L449 627H109L123 700H560L549 634L104 73H454L441 0H-6Z" />
<glyph unicode="[" glyph-name="bracketleft" horiz-adv-x="308" d="M4 -151L174 811H348L335 742H240L95 -81H190L178 -151H4Z" />
<glyph unicode="\" glyph-name="backslash" horiz-adv-x="391" d="M219 -95L119 764H202L301 -95H219Z" />
<glyph unicode="]" glyph-name="bracketright" horiz-adv-x="308" d="M-11 -151L1 -82H97L242 741H147L159 811H333L163 -151H-11Z" />
<glyph unicode="^" glyph-name="asciicircum" horiz-adv-x="620" d="M17 178L344 700H422L564 178H478L366 597L103 178H17Z" />
<glyph unicode="_" glyph-name="underscore" horiz-adv-x="641" d="M-5 -115L8 -36H532L519 -115H-5Z" />
<glyph unicode="`" glyph-name="grave" horiz-adv-x="254" d="M283 537L94 654L106 727L294 600L283 537Z" />
<glyph unicode="a" glyph-name="a" horiz-adv-x="539" d="M186 -12Q130 -12 95 6T43 55T26 121Q26 176 57 216T143 277T273 299H406L407 305Q410 322 410 339Q410 387 383 412T306 437Q258 437 217 413T160 341H73Q89 395 125 432T212 488T317 508Q406 508 450
466T495 352Q495 341 494 329T491 305L438 0H362L372 88Q344 46 299 17T186 -12ZM211 59Q259 59 297 84T361 149T394 233V233V234H268Q197 234 157 207T116 131Q116 97 140 78T211 59Z" />
<glyph unicode="b" glyph-name="b" horiz-adv-x="619" d="M290 -12Q249 -12 216 2T159 38T124 84L101 0H25L152 720H236L183 419Q213 454 258 481T372 508Q436 508 481 480T551 404T576 295Q576 208 539 139T436 29T290 -12ZM294 61Q351 61 395 90T464 169T489
283Q489 349 452 392T350 435Q293 435 248 405T178 324T152 209Q152 142 190 102T294 61Z" />
<glyph unicode="c" glyph-name="c" horiz-adv-x="569" d="M250 -12Q189 -12 142 14T69 88T43 199Q43 265 66 321T130 420T225 485T341 508Q431 508 484 461T538 334H452Q452 385 416 410T329 436Q274 436 229 407T157 326T130 208Q130 137 169 98T263 59Q314 59
358 85T422 162H508Q489 111 451 72T362 10T250 -12Z" />
<glyph unicode="d" glyph-name="d" horiz-adv-x="620" d="M247 -12Q183 -12 138 17T68 97T44 207Q44 295 81 362T183 469T326 508Q392 508 434 482T496 413L550 720H634L507 0H430L437 82Q408 46 362 17T247 -12ZM271 61Q328 61 372 92T442 175T468 291Q468 356
431 395T329 435Q272 435 227 406T157 328T131 215Q131 149 168 105T271 61Z" />
<glyph unicode="e" glyph-name="e" horiz-adv-x="568" d="M246 -12Q154 -12 99 45T43 198Q43 284 81 354T185 466T337 508Q402 508 446 483T513 414T536 319Q536 299 532 274T523 229H127Q125 212 125 199Q125 128 165 94T259 59Q311 59 350 83T412 148H495Q464
79 399 34T246 -12ZM326 437Q266 437 213 401T140 294H452Q453 300 453 305T454 316Q454 373 419 405T326 437Z" />
<glyph unicode="f" glyph-name="f" horiz-adv-x="334" d="M52 0L127 425H53L65 496H139L154 582Q167 654 209 687T321 720H370L357 648H321Q283 648 264 633T238 580L223 496H346L333 425H211L136 0H52Z" />
<glyph unicode="g" glyph-name="g" horiz-adv-x="550" d="M244 156Q200 156 166 168L117 130Q139 116 167 108T249 96Q319 91 358 71T414 22T430 -40Q430 -95 398 -138T309 -207T178 -232Q87 -232 30 -196T-27 -91Q-27 -44 -2 -6T73 63Q38 79 16 103L20 127L113
201Q74 239 74 299Q74 358 105 405T188 480T306 508Q349 508 382 496H565L553 434L460 430Q474 401 474 365Q474 306 444 259T361 184T244 156ZM256 225Q317 225 355 261T394 356Q394 395 367 417T294 439Q233 439 195 403T156 308Q156 268 182 247T256 225ZM58
-75Q58 -116 93 -139T190 -163Q258 -163 302 -132T346 -48Q346 -20 324 1T237 28Q183 31 141 41Q58 -5 58 -75Z" />
<glyph unicode="h" glyph-name="h" horiz-adv-x="573" d="M26 0L152 720H236L182 411Q214 456 263 482T368 508Q455 508 498 455T522 290L471 0H387L436 281Q463 436 336 436Q272 436 221 390T155 257V257L110 0H26Z" />
<glyph unicode="i" glyph-name="i" horiz-adv-x="241" d="M194 606Q169 606 153 622T136 663Q136 688 152 704T194 720Q218 720 235 704T252 663Q252 638 235 622T194 606ZM35 0L122 496H206L119 0H35Z" />
<glyph unicode="j" glyph-name="j" horiz-adv-x="242" d="M192 606Q167 606 151 622T134 663Q134 688 150 704T192 720Q216 720 232 704T249 663Q249 638 233 622T192 606ZM-116 -220L-103 -148H-65Q-28 -148 -9 -133T17 -80L119 496H203L101 -82Q89 -154 47 -187T-65
-220H-116Z" />
<glyph unicode="k" glyph-name="k" horiz-adv-x="512" d="M25 0L153 720H237L160 287L400 496H511L244 273L453 0H351L155 261L109 0H25Z" />
<glyph unicode="l" glyph-name="l" horiz-adv-x="223" d="M25 0L153 720H237L109 0H25Z" />
<glyph unicode="m" glyph-name="m" horiz-adv-x="885" d="M26 0L113 496H188L181 415Q210 458 253 483T346 508Q401 508 441 483T496 407Q528 454 577 481T679 508Q734 508 773 485T830 413T834 290L783 0H699L748 281Q762 358 738 397T659 436Q606 436 560 395T495
275L446 0H363L412 281Q425 358 401 397T322 436Q267 436 219 390T155 257V257L110 0H26Z" />
<glyph unicode="n" glyph-name="n" horiz-adv-x="573" d="M26 0L113 496H189L179 406Q211 454 261 481T368 508Q442 508 485 467T528 348Q528 334 527 320T522 290L471 0H387L436 281Q438 294 439 306T441 329Q441 436 336 436Q273 436 224 392T157 266L110 0H26Z" />
<glyph unicode="o" glyph-name="o" horiz-adv-x="593" d="M255 -12Q193 -12 145 16T70 93T43 204Q43 270 66 325T129 421T222 485T337 508Q399 508 447 481T522 406T549 295Q549 230 527 174T464 77T370 12T255 -12ZM266 60Q322 60 366 90T437 172T463 289Q463
359 423 397T326 436Q271 436 227 406T157 324T131 207Q131 160 149 128T199 78T266 60Z" />
<glyph unicode="p" glyph-name="p" horiz-adv-x="620" d="M-14 -220L113 496H191L183 414Q214 453 259 480T372 508Q436 508 482 480T552 404T577 295Q577 208 540 139T437 29T290 -12Q250 -12 217 2T160 38T125 84L70 -220H-14ZM295 61Q352 61 396 90T465 169T490
283Q490 349 453 392T351 435Q294 435 249 405T178 324T152 209Q152 142 191 102T295 61Z" />
<glyph unicode="q" glyph-name="q" horiz-adv-x="621" d="M385 -220L437 82Q408 46 362 17T247 -12Q183 -12 138 17T68 97T44 207Q44 295 81 362T183 469T326 508Q392 508 434 482T496 413L519 496H595L469 -220H385ZM271 61Q328 61 372 92T442 175T468 291Q468
356 431 395T329 435Q272 435 227 406T157 328T131 215Q131 149 168 105T271 61Z" />
<glyph unicode="r" glyph-name="r" horiz-adv-x="369" d="M26 0L113 496H190L181 408Q213 454 265 481T385 508L370 420H347Q302 420 263 406T195 359T157 267L110 0H26Z" />
<glyph unicode="s" glyph-name="s" horiz-adv-x="514" d="M217 -12Q124 -12 72 35T27 164H112Q110 122 137 91T229 59Q282 59 314 82T346 148Q346 181 317 196T238 221Q201 229 166 243T108 284T84 350Q84 395 110 430T181 487T285 508Q364 508 411 469T455 356H371Q373
393 348 415T276 437Q230 437 201 416T171 363Q171 333 199 318T276 292Q317 283 353 268T411 227T434 159Q434 107 406 69T329 9T217 -12Z" />
<glyph unicode="t" glyph-name="t" horiz-adv-x="370" d="M205 0Q143 0 109 24T75 108Q75 118 76 129T79 154L127 425H50L63 496H140L172 615H246L224 496H371L358 425H212L163 154Q161 138 161 126Q161 95 177 84T231 72H296L283 0H205Z" />
<glyph unicode="u" glyph-name="u" horiz-adv-x="573" d="M205 -12Q130 -12 88 29T45 148Q45 162 46 176T50 206L102 496H186L136 215Q134 202 133 190T131 167Q131 60 236 60Q299 60 349 104T416 230L463 496H547L460 0H384L394 90Q362 42 312 15T205 -12Z" />
<glyph unicode="v" glyph-name="v" horiz-adv-x="530" d="M171 0L63 496H150L235 80L465 496H554L270 0H171Z" />
<glyph unicode="w" glyph-name="w" horiz-adv-x="745" d="M122 0L63 496H148L184 107L369 496H464L511 107L685 496H769L537 0H451L401 409L207 0H122Z" />
<glyph unicode="x" glyph-name="x" horiz-adv-x="499" d="M-24 0L194 251L67 496H154L258 291L433 496H523L306 245L432 0H346L242 205L67 0H-24Z" />
<glyph unicode="y" glyph-name="y" horiz-adv-x="555" d="M41 -220L210 48H182L63 496H152L251 110L492 496H580L129 -220H41Z" />
<glyph unicode="z" glyph-name="z" horiz-adv-x="454" d="M-14 0L-1 69L347 426H77L90 496H456L443 427L94 70H374L361 0H-14Z" />
<glyph unicode="{" glyph-name="braceleft" horiz-adv-x="425" d="M250 -152Q190 -152 156 -124T121 -38Q121 5 136 47T166 130T182 208Q182 238 163 261T95 296L107 364Q173 377 205 417T237 552Q237 565 237 575T236 597Q236 702 285 756T419 811H472L459 739H421Q396
739 373 730T334 693T317 606Q317 591 317 576T316 541Q316 473 297 430T247 363T174 331V329Q221 318 242 289T264 221Q264 175 249 132T220 51T205 -19Q205 -55 226 -67T277 -80H315L303 -152H250Z" />
<glyph unicode="|" glyph-name="bar" horiz-adv-x="233" d="M13 -100L158 720H242L97 -100H13Z" />
<glyph unicode="}" glyph-name="braceright" horiz-adv-x="425" d="M-18 -152L-5 -80H33Q58 -80 81 -71T120 -33T136 53Q137 68 137 84T137 118Q138 187 156 230T207 296T280 329V331Q232 342 211 370T190 439Q190 484 205 527T234 609T249 678Q249 714 228 726T177
739H139L151 811H204Q264 811 298 783T333 698Q333 654 318 612T287 529T272 452Q272 422 291 398T359 363L347 295Q281 282 249 242T217 107Q217 94 217 84T217 62Q217 -43 168 -97T35 -152H-18Z" />
<glyph unicode="~" glyph-name="asciitilde" horiz-adv-x="512" d="M338 249Q309 249 289 259T253 282T220 305T181 315Q155 315 134 297T102 250H39Q65 322 106 356T200 391Q229 391 249 381T285 358T319 335T357 325Q383 325 404 343T436 391H499Q474 319 432
284T338 249Z" />
<glyph unicode="&#xa0;" glyph-name="uni00A0" horiz-adv-x="286" />
<glyph unicode="&#xa1;" glyph-name="exclamdown" horiz-adv-x="250" d="M170 448Q146 448 130 464T113 505Q113 529 129 546T170 563Q195 563 211 546T228 505Q228 481 212 465T170 448ZM19 -143L119 363H190L110 -143H19Z" />
<glyph unicode="&#xa2;" glyph-name="cent" horiz-adv-x="569" d="M193 -101L209 -9Q134 4 89 59T43 199Q43 280 77 346T169 453T300 505L316 600H398L381 505Q454 495 495 450T538 334H452Q452 385 416 410T329 436Q274 436 229 407T157 326T130 208Q130 137
169 98T263 59Q314 59 358 85T422 162H508Q483 94 425 48T290 -9L274 -101H193Z" />
<glyph unicode="&#xa3;" glyph-name="sterling" horiz-adv-x="594" d="M41 0L50 49Q104 100 135 153T166 277Q166 293 164 310H49L60 369H154Q150 390 147 411T144 456Q144 532 175 589T263 679T393 712Q488 712 535 662T582 539Q582 531 582 523T580 507H503Q503
513 503 519T504 531Q504 580 475 611T387 642Q309 642 266 591T222 462Q222 438 225 415T234 369H427L417 310H244Q245 294 245 280Q245 216 215 164T137 69H502L490 0H41Z" />
<glyph unicode="&#xa4;" glyph-name="currency" horiz-adv-x="532" d="M75 92L44 130L117 192Q97 228 97 272Q97 314 111 349T151 410L104 466L148 504L197 445Q246 473 306 473Q362 473 401 441L474 504L506 466L433 405Q453 371 453 327Q453 286 439 251T399
188L446 130L402 92L354 151Q303 121 244 121Q215 121 191 130T148 154L75 92ZM255 186Q288 186 315 204T357 252T373 321Q373 365 349 387T294 409Q245 409 211 371T177 273Q177 230 200 208T255 186Z" />
<glyph unicode="&#xa5;" glyph-name="yen" horiz-adv-x="598" d="M43 167L54 228H254L261 266L243 318L70 319L80 379H221L109 700H204L316 344L554 700H649L424 379H564L554 319L381 318L345 266L338 228H538L527 167H327L297 0H213L243 167H43Z" />
<glyph unicode="&#xa6;" glyph-name="brokenbar" horiz-adv-x="233" d="M99 387L158 720H242L183 387H99ZM13 -100L72 233H156L97 -100H13Z" />
<glyph unicode="&#xa7;" glyph-name="section" horiz-adv-x="596" d="M221 -232Q154 -232 107 -207T37 -138T24 -38H111Q106 -67 116 -95T154 -142T227 -160Q271 -161 305 -144T359 -96T379 -27Q379 9 356 28T292 62T199 95Q137 118 96 156T55 262Q55 311 77 352T139
428Q125 454 125 487Q125 551 156 602T244 682T373 712Q439 712 487 687T557 618T570 518H483Q488 547 478 575T440 622T367 640Q323 641 289 624T235 576T214 507Q214 471 238 451T304 417T395 385Q434 371 467 349T519 296T539 218Q539 169 517 127T455 52Q474
15 466 -34Q458 -92 427 -136T343 -206T221 -232ZM403 104Q424 122 436 148T449 205Q449 238 433 258T390 293T330 318T261 342Q240 349 223 358T191 376Q173 361 159 335T145 275Q145 234 170 211T237 173T332 138Q356 129 371 122T403 104Z" />
<glyph unicode="&#xa8;" glyph-name="dieresis" horiz-adv-x="323" d="M308 571Q287 571 273 585T258 621Q258 641 272 656T308 671Q329 671 343 656T357 621Q357 600 343 586T308 571ZM148 571Q127 571 113 585T98 621Q98 641 112 656T148 671Q168 671 183 656T198
621Q198 600 183 586T148 571Z" />
<glyph unicode="&#xa9;" glyph-name="copyright" horiz-adv-x="794" d="M347 -4Q256 -4 191 33T91 137T55 287Q55 374 86 450T175 583T307 672T471 704Q561 704 626 667T726 564T762 415Q762 328 731 252T643 118T511 28T347 -4ZM353 32Q435 32 502 61T619 142T695
263T722 412Q722 486 692 544T605 635T465 669Q384 669 316 640T199 559T122 438T95 290Q95 215 125 157T213 65T353 32ZM367 119Q290 119 239 166T187 300Q187 357 206 408T261 498T345 560T450 583Q524 583 573 544T627 430H551Q545 475 515 498T439 522Q385
522 345 491T284 411T262 306Q262 243 294 211T378 179Q425 179 463 202T523 270H599Q568 200 505 160T367 119Z" />
<glyph unicode="&#xaa;" glyph-name="ordfeminine" horiz-adv-x="448" d="M211 350Q149 350 112 389T74 493Q74 552 100 601T172 681T274 712Q325 712 355 689T394 628L414 706H474L413 356H353L360 433Q338 396 300 373T211 350ZM237 403Q279 403 311 425T361
483T379 560Q379 607 352 633T282 659Q243 659 212 638T162 580T143 502Q143 455 170 429T237 403Z" />
<glyph unicode="&#xab;" glyph-name="guillemotleft" horiz-adv-x="453" d="M292 120L226 295L354 470H437L306 295L375 120H292ZM114 120L48 295L176 470H259L128 295L198 120H114Z" />
<glyph unicode="&#xac;" glyph-name="logicalnot" horiz-adv-x="672" d="M527 223L552 365H66L78 432H647L610 223H527Z" />
<glyph unicode="&#xad;" glyph-name="uni00AD" horiz-adv-x="600" d="M61 255L73 326H469L457 255H61Z" />
<glyph unicode="&#xae;" glyph-name="registered" horiz-adv-x="504" d="M257 307Q198 307 158 333T100 405T93 509Q103 567 137 613T221 685T329 712Q388 712 428 686T486 613T493 509Q483 451 449 405T366 333T257 307ZM264 343Q312 343 352 364T419 423T455
509Q467 582 431 628T322 675Q273 675 234 654T168 595T132 509Q119 436 154 390T264 343ZM195 403L233 618H328Q361 618 378 601T390 552Q385 528 369 512T329 489L370 404L316 403L278 487H257L243 403H195ZM264 526H307Q320 526 329 532T341 551Q343 563 336
569T316 575H273L264 526Z" />
<glyph unicode="&#xaf;" glyph-name="overscore" horiz-adv-x="392" d="M82 592L94 655H441L431 592H82Z" />
<glyph unicode="&#xb0;" glyph-name="degree" horiz-adv-x="348" d="M231 444Q178 444 139 480T100 577Q100 618 118 648T166 695T232 712Q286 712 325 676T364 577Q364 537 346 507T297 461T231 444ZM231 506Q256 506 277 524T298 578Q298 614 278 632T232 650Q208
650 187 632T165 578Q165 542 186 524T231 506Z" />
<glyph unicode="&#xb1;" glyph-name="plusminus" horiz-adv-x="603" d="M242 125L267 266H67L80 337H279L304 478H380L355 337H555L542 266H342L317 125H242ZM20 0L34 73H508L495 0H20Z" />
<glyph unicode="&#xb2;" glyph-name="uni00B2" horiz-adv-x="330" d="M47 352L55 400L184 492Q217 516 241 541T271 600Q276 630 263 644T227 659Q173 659 156 600H89Q100 646 138 678T239 710Q296 710 323 679T342 603Q334 562 305 531T222 466L131 406H312L302 352H47Z" />
<glyph unicode="&#xb3;" glyph-name="uni00B3" horiz-adv-x="330" d="M173 347Q113 347 83 374T57 454H123Q122 422 138 410T180 398Q210 398 230 412T254 452Q259 479 243 493T196 508H150L158 549H203Q232 549 252 563T278 604Q283 629 269 643T226 658Q197
658 179 646T151 611H88Q100 653 139 681T240 710Q295 710 326 681T350 608Q345 577 324 557T272 529L271 527Q299 518 314 498T324 444Q317 404 277 376T173 347Z" />
<glyph unicode="&#xb4;" glyph-name="acute" horiz-adv-x="255" d="M74 537L84 600L317 727L304 654L74 537Z" />
<glyph unicode="&#xb5;" glyph-name="uni00B5" horiz-adv-x="584" d="M-14 -220L113 496H197L148 215Q146 202 145 190T143 167Q143 60 248 60Q310 60 360 104T427 230L474 496H558L471 0H395L405 89Q373 42 323 15T216 -12Q151 -12 113 23L70 -220H-14Z" />
<glyph unicode="&#xb6;" glyph-name="paragraph" horiz-adv-x="590" d="M225 -100L295 295H285Q214 295 169 321T102 388T80 476Q80 549 115 599T212 674T356 700H596L455 -100H381L511 634H428L299 -100H225Z" />
<glyph unicode="&#xb7;" glyph-name="middot" horiz-adv-x="196" d="M115 285Q90 285 74 301T57 342Q57 367 73 383T115 399Q140 399 156 383T172 342Q172 318 156 302T115 285Z" />
<glyph unicode="&#xb8;" glyph-name="cedilla" horiz-adv-x="272" d="M-73 -259L-64 -206H28Q104 -206 104 -154Q104 -113 45 -113H-5L16 7H73L60 -63Q111 -62 142 -82T174 -147Q174 -195 135 -227T38 -259H-73Z" />
<glyph unicode="&#xb9;" glyph-name="uni00B9" horiz-adv-x="204" d="M106 352L157 638L87 620L94 662L192 704H235L173 352H106Z" />
<glyph unicode="&#xba;" glyph-name="ordmasculine" horiz-adv-x="433" d="M229 348Q159 348 117 388T74 494Q74 554 103 603T181 682T290 712Q360 712 403 673T446 567Q446 507 417 457T339 378T229 348ZM237 401Q279 401 310 423T359 482T377 562Q377 611 350
636T282 661Q239 661 208 638T160 577T142 500Q142 451 169 426T237 401Z" />
<glyph unicode="&#xbb;" glyph-name="guillemotright" horiz-adv-x="452" d="M209 120L340 295L271 470H354L420 295L292 120H209ZM31 120L162 295L93 470H176L242 295L114 120H31Z" />
<glyph unicode="&#xbc;" glyph-name="onequarter" horiz-adv-x="628" d="M125 352L175 638L106 620L113 662L211 704H254L192 352H125ZM15 0L508 700H588L95 0H15ZM425 0L438 70H257L263 109L467 354H555L513 113H560L553 70H505L492 0H425ZM331 114H447L479 292L331
114Z" />
<glyph unicode="&#xbd;" glyph-name="onehalf" horiz-adv-x="674" d="M125 352L175 638L106 620L113 662L211 704H254L192 352H125ZM7 0L494 700H575L87 0H7ZM386 -1L394 47L523 139Q556 163 580 188T610 247Q616 277 603 291T566 306Q512 306 496 247H428Q439
293 477 325T578 357Q635 357 662 326T681 250Q674 209 644 178T561 113L470 53H651L641 -1H386Z" />
<glyph unicode="&#xbe;" glyph-name="threequarters" horiz-adv-x="685" d="M192 347Q131 347 101 374T75 454H142Q141 422 157 410T199 398Q229 398 249 412T273 452Q278 479 262 493T215 508H169L176 549H222Q251 549 271 563T297 604Q302 629 288 643T245 658Q216
658 198 646T170 611H107Q118 653 157 681T259 710Q314 710 345 681T369 608Q363 577 342 557T291 529L290 527Q317 518 332 498T342 444Q335 404 295 376T192 347ZM85 0L587 700H666L165 0H85ZM482 0L495 70H313L320 109L522 354H611L569 113H617L610 70H561L548
0H482ZM388 113H504L536 293L388 113Z" />
<glyph unicode="&#xbf;" glyph-name="questiondown" horiz-adv-x="516" d="M372 439Q347 439 331 455T315 496Q315 520 331 537T372 554Q397 554 413 537T430 496Q430 472 414 456T372 439ZM198 -164Q112 -164 61 -117T9 10Q9 87 45 140T146 222T294 250L316 353H388L364
191H334Q263 191 209 175T123 122T91 18Q91 -31 123 -61T210 -92Q274 -92 317 -58T372 37H451Q441 -23 406 -68T317 -139T198 -164Z" />
<glyph unicode="&#xc0;" glyph-name="Agrave" horiz-adv-x="664" d="M-14 0L368 700H457L590 0H503L470 180H172L76 0H-14ZM207 246H458L394 600L207 246ZM449 741L260 858L272 931L460 804L449 741Z" />
<glyph unicode="&#xc1;" glyph-name="Aacute" horiz-adv-x="664" d="M-14 0L368 700H457L590 0H503L470 180H172L76 0H-14ZM207 246H458L394 600L207 246ZM376 741L386 804L619 931L606 858L376 741Z" />
<glyph unicode="&#xc2;" glyph-name="Acircumflex" horiz-adv-x="664" d="M-14 0L368 700H457L590 0H503L470 180H172L76 0H-14ZM207 246H458L394 600L207 246ZM285 758L297 823L449 905L571 823L559 758L437 842L285 758Z" />
<glyph unicode="&#xc3;" glyph-name="Atilde" horiz-adv-x="664" d="M-14 0L368 700H457L590 0H503L470 180H172L76 0H-14ZM207 246H458L394 600L207 246ZM282 759Q298 809 327 834T395 860Q422 860 437 848T466 825T502 813Q518 813 532 824T553 858H602Q587
809 557 783T488 757Q461 757 445 769T416 792T381 804Q344 804 331 759H282Z" />
<glyph unicode="&#xc4;" glyph-name="Adieresis" horiz-adv-x="664" d="M-14 0L368 700H457L590 0H503L470 180H172L76 0H-14ZM207 246H458L394 600L207 246ZM515 775Q493 775 479 789T465 825Q465 845 479 860T515 875Q535 875 549 860T564 825Q564 804 550 790T515
775ZM354 775Q333 775 319 789T304 825Q304 845 318 860T354 875Q375 875 389 860T404 825Q404 804 390 790T354 775Z" />
<glyph unicode="&#xc5;" glyph-name="Aring" horiz-adv-x="664" d="M-14 0L368 700H457L590 0H503L470 180H172L76 0H-14ZM207 246H458L394 600L207 246ZM442 761Q399 761 368 788T337 864Q337 912 368 939T442 967Q486 967 516 940T547 864Q547 816 517 789T442
761ZM442 804Q466 804 482 820T499 864Q499 891 483 907T442 923Q419 923 402 907T385 864Q385 837 402 821T442 804Z" />
<glyph unicode="&#xc6;" glyph-name="AE" horiz-adv-x="917" d="M-14 0L509 700H934L922 633H633L589 386H848L837 320H578L534 67H822L810 0H437L465 159H197L78 0H-14ZM549 631L246 226H477L549 631Z" />
<glyph unicode="&#xc7;" glyph-name="Ccedilla" horiz-adv-x="722" d="M339 -12Q250 -12 188 23T92 121T59 268Q59 362 89 443T175 584T303 678T463 712Q583 712 649 655T718 494H623Q621 561 578 599T451 638Q386 638 331 611T234 534T170 418T147 275Q147 174
201 118T351 62Q435 62 490 100T572 203H667Q628 101 543 45T339 -12ZM223 -260L232 -207H324Q400 -207 400 -155Q400 -114 341 -114H291L312 6H369L356 -64Q408 -63 439 -83T470 -148Q470 -196 431 -228T334 -260H223Z" />
<glyph unicode="&#xc8;" glyph-name="Egrave" horiz-adv-x="542" d="M31 0L154 700H559L546 633H226L183 386H473L462 320H171L127 67H447L435 0H31ZM394 741L205 858L217 931L405 804L394 741Z" />
<glyph unicode="&#xc9;" glyph-name="Eacute" horiz-adv-x="542" d="M31 0L154 700H559L546 633H226L183 386H473L462 320H171L127 67H447L435 0H31ZM320 741L330 804L563 931L550 858L320 741Z" />
<glyph unicode="&#xca;" glyph-name="Ecircumflex" horiz-adv-x="542" d="M31 0L154 700H559L546 633H226L183 386H473L462 320H171L127 67H447L435 0H31ZM229 758L241 823L393 905L515 823L503 758L381 842L229 758Z" />
<glyph unicode="&#xcb;" glyph-name="Edieresis" horiz-adv-x="542" d="M31 0L154 700H559L546 633H226L183 386H473L462 320H171L127 67H447L435 0H31ZM460 775Q438 775 424 789T410 825Q410 845 424 860T460 875Q480 875 494 860T509 825Q509 804 495 790T460
775ZM299 775Q278 775 264 789T249 825Q249 845 263 860T299 875Q320 875 334 860T349 825Q349 804 335 790T299 775Z" />
<glyph unicode="&#xcc;" glyph-name="Igrave" horiz-adv-x="233" d="M31 0L154 700H238L115 0H31ZM488 741L299 858L311 931L499 804L488 741Z" />
<glyph unicode="&#xcd;" glyph-name="Iacute" horiz-adv-x="233" d="M31 0L154 700H238L115 0H31ZM158 741L168 804L401 931L388 858L158 741Z" />
<glyph unicode="&#xce;" glyph-name="Icircumflex" horiz-adv-x="233" d="M31 0L154 700H238L115 0H31ZM323 758L335 823L487 905L609 823L597 758L475 842L323 758Z" />
<glyph unicode="&#xcf;" glyph-name="Idieresis" horiz-adv-x="233" d="M31 0L154 700H238L115 0H31ZM554 775Q532 775 518 789T504 825Q504 845 518 860T554 875Q574 875 588 860T603 825Q603 804 589 790T554 775ZM393 775Q372 775 358 789T343 825Q343 845
357 860T393 875Q414 875 428 860T443 825Q443 804 429 790T393 775Z" />
<glyph unicode="&#xd0;" glyph-name="Eth" horiz-adv-x="716" d="M46 0L101 311H14L27 387H114L169 700H384Q542 700 616 627T691 417Q691 294 638 200T489 53T261 0H46ZM143 70H272Q377 70 451 112T564 230T604 411Q604 518 550 574T370 630H241L198 387H399L386
311H185L143 70Z" />
<glyph unicode="&#xd1;" glyph-name="Ntilde" horiz-adv-x="690" d="M31 0L154 700H237L512 133L611 700H695L572 0H488L215 567L115 0H31ZM294 759Q310 809 339 834T407 860Q434 860 449 848T478 825T514 813Q530 813 544 824T565 858H614Q599 809 569 783T500
757Q473 757 457 769T428 792T393 804Q356 804 343 759H294Z" />
<glyph unicode="&#xd2;" glyph-name="Ograve" horiz-adv-x="795" d="M353 -12Q266 -12 200 26T98 132T61 286Q61 375 93 452T183 587T317 679T478 712Q565 712 630 674T733 569T770 415Q770 326 738 249T647 113T514 21T353 -12ZM365 62Q430 62 488 89T589 163T658
274T683 411Q683 481 656 531T579 609T466 637Q400 637 343 611T241 537T173 427T148 291Q148 221 175 170T252 90T365 62ZM515 741L326 858L338 931L526 804L515 741Z" />
<glyph unicode="&#xd3;" glyph-name="Oacute" horiz-adv-x="795" d="M353 -12Q266 -12 200 26T98 132T61 286Q61 375 93 452T183 587T317 679T478 712Q565 712 630 674T733 569T770 415Q770 326 738 249T647 113T514 21T353 -12ZM365 62Q430 62 488 89T589 163T658
274T683 411Q683 481 656 531T579 609T466 637Q400 637 343 611T241 537T173 427T148 291Q148 221 175 170T252 90T365 62ZM441 741L451 804L684 931L671 858L441 741Z" />
<glyph unicode="&#xd4;" glyph-name="Ocircumflex" horiz-adv-x="795" d="M353 -12Q266 -12 200 26T98 132T61 286Q61 375 93 452T183 587T317 679T478 712Q565 712 630 674T733 569T770 415Q770 326 738 249T647 113T514 21T353 -12ZM365 62Q430 62 488 89T589
163T658 274T683 411Q683 481 656 531T579 609T466 637Q400 637 343 611T241 537T173 427T148 291Q148 221 175 170T252 90T365 62ZM350 758L362 823L514 905L636 823L624 758L502 842L350 758Z" />
<glyph unicode="&#xd5;" glyph-name="Otilde" horiz-adv-x="795" d="M353 -12Q266 -12 200 26T98 132T61 286Q61 375 93 452T183 587T317 679T478 712Q565 712 630 674T733 569T770 415Q770 326 738 249T647 113T514 21T353 -12ZM365 62Q430 62 488 89T589 163T658
274T683 411Q683 481 656 531T579 609T466 637Q400 637 343 611T241 537T173 427T148 291Q148 221 175 170T252 90T365 62ZM347 759Q363 809 392 834T460 860Q487 860 502 848T531 825T567 813Q583 813 597 824T618 858H667Q652 809 622 783T553 757Q526 757 510
769T481 792T446 804Q409 804 396 759H347Z" />
<glyph unicode="&#xd6;" glyph-name="Odieresis" horiz-adv-x="795" d="M353 -12Q266 -12 200 26T98 132T61 286Q61 375 93 452T183 587T317 679T478 712Q565 712 630 674T733 569T770 415Q770 326 738 249T647 113T514 21T353 -12ZM365 62Q430 62 488 89T589
163T658 274T683 411Q683 481 656 531T579 609T466 637Q400 637 343 611T241 537T173 427T148 291Q148 221 175 170T252 90T365 62ZM580 775Q558 775 544 789T530 825Q530 845 544 860T580 875Q600 875 614 860T629 825Q629 804 615 790T580 775ZM419 775Q398 775
384 789T369 825Q369 845 383 860T419 875Q440 875 454 860T469 825Q469 804 455 790T419 775Z" />
<glyph unicode="&#xd7;" glyph-name="multiply" horiz-adv-x="495" d="M88 106L46 156L204 291L98 420L156 468L263 339L422 476L463 426L303 289L410 160L352 112L246 241L88 106Z" />
<glyph unicode="&#xd8;" glyph-name="Oslash" horiz-adv-x="787" d="M-5 0L109 108Q84 144 71 189T57 286Q57 375 90 452T180 587T313 679T475 712Q535 712 585 693T674 640L738 700H827L715 594Q740 558 753 513T767 415Q767 326 734 249T644 113T511 21T349
-12Q289 -12 239 7T150 61L85 0H-5ZM144 291Q144 221 173 168L613 582Q554 637 463 637Q397 637 339 611T238 537T169 427T144 291ZM361 62Q427 62 484 89T586 163T655 274T680 411Q680 481 651 534L211 118Q270 62 361 62Z" />
<glyph unicode="&#xd9;" glyph-name="Ugrave" horiz-adv-x="667" d="M281 -12Q218 -12 169 9T92 76T63 190Q63 222 69 258L148 700H232L153 258Q147 228 147 203Q147 130 187 97T295 64Q373 64 429 110T504 258L583 700H667L589 258Q573 165 528 105T418 17T281
-12ZM443 741L254 858L266 931L454 804L443 741Z" />
<glyph unicode="&#xda;" glyph-name="Uacute" horiz-adv-x="667" d="M281 -12Q218 -12 169 9T92 76T63 190Q63 222 69 258L148 700H232L153 258Q147 228 147 203Q147 130 187 97T295 64Q373 64 429 110T504 258L583 700H667L589 258Q573 165 528 105T418 17T281
-12ZM369 741L379 804L612 931L599 858L369 741Z" />
<glyph unicode="&#xdb;" glyph-name="Ucircumflex" horiz-adv-x="667" d="M281 -12Q218 -12 169 9T92 76T63 190Q63 222 69 258L148 700H232L153 258Q147 228 147 203Q147 130 187 97T295 64Q373 64 429 110T504 258L583 700H667L589 258Q573 165 528 105T418
17T281 -12ZM278 758L290 823L442 905L564 823L552 758L430 842L278 758Z" />
<glyph unicode="&#xdc;" glyph-name="Udieresis" horiz-adv-x="667" d="M281 -12Q218 -12 169 9T92 76T63 190Q63 222 69 258L148 700H232L153 258Q147 228 147 203Q147 130 187 97T295 64Q373 64 429 110T504 258L583 700H667L589 258Q573 165 528 105T418 17T281
-12ZM508 775Q486 775 472 789T458 825Q458 845 472 860T508 875Q528 875 542 860T557 825Q557 804 543 790T508 775ZM347 775Q326 775 312 789T297 825Q297 845 311 860T347 875Q368 875 382 860T397 825Q397 804 383 790T347 775Z" />
<glyph unicode="&#xdd;" glyph-name="Yacute" horiz-adv-x="579" d="M198 0L245 266L93 700H189L301 346L539 700H633L329 266L282 0H198ZM326 741L336 804L569 931L556 858L326 741Z" />
<glyph unicode="&#xde;" glyph-name="Thorn" horiz-adv-x="582" d="M31 0L154 700H238L213 554H359Q466 554 516 505T566 383Q566 311 531 258T433 176T287 147H141L115 0H31ZM153 217H298Q384 217 431 261T479 382Q479 432 448 458T345 484H201L153 217Z" />
<glyph unicode="&#xdf;" glyph-name="germandbls" horiz-adv-x="669" d="M397 -10Q310 -10 263 39T223 169H307Q302 118 328 87T407 56Q459 56 491 85T524 163Q524 191 504 210T438 246Q372 270 342 295T311 360Q311 393 329 415T374 455T427 489T472 527T491
581Q491 617 461 639T374 661Q298 661 257 621T202 512L111 0H27L120 520Q130 581 164 629T253 704T387 732Q481 732 529 692T577 593Q577 552 559 525T514 478T461 443T416 413T398 377Q398 358 418 343T499 307Q558 286 584 255T610 172Q610 119 583 78T507 14T397
-10Z" />
<glyph unicode="&#xe0;" glyph-name="agrave" horiz-adv-x="539" d="M186 -12Q130 -12 95 6T43 55T26 121Q26 176 57 216T143 277T273 299H406L407 305Q410 322 410 339Q410 387 383 412T306 437Q258 437 217 413T160 341H73Q89 395 125 432T212 488T317 508Q406
508 450 466T495 352Q495 341 494 329T491 305L438 0H362L372 88Q344 46 299 17T186 -12ZM211 59Q259 59 297 84T361 149T394 233V233V234H268Q197 234 157 207T116 131Q116 97 140 78T211 59ZM351 537L162 654L174 727L362 600L351 537Z" />
<glyph unicode="&#xe1;" glyph-name="aacute" horiz-adv-x="539" d="M186 -12Q130 -12 95 6T43 55T26 121Q26 176 57 216T143 277T273 299H406L407 305Q410 322 410 339Q410 387 383 412T306 437Q258 437 217 413T160 341H73Q89 395 125 432T212 488T317 508Q406
508 450 466T495 352Q495 341 494 329T491 305L438 0H362L372 88Q344 46 299 17T186 -12ZM211 59Q259 59 297 84T361 149T394 233V233V234H268Q197 234 157 207T116 131Q116 97 140 78T211 59ZM277 537L287 600L520 727L507 654L277 537Z" />
<glyph unicode="&#xe2;" glyph-name="acircumflex" horiz-adv-x="539" d="M186 -12Q130 -12 95 6T43 55T26 121Q26 176 57 216T143 277T273 299H406L407 305Q410 322 410 339Q410 387 383 412T306 437Q258 437 217 413T160 341H73Q89 395 125 432T212 488T317
508Q406 508 450 466T495 352Q495 341 494 329T491 305L438 0H362L372 88Q344 46 299 17T186 -12ZM211 59Q259 59 297 84T361 149T394 233V233V234H268Q197 234 157 207T116 131Q116 97 140 78T211 59ZM186 554L198 619L350 701L472 619L460 554L338 638L186 554Z"
/>
<glyph unicode="&#xe3;" glyph-name="atilde" horiz-adv-x="539" d="M186 -12Q130 -12 95 6T43 55T26 121Q26 176 57 216T143 277T273 299H406L407 305Q410 322 410 339Q410 387 383 412T306 437Q258 437 217 413T160 341H73Q89 395 125 432T212 488T317 508Q406
508 450 466T495 352Q495 341 494 329T491 305L438 0H362L372 88Q344 46 299 17T186 -12ZM211 59Q259 59 297 84T361 149T394 233V233V234H268Q197 234 157 207T116 131Q116 97 140 78T211 59ZM174 555Q190 605 220 630T287 656Q314 656 329 644T358 621T394 609Q410
609 424 620T445 654H494Q480 605 449 579T380 553Q353 553 337 565T308 588T274 600Q237 600 223 555H174Z" />
<glyph unicode="&#xe4;" glyph-name="adieresis" horiz-adv-x="539" d="M186 -12Q130 -12 95 6T43 55T26 121Q26 176 57 216T143 277T273 299H406L407 305Q410 322 410 339Q410 387 383 412T306 437Q258 437 217 413T160 341H73Q89 395 125 432T212 488T317 508Q406
508 450 466T495 352Q495 341 494 329T491 305L438 0H362L372 88Q344 46 299 17T186 -12ZM211 59Q259 59 297 84T361 149T394 233V233V234H268Q197 234 157 207T116 131Q116 97 140 78T211 59ZM416 571Q395 571 381 585T366 621Q366 641 380 656T416 671Q437 671
451 656T465 621Q465 600 451 586T416 571ZM256 571Q235 571 221 585T206 621Q206 641 220 656T256 671Q276 671 291 656T306 621Q306 600 291 586T256 571Z" />
<glyph unicode="&#xe5;" glyph-name="aring" horiz-adv-x="539" d="M186 -12Q130 -12 95 6T43 55T26 121Q26 176 57 216T143 277T273 299H406L407 305Q410 322 410 339Q410 387 383 412T306 437Q258 437 217 413T160 341H73Q89 395 125 432T212 488T317 508Q406
508 450 466T495 352Q495 341 494 329T491 305L438 0H362L372 88Q344 46 299 17T186 -12ZM211 59Q259 59 297 84T361 149T394 233V233V234H268Q197 234 157 207T116 131Q116 97 140 78T211 59ZM343 557Q301 557 270 584T238 660Q238 708 269 735T343 763Q387 763
417 736T448 660Q448 612 418 585T343 557ZM343 600Q367 600 384 616T401 660Q401 687 384 703T343 719Q320 719 304 703T287 660Q287 633 303 617T343 600Z" />
<glyph unicode="&#xe6;" glyph-name="ae" horiz-adv-x="926" d="M189 -12Q106 -12 66 26T26 118Q26 173 56 213T140 276T264 299H414Q418 321 418 339Q418 387 391 412T315 437Q266 437 226 413T168 341H82Q97 395 135 432T223 488T327 508Q392 508 433 485T490
418Q529 460 583 484T699 508Q762 508 806 483T872 414T895 319Q895 306 892 287T886 251T882 229H487Q484 214 484 199Q484 129 524 94T618 59Q674 59 716 87T782 163H864Q842 113 805 74T718 11T605 -12Q537 -12 488 20T418 109Q384 59 324 24T189 -12ZM499 294H811Q812
300 812 305T813 316Q813 373 778 405T685 437Q624 437 572 401T499 294ZM210 59Q255 59 293 80T358 136T397 209L401 234H259Q195 234 155 208T115 131Q115 99 140 79T210 59Z" />
<glyph unicode="&#xe7;" glyph-name="ccedilla" horiz-adv-x="569" d="M250 -12Q189 -12 142 14T69 88T43 199Q43 265 66 321T130 420T225 485T341 508Q431 508 484 461T538 334H452Q452 385 416 410T329 436Q274 436 229 407T157 326T130 208Q130 137 169 98T263
59Q314 59 358 85T422 162H508Q489 111 451 72T362 10T250 -12ZM136 -260L145 -207H237Q313 -207 313 -155Q313 -114 254 -114H204L225 6H282L269 -64Q320 -63 351 -83T383 -148Q383 -196 344 -228T247 -260H136Z" />
<glyph unicode="&#xe8;" glyph-name="egrave" horiz-adv-x="568" d="M246 -12Q154 -12 99 45T43 198Q43 284 81 354T185 466T337 508Q402 508 446 483T513 414T536 319Q536 299 532 274T523 229H127Q125 212 125 199Q125 128 165 94T259 59Q311 59 350 83T412
148H495Q464 79 399 34T246 -12ZM326 437Q266 437 213 401T140 294H452Q453 300 453 305T454 316Q454 373 419 405T326 437ZM372 537L183 654L195 727L383 600L372 537Z" />
<glyph unicode="&#xe9;" glyph-name="eacute" horiz-adv-x="568" d="M246 -12Q154 -12 99 45T43 198Q43 284 81 354T185 466T337 508Q402 508 446 483T513 414T536 319Q536 299 532 274T523 229H127Q125 212 125 199Q125 128 165 94T259 59Q311 59 350 83T412
148H495Q464 79 399 34T246 -12ZM326 437Q266 437 213 401T140 294H452Q453 300 453 305T454 316Q454 373 419 405T326 437ZM299 537L309 600L542 727L529 654L299 537Z" />
<glyph unicode="&#xea;" glyph-name="ecircumflex" horiz-adv-x="568" d="M246 -12Q154 -12 99 45T43 198Q43 284 81 354T185 466T337 508Q402 508 446 483T513 414T536 319Q536 299 532 274T523 229H127Q125 212 125 199Q125 128 165 94T259 59Q311 59 350 83T412
148H495Q464 79 399 34T246 -12ZM326 437Q266 437 213 401T140 294H452Q453 300 453 305T454 316Q454 373 419 405T326 437ZM207 554L219 619L371 701L493 619L481 554L359 638L207 554Z" />
<glyph unicode="&#xeb;" glyph-name="edieresis" horiz-adv-x="568" d="M246 -12Q154 -12 99 45T43 198Q43 284 81 354T185 466T337 508Q402 508 446 483T513 414T536 319Q536 299 532 274T523 229H127Q125 212 125 199Q125 128 165 94T259 59Q311 59 350 83T412
148H495Q464 79 399 34T246 -12ZM326 437Q266 437 213 401T140 294H452Q453 300 453 305T454 316Q454 373 419 405T326 437ZM438 571Q417 571 403 585T388 621Q388 641 402 656T438 671Q459 671 473 656T487 621Q487 600 473 586T438 571ZM278 571Q257 571 243
585T228 621Q228 641 242 656T278 671Q298 671 313 656T328 621Q328 600 313 586T278 571Z" />
<glyph unicode="&#xec;" glyph-name="igrave" horiz-adv-x="223" d="M26 0L113 496H197L110 0H26ZM447 537L258 654L270 727L458 600L447 537Z" />
<glyph unicode="&#xed;" glyph-name="iacute" horiz-adv-x="223" d="M26 0L113 496H197L110 0H26ZM117 537L127 600L360 727L347 654L117 537Z" />
<glyph unicode="&#xee;" glyph-name="icircumflex" horiz-adv-x="223" d="M26 0L113 496H197L110 0H26ZM282 554L294 619L446 701L568 619L556 554L434 638L282 554Z" />
<glyph unicode="&#xef;" glyph-name="idieresis" horiz-adv-x="223" d="M26 0L113 496H197L110 0H26ZM512 571Q491 571 477 585T462 621Q462 641 476 656T512 671Q533 671 547 656T561 621Q561 600 547 586T512 571ZM352 571Q331 571 317 585T302 621Q302 641
316 656T352 671Q372 671 387 656T402 621Q402 600 387 586T352 571Z" />
<glyph unicode="&#xf0;" glyph-name="eth" horiz-adv-x="616" d="M271 -12Q200 -12 149 19T71 101T44 213Q44 276 67 329T132 422T227 484T341 507Q391 507 436 489T506 424Q498 470 482 513T439 598L296 551L307 608L408 641Q383 671 353 700H437Q456 682 472
662L612 708L601 651L504 619Q543 561 562 495T582 359Q582 265 555 195T483 79T383 11T271 -12ZM280 59Q336 59 383 90T458 173T487 283Q487 357 443 396T336 436Q280 436 233 407T159 328T131 220Q131 148 172 104T280 59Z" />
<glyph unicode="&#xf1;" glyph-name="ntilde" horiz-adv-x="573" d="M26 0L113 496H189L179 406Q211 454 261 481T368 508Q442 508 485 467T528 348Q528 334 527 320T522 290L471 0H387L436 281Q438 294 439 306T441 329Q441 436 336 436Q273 436 224 392T157
266L110 0H26ZM209 555Q225 605 255 630T322 656Q349 656 364 644T393 621T429 609Q445 609 459 620T480 654H529Q515 605 484 579T415 553Q388 553 372 565T343 588T309 600Q272 600 258 555H209Z" />
<glyph unicode="&#xf2;" glyph-name="ograve" horiz-adv-x="593" d="M255 -12Q193 -12 145 16T70 93T43 204Q43 270 66 325T129 421T222 485T337 508Q399 508 447 481T522 406T549 295Q549 230 527 174T464 77T370 12T255 -12ZM266 60Q322 60 366 90T437 172T463
289Q463 359 423 397T326 436Q271 436 227 406T157 324T131 207Q131 160 149 128T199 78T266 60ZM374 537L185 654L197 727L385 600L374 537Z" />
<glyph unicode="&#xf3;" glyph-name="oacute" horiz-adv-x="593" d="M255 -12Q193 -12 145 16T70 93T43 204Q43 270 66 325T129 421T222 485T337 508Q399 508 447 481T522 406T549 295Q549 230 527 174T464 77T370 12T255 -12ZM266 60Q322 60 366 90T437 172T463
289Q463 359 423 397T326 436Q271 436 227 406T157 324T131 207Q131 160 149 128T199 78T266 60ZM300 537L310 600L543 727L530 654L300 537Z" />
<glyph unicode="&#xf4;" glyph-name="ocircumflex" horiz-adv-x="593" d="M255 -12Q193 -12 145 16T70 93T43 204Q43 270 66 325T129 421T222 485T337 508Q399 508 447 481T522 406T549 295Q549 230 527 174T464 77T370 12T255 -12ZM266 60Q322 60 366 90T437
172T463 289Q463 359 423 397T326 436Q271 436 227 406T157 324T131 207Q131 160 149 128T199 78T266 60ZM209 554L221 619L373 701L495 619L483 554L361 638L209 554Z" />
<glyph unicode="&#xf5;" glyph-name="otilde" horiz-adv-x="593" d="M255 -12Q193 -12 145 16T70 93T43 204Q43 270 66 325T129 421T222 485T337 508Q399 508 447 481T522 406T549 295Q549 230 527 174T464 77T370 12T255 -12ZM266 60Q322 60 366 90T437 172T463
289Q463 359 423 397T326 436Q271 436 227 406T157 324T131 207Q131 160 149 128T199 78T266 60ZM197 555Q213 605 243 630T310 656Q337 656 352 644T381 621T417 609Q433 609 447 620T468 654H517Q503 605 472 579T403 553Q376 553 360 565T331 588T297 600Q260
600 246 555H197Z" />
<glyph unicode="&#xf6;" glyph-name="odieresis" horiz-adv-x="593" d="M255 -12Q193 -12 145 16T70 93T43 204Q43 270 66 325T129 421T222 485T337 508Q399 508 447 481T522 406T549 295Q549 230 527 174T464 77T370 12T255 -12ZM266 60Q322 60 366 90T437 172T463
289Q463 359 423 397T326 436Q271 436 227 406T157 324T131 207Q131 160 149 128T199 78T266 60ZM439 571Q418 571 404 585T389 621Q389 641 403 656T439 671Q460 671 474 656T488 621Q488 600 474 586T439 571ZM279 571Q258 571 244 585T229 621Q229 641 243 656T279
671Q299 671 314 656T329 621Q329 600 314 586T279 571Z" />
<glyph unicode="&#xf7;" glyph-name="divide" horiz-adv-x="525" d="M296 377Q271 377 255 393T238 434Q238 458 254 474T296 491Q320 491 336 475T353 434Q353 410 337 394T296 377ZM65 255L77 326H475L463 255H65ZM246 90Q221 90 205 107T188 148Q188 172 204
188T246 205Q271 205 287 189T303 148Q303 124 287 107T246 90Z" />
<glyph unicode="&#xf8;" glyph-name="oslash" horiz-adv-x="596" d="M-1 0L81 78Q45 133 45 204Q45 270 67 325T130 421T224 485T338 508Q422 508 480 460L518 496H597L516 419Q551 366 551 295Q551 230 528 174T465 77T372 12T257 -12Q215 -12 180 1T117 37L79
0H-1ZM130 207Q130 169 143 138L421 404Q383 438 328 438Q272 438 228 408T157 325T130 207ZM268 58Q324 58 369 88T440 171T466 289Q466 328 453 358L175 92Q213 58 268 58Z" />
<glyph unicode="&#xf9;" glyph-name="ugrave" horiz-adv-x="573" d="M205 -12Q130 -12 88 29T45 148Q45 162 46 176T50 206L102 496H186L136 215Q134 202 133 190T131 167Q131 60 236 60Q299 60 349 104T416 230L463 496H547L460 0H384L394 90Q362 42 312 15T205
-12ZM358 537L169 654L181 727L369 600L358 537Z" />
<glyph unicode="&#xfa;" glyph-name="uacute" horiz-adv-x="573" d="M205 -12Q130 -12 88 29T45 148Q45 162 46 176T50 206L102 496H186L136 215Q134 202 133 190T131 167Q131 60 236 60Q299 60 349 104T416 230L463 496H547L460 0H384L394 90Q362 42 312 15T205
-12ZM284 537L294 600L527 727L514 654L284 537Z" />
<glyph unicode="&#xfb;" glyph-name="ucircumflex" horiz-adv-x="573" d="M205 -12Q130 -12 88 29T45 148Q45 162 46 176T50 206L102 496H186L136 215Q134 202 133 190T131 167Q131 60 236 60Q299 60 349 104T416 230L463 496H547L460 0H384L394 90Q362 42 312
15T205 -12ZM193 554L205 619L357 701L479 619L467 554L345 638L193 554Z" />
<glyph unicode="&#xfc;" glyph-name="udieresis" horiz-adv-x="573" d="M205 -12Q130 -12 88 29T45 148Q45 162 46 176T50 206L102 496H186L136 215Q134 202 133 190T131 167Q131 60 236 60Q299 60 349 104T416 230L463 496H547L460 0H384L394 90Q362 42 312 15T205
-12ZM424 571Q402 571 388 585T374 621Q374 641 388 656T424 671Q444 671 458 656T473 621Q473 600 459 586T424 571ZM263 571Q242 571 228 585T213 621Q213 641 227 656T263 671Q284 671 298 656T313 621Q313 600 299 586T263 571Z" />
<glyph unicode="&#xfd;" glyph-name="yacute" horiz-adv-x="555" d="M41 -220L210 48H182L63 496H152L251 110L492 496H580L129 -220H41ZM283 537L293 600L526 727L513 654L283 537Z" />
<glyph unicode="&#xfe;" glyph-name="thorn" horiz-adv-x="620" d="M290 -12Q250 -12 217 2T160 38T125 84L70 -220H-14L152 720H236L184 419Q214 454 259 481T372 508Q436 508 482 480T552 404T577 295Q577 208 540 139T437 29T290 -12ZM295 61Q352 61 396 90T465
169T490 283Q490 349 453 392T351 435Q294 435 249 405T178 324T152 209Q152 142 191 102T295 61Z" />
<glyph unicode="&#xff;" glyph-name="ydieresis" horiz-adv-x="555" d="M41 -220L210 48H182L63 496H152L251 110L492 496H580L129 -220H41ZM423 571Q401 571 387 585T373 621Q373 641 387 656T423 671Q443 671 457 656T472 621Q472 600 458 586T423 571ZM262
571Q241 571 227 585T212 621Q212 641 226 656T262 671Q283 671 297 656T312 621Q312 600 298 586T262 571Z" />
<glyph unicode="&#x2013;" glyph-name="endash" horiz-adv-x="642" d="M61 255L73 326H597L584 255H61Z" />
<glyph unicode="&#x2014;" glyph-name="emdash" horiz-adv-x="847" d="M61 255L73 326H801L789 255H61Z" />
<glyph unicode="&#x2018;" glyph-name="quoteleft" horiz-adv-x="213" d="M65 477L196 700H256L159 477H65Z" />
<glyph unicode="&#x2019;" glyph-name="quoteright" horiz-adv-x="213" d="M78 477L174 700H268L138 477H78Z" />
<glyph unicode="&#x201a;" glyph-name="quotesinglbase" horiz-adv-x="184" d="M-65 -122L32 102H126L-5 -122H-65Z" />
<glyph unicode="&#x201c;" glyph-name="quotedblleft" horiz-adv-x="372" d="M224 477L355 700H415L319 477H224ZM65 477L196 700H256L159 477H65Z" />
<glyph unicode="&#x201d;" glyph-name="quotedblright" horiz-adv-x="371" d="M236 476L333 699H427L296 476H236ZM77 476L174 699H268L137 476H77Z" />
<glyph unicode="&#x201e;" glyph-name="quotedblbase" horiz-adv-x="353" d="M105 -122L201 102H295L165 -122H105ZM-65 -122L32 102H126L-5 -122H-65Z" />
<glyph unicode="&#x2022;" glyph-name="bullet" horiz-adv-x="347" d="M188 213Q155 213 128 229T85 272T68 333Q68 367 84 394T128 438T188 454Q222 454 249 438T293 395T309 333Q309 300 293 273T250 229T188 213Z" />
<glyph unicode="&#x2039;" glyph-name="guilsinglleft" horiz-adv-x="275" d="M114 120L48 295L176 470H259L128 295L198 120H114Z" />
<glyph unicode="&#x203a;" glyph-name="guilsinglright" horiz-adv-x="274" d="M31 120L162 295L93 470H176L242 295L114 120H31Z" />
</font>
</defs>
</svg>
