<?xml version="1.0" standalone="no"?>
<!DOCTYPE svg PUBLIC "-//W3C//DTD SVG 1.1//EN" "http://www.w3.org/Graphics/SVG/1.1/DTD/svg11.dtd">
<svg xmlns="http://www.w3.org/2000/svg">
<defs >
<font id="DMSans" horiz-adv-x="559" ><font-face
    font-family="DM Sans Medium"
    units-per-em="1000"
    panose-1="0 0 0 0 0 0 0 0 0 0"
    ascent="992"
    descent="-310"
    alphabetic="0" />
<glyph unicode=" " glyph-name="space" horiz-adv-x="272" />
<glyph unicode="!" glyph-name="exclam" horiz-adv-x="274" d="M76 207L151 700H265L165 207H76ZM104 -6Q74 -6 55 13T35 60Q35 88 54 107T104 127Q134 127 153 108T173 60Q173 33 154 14T104 -6Z" />
<glyph unicode="&quot;" glyph-name="quotedbl" horiz-adv-x="318" d="M249 552L273 755H369L322 552H249ZM104 552L128 755H223L177 552H104Z" />
<glyph unicode="#" glyph-name="numbersign" horiz-adv-x="837" d="M96 0L169 186H26L43 281H206L266 435H118L134 530H303L375 714H475L403 530H605L677 714H777L705 530H840L824 435H668L608 281H748L731 186H571L499 0H398L471 186H269L196 0H96ZM306 281H508L568
435H366L306 281Z" />
<glyph unicode="$" glyph-name="dollar" horiz-adv-x="598" d="M201 -87L215 -8Q134 4 86 51T37 171Q37 181 38 190T40 211H153Q150 198 150 187Q150 149 171 122T231 84L274 323Q266 325 259 327T245 333Q179 356 145 398T111 495Q111 556 140 603T221 678T342
711L356 791H424L409 710Q485 700 530 656T576 545Q576 531 573 514H461Q462 525 462 532Q462 560 445 584T393 617L355 404Q364 401 372 398T390 392Q452 370 496 328T540 215Q540 148 508 98T417 19T282 -12L269 -87H201ZM225 513Q225 482 243 463T292 429L326
620Q279 613 252 584T225 513ZM426 201Q426 240 401 262T337 300L298 77Q360 81 393 115T426 201Z" />
<glyph unicode="%" glyph-name="percent" horiz-adv-x="823" d="M232 366Q169 366 129 404T88 508Q88 564 114 610T184 683T284 711Q346 711 386 674T427 569Q427 513 401 467T331 394T232 366ZM113 0L637 700H741L217 0H113ZM240 441Q268 441 290 457T327 501T341
562Q341 599 322 618T274 637Q247 637 224 621T188 577T174 516Q174 479 193 460T240 441ZM575 -12Q514 -12 473 26T432 130Q432 186 458 232T529 306T629 334Q690 334 730 296T771 192Q771 136 745 90T675 16T575 -12ZM585 63Q613 63 635 79T671 123T685 184Q685
222 666 240T619 259Q591 259 569 243T533 199T519 138Q519 101 538 82T585 63Z" />
<glyph unicode="&amp;" glyph-name="ampersand" horiz-adv-x="756" d="M245 -12Q145 -12 87 36T28 167Q28 252 83 315T228 413Q188 469 188 521Q188 578 216 621T294 688T408 712Q484 712 526 675T569 581Q569 568 566 554H464Q465 558 465 561T465 569Q465 599
445 615T393 631Q350 631 321 604T292 537Q292 513 304 488T340 433L512 224Q535 253 560 288L615 363H724L654 265Q611 201 570 154L696 0H567L499 83Q440 34 378 11T245 -12ZM136 185Q136 138 170 108T263 77Q360 77 443 151L278 351Q214 326 175 284T136 185Z"
/>
<glyph unicode="&apos;" glyph-name="quotesingle" horiz-adv-x="173" d="M104 552L128 755H223L177 552H104Z" />
<glyph unicode="(" glyph-name="parenleft" horiz-adv-x="386" d="M174 -145Q120 -81 86 11T51 216Q51 326 86 435T188 640T343 811H449L448 801Q356 721 291 628T192 433T157 229Q157 126 191 33T284 -135L281 -145H174Z" />
<glyph unicode=")" glyph-name="parenright" horiz-adv-x="386" d="M-33 -145L-32 -135Q60 -55 125 38T225 233T260 437Q260 540 226 633T133 801L135 811H242Q296 747 331 655T366 450Q366 340 330 231T229 26T74 -145H-33Z" />
<glyph unicode="*" glyph-name="asterisk" horiz-adv-x="492" d="M222 360L263 507L130 420L101 492L246 549L122 604L172 674L278 587L288 735H368L325 587L459 673L485 605L341 548L466 491L414 421L310 507L301 360H222Z" />
<glyph unicode="+" glyph-name="plus" horiz-adv-x="591" d="M217 68L249 246H60L75 334H265L296 512H388L357 334H546L531 246H341L310 68H217Z" />
<glyph unicode="," glyph-name="comma" horiz-adv-x="205" d="M-58 -118L41 118H146L13 -118H-58Z" />
<glyph unicode="-" glyph-name="hyphen" horiz-adv-x="521" d="M57 246L72 335H479L464 246H57Z" />
<glyph unicode="." glyph-name="period" horiz-adv-x="219" d="M77 -6Q47 -6 28 13T8 60Q8 88 27 107T77 127Q107 127 126 108T145 60Q145 33 126 14T77 -6Z" />
<glyph unicode="/" glyph-name="slash" horiz-adv-x="406" d="M-36 -103L368 771H472L67 -103H-36Z" />
<glyph unicode="0" glyph-name="zero" horiz-adv-x="705" d="M309 -12Q229 -12 173 22T87 117T57 260Q57 355 85 437T165 581T284 677T432 712Q512 712 568 678T654 583T684 440Q684 344 656 262T576 119T457 23T309 -12ZM323 83Q375 83 420 109T500 183T554 293T574
427Q574 516 532 566T418 617Q366 617 321 590T241 516T187 407T167 273Q167 183 209 133T323 83Z" />
<glyph unicode="1" glyph-name="one" horiz-adv-x="324" d="M100 0L202 580L83 549L97 632L265 700H333L209 0H100Z" />
<glyph unicode="2" glyph-name="two" horiz-adv-x="576" d="M17 0L30 76Q230 216 333 323T436 523Q436 561 414 591T337 622Q276 622 239 582T192 486H90Q103 558 140 608T232 685T349 712Q439 712 492 664T545 536Q545 460 502 389T379 243T184 88H504L489 0H17Z" />
<glyph unicode="3" glyph-name="three" horiz-adv-x="591" d="M251 -12Q190 -12 142 8T66 68T38 170Q38 191 41 212H147Q146 206 146 200T145 184Q145 139 175 109T265 79Q331 79 374 118T418 220Q418 273 381 301T284 329H232L247 417H300Q367 417 409 450T451
541Q451 575 427 598T357 621Q303 621 267 590T218 511H113Q127 572 162 617T251 687T369 712Q462 712 510 669T559 558Q559 518 542 481T492 416T416 377Q465 366 494 328T524 231Q524 161 489 106T391 20T251 -12Z" />
<glyph unicode="4" glyph-name="four" horiz-adv-x="623" d="M346 0L371 140H20L35 224L453 700H575L492 232H590L574 140H476L451 0H346ZM152 232H393L455 583L152 232Z" />
<glyph unicode="5" glyph-name="five" horiz-adv-x="617" d="M272 -12Q203 -12 154 13T78 82T53 182Q53 184 53 187T53 193H157Q158 141 194 110T285 78Q335 78 375 102T438 169T461 265Q461 320 429 357T342 394Q291 394 251 370T187 308H86L215 700H592L576
607H278L209 420Q237 446 278 463T370 481Q432 481 475 454T542 382T565 282Q565 197 526 131T421 26T272 -12Z" />
<glyph unicode="6" glyph-name="six" horiz-adv-x="629" d="M289 -12Q207 -12 158 22T86 111T63 232Q63 330 88 416T159 569T268 674T407 712Q474 712 517 685T579 613T596 515H497Q497 566 470 594T394 623Q322 623 264 557T176 351Q209 395 258 422T371 450Q428
450 472 425T542 355T567 255Q567 181 530 121T429 24T289 -12ZM297 80Q345 80 382 100T440 157T461 239Q461 290 429 324T340 359Q292 359 255 338T196 280T174 201Q174 150 207 115T297 80Z" />
<glyph unicode="7" glyph-name="seven" horiz-adv-x="534" d="M73 0L452 609H91L107 700H580L566 623L187 0H73Z" />
<glyph unicode="8" glyph-name="eight" horiz-adv-x="614" d="M267 -12Q203 -12 154 9T77 71T49 169Q49 241 96 297T217 374Q174 392 150 426T126 503Q126 564 161 611T255 685T388 712Q483 712 534 667T585 550Q585 505 565 471T513 412T444 374Q496 357 521
317T546 224Q546 153 508 100T407 18T267 -12ZM341 408Q374 408 405 422T457 464T477 533Q477 584 446 604T372 624Q313 624 272 590T231 501Q231 455 262 432T341 408ZM281 78Q327 78 363 96T420 147T441 222Q441 273 408 299T320 326Q275 326 238 308T179 258T156
183Q156 135 189 107T281 78Z" />
<glyph unicode="9" glyph-name="nine" horiz-adv-x="629" d="M258 -12Q191 -12 148 15T86 87T70 185H168Q168 134 195 106T271 77Q343 77 402 143T489 349Q456 305 407 278T294 250Q237 250 193 275T123 345T98 445Q98 519 135 579T236 676T376 712Q458 712 507
678T579 589T602 468Q602 370 577 284T506 131T397 26T258 -12ZM325 341Q373 341 410 362T469 420T491 499Q491 550 458 585T368 620Q320 620 283 600T225 543T204 461Q204 410 236 376T325 341Z" />
<glyph unicode=":" glyph-name="colon" horiz-adv-x="220" d="M77 -6Q47 -6 28 13T8 60Q8 88 27 107T77 127Q107 127 126 108T145 60Q145 33 126 14T77 -6ZM144 375Q114 375 95 394T75 441Q75 469 94 488T144 508Q174 508 193 489T212 441Q212 414 193 395T144 375Z" />
<glyph unicode=";" glyph-name="semicolon" horiz-adv-x="245" d="M169 375Q139 375 120 394T100 441Q100 469 119 488T169 508Q199 508 218 489T237 441Q237 414 218 395T169 375ZM-44 -118L55 118H160L27 -118H-44Z" />
<glyph unicode="&lt;" glyph-name="less" horiz-adv-x="510" d="M291 135L96 363L371 591H504L229 363L424 135H291Z" />
<glyph unicode="=" glyph-name="equal" horiz-adv-x="535" d="M80 352L96 444H507L491 352H80ZM42 137L58 229H470L454 137H42Z" />
<glyph unicode="&gt;" glyph-name="greater" horiz-adv-x="509" d="M47 135L322 363L127 591H260L454 363L180 135H47Z" />
<glyph unicode="?" glyph-name="question" horiz-adv-x="521" d="M133 207L158 370H195Q260 370 311 384T391 432T421 526Q421 570 393 596T316 623Q259 623 221 592T173 508H73Q83 568 118 614T209 686T333 712Q420 712 472 665T525 538Q525 461 489 408T390
327T245 299L225 207H133ZM159 -6Q128 -6 109 13T89 60Q89 88 108 107T159 127Q188 127 207 108T227 60Q227 33 208 14T159 -6Z" />
<glyph unicode="@" glyph-name="at" horiz-adv-x="1024" d="M431 -206Q321 -206 240 -164T113 -46T67 135Q67 244 105 337T212 500T374 608T578 647Q692 647 775 604T903 484T948 307Q948 248 934 192T891 92T820 21T724 -6Q673 -6 645 19T611 85Q581 42 535 18T435
-6Q359 -6 317 39T275 163Q275 218 292 268T341 358T416 421T514 444Q610 444 640 368L652 433H741L692 157Q685 116 695 91T740 65Q771 65 794 87T833 144T856 220T864 302Q864 429 785 501T567 574Q477 574 401 541T269 449T182 312T151 144Q150 12 229 -60T446
-132Q490 -132 533 -123T615 -97L631 -167Q586 -187 535 -196T431 -206ZM468 73Q507 73 540 94T594 153T619 239Q623 291 599 328T520 365Q474 365 440 338T388 269T370 180Q370 132 395 103T468 73Z" />
<glyph unicode="A" glyph-name="A" horiz-adv-x="683" d="M-18 0L363 700H480L612 0H502L471 171H185L95 0H-18ZM229 253H457L400 578L229 253Z" />
<glyph unicode="B" glyph-name="B" horiz-adv-x="624" d="M28 0L151 700H416Q512 700 559 658T607 550Q607 479 565 429T454 361Q504 351 534 313T565 222Q565 155 529 106T433 28T300 0H28ZM204 399H349Q415 399 455 434T496 530Q496 570 469 593T385 616H242L204
399ZM149 85H301Q373 85 416 124T459 226Q459 269 428 293T339 318H190L149 85Z" />
<glyph unicode="C" glyph-name="C" horiz-adv-x="731" d="M340 -12Q250 -12 187 23T91 121T58 268Q58 363 89 443T175 584T304 678T465 712Q588 712 656 652T726 484H607Q605 546 566 581T449 617Q369 617 306 573T205 452T168 279Q168 186 217 135T356 83Q433
83 484 117T559 210H678Q638 105 550 47T340 -12Z" />
<glyph unicode="D" glyph-name="D" horiz-adv-x="708" d="M28 0L151 700H378Q536 700 610 625T684 416Q684 293 631 200T482 53T255 0H28ZM150 90H267Q364 90 433 129T538 239T575 408Q575 508 524 559T359 611H242L150 90Z" />
<glyph unicode="E" glyph-name="E" horiz-adv-x="551" d="M28 0L151 700H570L554 616H242L204 395H486L472 313H189L149 84H461L446 0H28Z" />
<glyph unicode="F" glyph-name="F" horiz-adv-x="536" d="M28 0L151 700H577L562 616H242L203 392H466L451 310H188L134 0H28Z" />
<glyph unicode="G" glyph-name="G" horiz-adv-x="769" d="M333 -12Q248 -12 187 26T93 130T60 280Q60 375 90 454T176 591T306 680T472 712Q592 712 664 654T742 494H622Q617 550 575 582T458 614Q372 614 307 573T206 458T170 288Q170 193 220 138T357 82Q461
82 523 141T613 298H423L438 380H734L668 0H571L579 103Q534 48 477 18T333 -12Z" />
<glyph unicode="H" glyph-name="H" horiz-adv-x="693" d="M28 0L151 700H257L204 399H543L596 700H702L578 0H472L528 315H189L134 0H28Z" />
<glyph unicode="I" glyph-name="I" horiz-adv-x="249" d="M28 0L151 700H257L134 0H28Z" />
<glyph unicode="J" glyph-name="J" horiz-adv-x="504" d="M188 -12Q95 -12 48 43T19 197H125Q116 147 133 115T203 82Q253 82 281 112T316 184L406 700H512L422 184Q406 93 343 41T188 -12Z" />
<glyph unicode="K" glyph-name="K" horiz-adv-x="618" d="M28 0L151 700H257L205 400L533 700H664L356 421L547 0H422L269 343L180 262L134 0H28Z" />
<glyph unicode="L" glyph-name="L" horiz-adv-x="539" d="M28 0L151 700H257L149 84H466L452 0H28Z" />
<glyph unicode="M" glyph-name="M" horiz-adv-x="866" d="M28 0L151 700H276L432 234L749 700H874L751 0H645L736 517L449 100H367L225 516L134 0H28Z" />
<glyph unicode="N" glyph-name="N" horiz-adv-x="706" d="M28 0L151 700H257L514 167L608 700H714L591 0H485L228 533L134 0H28Z" />
<glyph unicode="O" glyph-name="O" horiz-adv-x="799" d="M357 -12Q269 -12 202 27T98 133T60 288Q60 377 92 453T182 588T316 679T479 712Q566 712 633 674T738 568T776 413Q776 324 743 247T653 112T519 21T357 -12ZM371 83Q431 83 484 107T579 176T643 279T666
405Q666 503 612 560T465 617Q404 617 351 593T257 524T193 422T170 296Q170 231 195 183T265 109T371 83Z" />
<glyph unicode="P" glyph-name="P" horiz-adv-x="597" d="M28 0L151 700H396Q468 700 515 675T584 609T607 520Q607 445 571 392T471 310T322 282H184L134 0H28ZM199 369H333Q411 369 454 405T497 512Q497 556 469 584T376 613H242L199 369Z" />
<glyph unicode="Q" glyph-name="Q" horiz-adv-x="789" d="M357 -12Q269 -12 202 27T98 133T60 288Q60 377 92 453T182 588T316 679T479 712Q566 712 633 674T738 568T776 413Q776 331 747 258T667 128T549 35L684 -131H550L450 -1Q404 -12 357 -12ZM371 83Q431
83 484 107T579 176T643 279T666 405Q666 503 612 560T465 617Q404 617 351 593T257 524T193 422T170 296Q170 231 195 183T265 109T371 83Z" />
<glyph unicode="R" glyph-name="R" horiz-adv-x="609" d="M28 0L151 700H390Q463 700 509 675T578 609T601 520Q601 435 553 377T422 296L518 0H402L316 282V282H184L134 0H28ZM198 362H327Q401 362 446 400T491 509Q491 553 463 582T370 611H242L198 362Z" />
<glyph unicode="S" glyph-name="S" horiz-adv-x="598" d="M270 -12Q201 -12 149 10T67 73T37 171Q37 181 38 190T40 211H153Q150 198 150 187Q150 138 185 108T282 77Q351 77 388 111T426 201Q426 241 400 264T331 301T245 333Q179 356 145 398T111 495Q111 560
144 609T235 685T370 712Q462 712 519 667T576 545Q576 531 573 514H461Q462 525 462 532Q462 567 435 594T354 622Q295 622 260 591T225 513Q225 479 247 459T306 424T390 392Q452 370 496 328T540 215Q540 147 506 96T411 16T270 -12Z" />
<glyph unicode="T" glyph-name="T" horiz-adv-x="575" d="M191 0L299 616H93L108 700H627L613 616H405L297 0H191Z" />
<glyph unicode="U" glyph-name="U" horiz-adv-x="677" d="M285 -12Q220 -12 170 10T90 79T61 196Q61 227 67 263L144 700H250L172 263Q167 234 167 213Q167 147 203 116T304 85Q377 85 428 128T497 263L575 700H681L604 263Q587 169 540 108T427 18T285 -12Z" />
<glyph unicode="V" glyph-name="V" horiz-adv-x="684" d="M234 0L99 700H212L318 112L632 700H745L362 0H234Z" />
<glyph unicode="W" glyph-name="W" horiz-adv-x="990" d="M164 -1L100 700H213L250 126L511 700H630L682 126L922 700H1038L721 0H597L541 547L287 0L164 -1Z" />
<glyph unicode="X" glyph-name="X" horiz-adv-x="625" d="M-20 0L258 353L101 700H223L341 439L540 700H661L382 349L540 0H418L299 263L99 0H-20Z" />
<glyph unicode="Y" glyph-name="Y" horiz-adv-x="602" d="M198 0L244 258L90 700H211L316 362L540 700H659L350 258L304 0H198Z" />
<glyph unicode="Z" glyph-name="Z" horiz-adv-x="550" d="M-5 0L10 82L436 610H106L123 700H575L561 618L133 90H470L454 0H-5Z" />
<glyph unicode="[" glyph-name="bracketleft" horiz-adv-x="334" d="M-1 -161L171 811H377L361 724H255L114 -74H221L205 -161H-1Z" />
<glyph unicode="\" glyph-name="backslash" horiz-adv-x="406" d="M215 -103L118 771H222L318 -103H215Z" />
<glyph unicode="]" glyph-name="bracketright" horiz-adv-x="334" d="M-15 -161L1 -74H107L248 723H141L156 811H362L191 -161H-15Z" />
<glyph unicode="^" glyph-name="asciicircum" horiz-adv-x="643" d="M15 174L345 700H444L588 174H480L373 573L122 174H15Z" />
<glyph unicode="_" glyph-name="underscore" horiz-adv-x="661" d="M-11 -137L6 -37H554L537 -137H-11Z" />
<glyph unicode="`" glyph-name="grave" horiz-adv-x="256" d="M287 537L90 649L105 737L301 613L287 537Z" />
<glyph unicode="a" glyph-name="a" horiz-adv-x="557" d="M187 -12Q103 -12 65 27T26 120Q26 202 93 249T272 296H402L403 305Q406 319 406 334Q406 377 380 399T312 421Q268 421 231 400T179 336H74Q89 390 126 428T215 487T326 508Q417 508 465 467T513 351Q513
340 513 329T509 305L456 0H361L369 83Q340 42 296 15T187 -12ZM223 74Q265 74 298 94T355 149T388 224H270Q210 224 175 200T140 135Q140 105 162 90T223 74Z" />
<glyph unicode="b" glyph-name="b" horiz-adv-x="632" d="M302 -12Q244 -12 202 15T143 76L118 0H23L150 720H256L204 426Q234 459 278 483T385 508Q448 508 493 480T563 404T588 295Q588 230 567 175T506 77T415 12T302 -12ZM301 80Q352 80 392 106T456 176T479
277Q479 337 444 376T350 416Q298 416 257 389T193 317T170 214Q170 155 205 118T301 80Z" />
<glyph unicode="c" glyph-name="c" horiz-adv-x="584" d="M256 -12Q192 -12 144 14T70 89T43 200Q43 265 66 321T131 419T227 484T346 508Q440 508 495 459T550 325H440Q440 370 409 393T331 417Q282 417 242 391T177 317T153 211Q153 149 187 114T272 78Q318
78 357 102T414 171H524Q504 116 465 75T372 11T256 -12Z" />
<glyph unicode="d" glyph-name="d" horiz-adv-x="632" d="M245 -12Q182 -12 137 17T68 96T44 207Q44 294 81 362T183 469T326 508Q389 508 429 484T489 420L542 720H648L520 0H425L428 77Q399 42 355 15T245 -12ZM281 80Q333 80 374 108T438 182T462 285Q462 344
428 380T334 416Q282 416 242 390T178 320T154 219Q154 160 188 120T281 80Z" />
<glyph unicode="e" glyph-name="e" horiz-adv-x="582" d="M253 -12Q157 -12 100 45T43 198Q43 262 65 318T127 417T223 484T344 508Q409 508 455 483T525 414T549 315Q549 293 545 268T535 223H149Q147 210 147 199Q147 139 182 108T268 76Q314 76 348 97T403
152H510Q488 105 450 68T362 10T253 -12ZM330 421Q277 421 230 389T163 295H443Q444 300 444 304T444 312Q445 362 414 391T330 421Z" />
<glyph unicode="f" glyph-name="f" horiz-adv-x="347" d="M48 0L120 407H49L65 496H136L148 568Q163 649 210 684T331 720H383L367 630H331Q296 630 278 616T254 567L242 496H356L340 407H226L154 0H48Z" />
<glyph unicode="g" glyph-name="g" horiz-adv-x="557" d="M250 152Q210 152 178 162L134 127Q155 115 182 108T262 96Q361 88 400 51T439 -39Q439 -95 407 -138T317 -207T185 -232Q91 -232 34 -196T-24 -92Q-24 -47 1 -10T71 56Q37 72 17 95L21 118L116 199Q78
238 78 297Q78 356 109 404T194 480T313 508Q355 508 389 496H574L561 426L472 421Q483 394 483 363Q483 304 452 256T368 180T250 152ZM265 235Q318 235 352 267T387 350Q387 386 363 405T298 424Q243 424 209 392T174 309Q174 273 198 254T265 235ZM79 -71Q79
-109 111 -129T198 -149Q258 -149 297 -123T337 -50Q337 -25 318 -6T240 18Q193 21 154 29Q116 9 98 -16T79 -71Z" />
<glyph unicode="h" glyph-name="h" horiz-adv-x="591" d="M24 0L150 720H256L203 415Q234 458 282 483T386 508Q475 508 517 452T540 285L489 0H384L432 274Q457 418 340 418Q281 418 235 376T175 256V257L130 0H24Z" />
<glyph unicode="i" glyph-name="i" horiz-adv-x="256" d="M199 588Q169 588 150 607T130 654Q130 682 149 701T199 720Q229 720 248 701T268 654Q268 626 249 607T199 588ZM31 0L118 496H224L137 0H31Z" />
<glyph unicode="j" glyph-name="j" horiz-adv-x="255" d="M196 588Q166 588 147 607T127 654Q127 682 146 701T196 720Q225 720 244 701T264 654Q264 626 245 607T196 588ZM-117 -220L-101 -130H-62Q-27 -130 -10 -116T14 -67L113 496H219L120 -68Q106 -149 59
-184T-62 -220H-117Z" />
<glyph unicode="k" glyph-name="k" horiz-adv-x="544" d="M23 0L151 720H257L181 292L409 496H543L283 274L487 0H359L175 260L129 0H23Z" />
<glyph unicode="l" glyph-name="l" horiz-adv-x="241" d="M23 0L151 720H257L129 0H23Z" />
<glyph unicode="m" glyph-name="m" horiz-adv-x="906" d="M24 0L111 496H205L201 421Q230 461 271 484T364 508Q419 508 458 484T514 412Q547 457 595 482T696 508Q783 508 829 452T856 285L805 0H699L748 274Q760 345 737 381T663 418Q614 418 574 381T516 273L468
0H362L410 274Q423 345 401 381T326 418Q275 418 232 376T175 256V256L130 0H24Z" />
<glyph unicode="n" glyph-name="n" horiz-adv-x="591" d="M24 0L111 496H205L199 410Q230 455 278 481T385 508Q461 508 503 466T546 345Q546 316 540 285L489 0H384L432 274Q434 287 435 298T437 320Q437 418 340 418Q282 418 237 378T177 264L130 0H24Z" />
<glyph unicode="o" glyph-name="o" horiz-adv-x="600" d="M259 -12Q196 -12 148 16T72 94T44 207Q44 271 66 326T129 422T223 485T339 508Q403 508 451 481T528 405T556 292Q556 228 533 173T470 76T376 11T259 -12ZM273 79Q322 79 361 106T424 180T447 286Q447
348 412 382T327 417Q278 417 239 390T176 316T153 210Q153 148 188 114T273 79Z" />
<glyph unicode="p" glyph-name="p" horiz-adv-x="632" d="M-15 -220L111 496H207L204 419Q234 457 278 482T386 508Q448 508 493 480T564 404T589 295Q589 230 568 175T507 77T416 12T302 -12Q245 -12 203 15T143 76L91 -220H-15ZM301 80Q353 80 393 106T456 176T480
277Q480 337 445 376T350 416Q299 416 258 389T194 317T170 214Q170 155 206 118T301 80Z" />
<glyph unicode="q" glyph-name="q" horiz-adv-x="633" d="M377 -220L428 77Q399 42 355 15T245 -12Q182 -12 137 17T68 96T44 207Q44 294 81 362T183 469T326 508Q389 508 429 484T489 420L513 496H608L483 -220H377ZM281 80Q333 80 374 108T438 182T462 285Q462
344 428 380T334 416Q282 416 242 390T178 320T154 219Q154 160 188 120T281 80Z" />
<glyph unicode="r" glyph-name="r" horiz-adv-x="386" d="M24 0L111 496H207L200 407Q234 453 286 480T403 508L383 397H354Q310 397 273 384T210 338T175 251L130 0H24Z" />
<glyph unicode="s" glyph-name="s" horiz-adv-x="525" d="M223 -12Q126 -12 73 37T25 165H132Q130 126 155 99T238 72Q285 72 313 93T341 149Q341 178 314 191T242 214Q203 223 166 238T105 279T80 346Q80 392 107 429T182 487T291 508Q375 508 424 468T470 354H367Q368
386 345 405T280 424Q239 424 213 405T187 360Q187 333 214 320T288 296Q331 286 368 271T427 230T450 163Q450 109 421 70T340 10T223 -12Z" />
<glyph unicode="t" glyph-name="t" horiz-adv-x="391" d="M220 0Q155 0 118 26T80 117Q80 139 85 164L128 407H49L65 496H144L179 622H272L250 496H390L374 407H234L191 164Q188 150 188 139Q188 112 203 101T253 90H319L303 0H220Z" />
<glyph unicode="u" glyph-name="u" horiz-adv-x="591" d="M206 -12Q130 -12 88 30T45 151Q45 180 51 211L101 496H207L159 222Q157 209 156 198T154 176Q154 78 251 78Q308 78 353 118T414 232L460 496H566L479 0H385L392 86Q361 41 312 15T206 -12Z" />
<glyph unicode="v" glyph-name="v" horiz-adv-x="546" d="M165 0L63 496H173L247 100L459 496H572L293 0H165Z" />
<glyph unicode="w" glyph-name="w" horiz-adv-x="774" d="M121 0L63 496H168L198 122L372 496H490L533 122L694 496H800L568 0H458L413 390L230 0H121Z" />
<glyph unicode="x" glyph-name="x" horiz-adv-x="531" d="M-24 0L197 250L65 496H176L276 306L441 496H555L335 246L466 0H354L256 190L89 0H-24Z" />
<glyph unicode="y" glyph-name="y" horiz-adv-x="574" d="M42 -220L206 41H177L62 496H175L264 129L488 496H600L154 -220H42Z" />
<glyph unicode="z" glyph-name="z" horiz-adv-x="467" d="M-14 0L2 86L332 408H73L89 496H469L453 410L122 88H392L376 0H-14Z" />
<glyph unicode="{" glyph-name="braceleft" horiz-adv-x="444" d="M257 -162Q194 -162 157 -132T120 -42Q120 1 134 43T164 124T179 201Q179 230 160 252T94 282L109 367Q174 378 204 415T234 545Q234 556 234 566T234 587Q234 701 288 756T428 811H486L470 722H432Q408
722 387 714T352 681T337 609Q335 588 335 566T333 517Q330 427 292 383T193 325V323Q240 313 261 285T282 217Q282 173 268 132T240 53T225 -15Q225 -50 244 -61T292 -73H330L315 -162H257Z" />
<glyph unicode="|" glyph-name="bar" horiz-adv-x="249" d="M10 -100L155 720H261L116 -100H10Z" />
<glyph unicode="}" glyph-name="braceright" horiz-adv-x="444" d="M-15 -162L1 -73H39Q63 -73 84 -65T119 -33T134 40Q136 61 136 83T138 131Q141 221 179 266T277 323V325Q230 336 210 364T189 432Q189 476 203 517T231 596T246 664Q246 698 227 710T179 722H141L156
811H214Q277 811 314 781T351 691Q351 648 336 606T306 524T291 448Q291 419 310 397T377 366L362 281Q297 271 267 233T236 104Q236 92 236 82T237 62Q237 -53 183 -107T42 -162H-15Z" />
<glyph unicode="~" glyph-name="asciitilde" horiz-adv-x="544" d="M354 239Q325 239 304 249T266 272T231 295T191 305Q166 305 145 288T114 240H35Q64 322 110 361T215 400Q245 400 266 390T304 367T339 344T378 334Q404 334 424 351T455 399H535Q507 317 460
278T354 239Z" />
<glyph unicode="&#xa0;" glyph-name="uni00A0" horiz-adv-x="272" />
<glyph unicode="&#xa1;" glyph-name="exclamdown" horiz-adv-x="275" d="M181 432Q151 432 132 451T113 499Q113 526 132 545T181 565Q211 565 230 546T250 499Q250 470 231 451T181 432ZM20 -141L120 351H209L134 -141H20Z" />
<glyph unicode="&#xa2;" glyph-name="cent" horiz-adv-x="584" d="M189 -97L205 -7Q131 8 87 63T43 200Q43 278 76 342T165 449T295 504L312 599H411L395 504Q467 492 508 445T550 325H440Q440 370 409 393T331 417Q282 417 242 391T177 317T153 211Q153 149 187
114T272 78Q318 78 357 102T414 171H524Q498 100 440 52T305 -8L289 -97H189Z" />
<glyph unicode="&#xa3;" glyph-name="sterling" horiz-adv-x="605" d="M35 0L46 59Q100 109 130 163T161 285Q161 295 160 304H46L59 378H149Q146 395 144 414T141 453Q141 530 173 588T264 679T397 712Q495 712 544 662T594 535Q594 527 594 519T592 501H494Q496
514 496 524Q496 568 469 596T388 624Q317 624 279 578T240 463Q240 441 243 420T251 378H442L429 304H261Q262 297 262 290Q262 228 233 176T156 86H517L502 0H35Z" />
<glyph unicode="&#xa4;" glyph-name="currency" horiz-adv-x="544" d="M80 87L44 132L115 193Q95 228 95 272Q95 313 109 347T149 409L103 465L155 510L205 450Q254 474 312 474Q367 474 407 447L481 510L518 465L447 405Q468 371 468 327Q468 286 454 251T413
188L459 132L406 87L358 146Q308 120 249 120Q193 120 154 149L80 87ZM262 193Q309 193 341 229T373 321Q373 361 351 381T299 402Q252 402 221 366T189 273Q189 234 210 214T262 193Z" />
<glyph unicode="&#xa5;" glyph-name="yen" horiz-adv-x="623" d="M43 158L56 233H257L261 258L241 316H71L84 391H214L106 700H227L331 355L556 700H676L460 391H590L577 316H407L367 258L363 233H562L549 158H349L320 0H214L243 158H43Z" />
<glyph unicode="&#xa6;" glyph-name="brokenbar" horiz-adv-x="249" d="M97 390L155 720H261L203 390H97ZM10 -100L68 230H174L116 -100H10Z" />
<glyph unicode="&#xa7;" glyph-name="section" horiz-adv-x="606" d="M225 -232Q157 -232 108 -207T34 -138T20 -34H132Q128 -61 137 -85T171 -126T234 -142Q292 -143 329 -110T367 -26Q367 6 346 24T287 55T202 84Q139 107 96 147T52 256Q52 305 74 347T136 422Q122
449 122 482Q122 547 154 599T244 682T378 712Q446 712 495 687T569 618T583 514H471Q475 541 466 565T432 606T369 622Q312 623 274 590T236 506Q236 474 258 456T317 425T401 396Q442 381 476 359T530 303T551 224Q551 175 529 133T468 58Q485 23 479 -22Q473
-83 441 -130T353 -205T225 -232ZM397 119Q415 135 426 157T437 206Q437 243 413 264T351 300T268 332Q231 345 206 361Q190 347 178 325T166 274Q166 238 188 218T248 182T334 148Q355 141 369 135T397 119Z" />
<glyph unicode="&#xa8;" glyph-name="dieresis" horiz-adv-x="335" d="M319 568Q296 568 280 584T264 623Q264 647 280 663T319 679Q342 679 358 663T375 623Q375 600 359 584T319 568ZM149 568Q125 568 109 584T93 623Q93 647 109 663T149 679Q172 679 188 663T205
623Q205 600 189 584T149 568Z" />
<glyph unicode="&#xa9;" glyph-name="copyright" horiz-adv-x="790" d="M344 -5Q254 -5 189 33T88 137T52 287Q52 375 83 451T172 584T305 674T470 706Q560 706 625 669T726 566T762 416Q762 328 730 252T642 118T509 28T344 -5ZM352 36Q433 36 499 64T614 144T689
264T716 412Q716 486 687 543T601 633T463 666Q382 666 315 638T199 558T124 439T98 290Q98 217 127 160T214 69T352 36ZM366 121Q287 121 236 169T184 303Q184 379 218 442T312 544T448 582Q523 582 572 541T626 426H532Q527 465 501 486T433 507Q384 507 349
479T294 405T275 309Q275 253 304 224T378 195Q421 195 453 216T505 276H599Q569 205 506 163T366 121Z" />
<glyph unicode="&#xaa;" glyph-name="ordfeminine" horiz-adv-x="454" d="M209 350Q147 350 110 388T72 492Q72 551 98 601T169 681T272 712Q321 712 350 691T389 634L409 706H484L423 355H347L353 427Q331 393 295 372T209 350ZM244 415Q280 415 309 434T356
485T373 557Q373 599 348 622T285 646Q249 646 221 627T175 576T157 504Q157 461 182 438T244 415Z" />
<glyph unicode="&#xab;" glyph-name="guillemotleft" horiz-adv-x="479" d="M300 120L238 295L362 470H464L337 295L403 120H300ZM111 120L48 295L173 470H275L147 295L213 120H111Z" />
<glyph unicode="&#xac;" glyph-name="logicalnot" horiz-adv-x="686" d="M515 212L539 351H64L78 434H659L620 212H515Z" />
<glyph unicode="&#xad;" glyph-name="uni00AD" horiz-adv-x="600" d="M57 246L72 335H479L464 246H57Z" />
<glyph unicode="&#xae;" glyph-name="registered" horiz-adv-x="506" d="M257 300Q197 300 156 326T97 399T89 506Q99 565 133 612T219 685T330 712Q390 712 431 686T491 612T498 506Q487 446 453 400T368 327T257 300ZM264 341Q313 341 352 362T418 420T454 506Q467
578 431 624T323 670Q250 670 198 624T134 506Q121 433 156 387T264 341ZM193 401L231 615H330Q363 615 380 597T392 548Q388 525 373 509T334 485L374 401H312L277 482H261L247 401H193ZM268 524H306Q318 524 326 529T336 546Q339 567 315 567H276L268 524Z" />
<glyph unicode="&#xaf;" glyph-name="overscore" horiz-adv-x="399" d="M78 585L92 662H453L440 585H78Z" />
<glyph unicode="&#xb0;" glyph-name="degree" horiz-adv-x="357" d="M235 435Q198 435 167 452T118 500T99 573Q99 615 117 646T167 695T236 712Q273 712 304 695T354 647T373 573Q373 531 354 500T304 452T235 435ZM235 507Q258 507 277 523T297 574Q297 607
278 623T236 640Q213 640 194 624T174 574Q174 540 193 524T235 507Z" />
<glyph unicode="&#xb1;" glyph-name="plusminus" horiz-adv-x="610" d="M239 140L263 274H68L84 363H279L303 497H395L372 363H567L551 274H356L332 140H239ZM20 0L36 92H520L503 0H20Z" />
<glyph unicode="&#xb2;" glyph-name="uni00B2" horiz-adv-x="344" d="M47 352L58 412L189 499Q221 522 243 545T271 599Q276 624 265 637T233 650Q186 650 171 596H88Q100 645 141 678T249 711Q311 711 339 679T359 603Q352 563 321 533T234 470L147 418H328L317 352H47Z" />
<glyph unicode="&#xb3;" glyph-name="uni00B3" horiz-adv-x="341" d="M180 347Q112 347 81 376T54 458H138Q137 430 150 419T187 408Q213 408 230 421T252 457Q257 481 242 494T200 507H157L165 552H206Q232 552 250 564T274 602Q278 623 266 636T229 649Q203
649 187 638T163 606H85Q96 650 137 680T246 711Q305 711 337 682T363 608Q357 577 336 557T284 530L283 527Q312 519 327 499T337 445Q330 404 288 376T180 347Z" />
<glyph unicode="&#xb4;" glyph-name="acute" horiz-adv-x="257" d="M70 537L84 613L324 737L308 649L70 537Z" />
<glyph unicode="&#xb5;" glyph-name="uni00B5" horiz-adv-x="601" d="M-16 -220L112 496H218L169 222Q167 209 166 198T165 176Q165 78 261 78Q319 78 364 118T425 233L471 496H577L490 0H396L402 85Q370 40 322 14T216 -12Q164 -12 132 14L90 -220H-16Z" />
<glyph unicode="&#xb6;" glyph-name="paragraph" horiz-adv-x="617" d="M226 -100L295 289H282Q210 289 165 315T99 384T77 472Q77 545 112 596T209 673T354 700H626L485 -100H394L521 618H443L317 -100H226Z" />
<glyph unicode="&#xb7;" glyph-name="middot" horiz-adv-x="219" d="M125 269Q95 269 76 288T56 335Q56 363 75 382T125 402Q155 402 174 383T194 335Q194 308 175 289T125 269Z" />
<glyph unicode="&#xb8;" glyph-name="cedilla" horiz-adv-x="282" d="M-77 -261L-66 -197H36Q104 -197 104 -151Q104 -116 52 -116H-5L17 7H86L74 -56Q123 -55 155 -76T187 -143Q187 -178 168 -204T117 -246T45 -261H-77Z" />
<glyph unicode="&#xb9;" glyph-name="uni00B9" horiz-adv-x="219" d="M106 352L154 625L83 608L92 659L201 704H250L188 352H106Z" />
<glyph unicode="&#xba;" glyph-name="ordmasculine" horiz-adv-x="439" d="M232 349Q159 349 115 389T71 495Q71 556 101 605T181 683T293 712Q366 712 410 673T454 567Q454 506 424 457T344 378T232 349ZM242 413Q281 413 309 433T353 487T369 559Q369 604 344
626T282 649Q244 649 216 628T172 573T156 503Q156 458 180 436T242 413Z" />
<glyph unicode="&#xbb;" glyph-name="guillemotright" horiz-adv-x="478" d="M220 120L347 295L282 470H384L446 295L322 120H220ZM30 120L158 295L92 470H194L257 295L132 120H30Z" />
<glyph unicode="&#xbc;" glyph-name="onequarter" horiz-adv-x="668" d="M124 352L172 625L102 608L110 659L219 704H269L207 352H124ZM20 0L517 700H618L122 0H20ZM453 0L466 68H281L289 115L488 353H599L557 119H603L595 68H548L536 0H453ZM371 120H478L507
286L371 120Z" />
<glyph unicode="&#xbd;" glyph-name="onehalf" horiz-adv-x="711" d="M124 352L172 625L102 608L110 659L219 704H269L207 352H124ZM14 0L507 700H609L116 0H14ZM404 -1L415 59L546 146Q578 169 600 192T628 246Q633 271 622 284T590 297Q543 297 528 243H445Q456
292 498 325T606 358Q668 358 695 326T716 250Q708 210 678 180T590 117L504 65H685L673 -1H404Z" />
<glyph unicode="&#xbe;" glyph-name="threequarters" horiz-adv-x="739" d="M203 347Q135 347 104 376T77 458H160Q159 430 173 419T210 408Q236 408 253 421T275 457Q279 481 265 494T223 507H180L188 552H229Q255 552 273 564T296 602Q300 623 288 636T251 649Q226
649 210 638T186 606H107Q119 650 160 680T269 711Q328 711 360 682T385 608Q380 577 359 557T307 530L306 527Q335 519 350 499T360 445Q353 404 311 376T203 347ZM102 0L605 700H706L203 0H102ZM525 0L538 68H352L360 115L556 353H670L628 119H675L666 68H620L607
0H525ZM442 119H548L580 289L442 119Z" />
<glyph unicode="&#xbf;" glyph-name="questiondown" horiz-adv-x="521" d="M373 426Q343 426 324 445T305 492Q305 520 324 539T373 558Q403 558 422 539T442 492Q442 464 423 445T373 426ZM198 -160Q111 -160 59 -113T7 15Q7 91 43 144T142 226T286 254L306 346H398L374
182H336Q272 182 221 168T141 120T111 26Q111 -18 138 -44T215 -71Q272 -71 310 -40T359 45H458Q448 -15 413 -61T322 -134T198 -160Z" />
<glyph unicode="&#xc0;" glyph-name="Agrave" horiz-adv-x="683" d="M-18 0L363 700H480L612 0H502L471 171H185L95 0H-18ZM229 253H457L400 578L229 253ZM460 741L263 853L278 941L474 817L460 741Z" />
<glyph unicode="&#xc1;" glyph-name="Aacute" horiz-adv-x="683" d="M-18 0L363 700H480L612 0H502L471 171H185L95 0H-18ZM229 253H457L400 578L229 253ZM381 741L395 817L635 941L619 853L381 741Z" />
<glyph unicode="&#xc2;" glyph-name="Acircumflex" horiz-adv-x="683" d="M-18 0L363 700H480L612 0H502L471 171H185L95 0H-18ZM229 253H457L400 578L229 253ZM288 752L302 831L459 914L585 831L571 752L445 837L288 752Z" />
<glyph unicode="&#xc3;" glyph-name="Atilde" horiz-adv-x="683" d="M-18 0L363 700H480L612 0H502L471 171H185L95 0H-18ZM229 253H457L400 578L229 253ZM275 757Q293 815 326 842T401 870Q428 870 444 859T475 835T511 823Q528 823 542 834T562 868H621Q604
812 570 784T495 756Q467 756 450 767T419 790T384 802Q347 802 333 757H275Z" />
<glyph unicode="&#xc4;" glyph-name="Adieresis" horiz-adv-x="683" d="M-18 0L363 700H480L612 0H502L471 171H185L95 0H-18ZM229 253H457L400 578L229 253ZM529 772Q506 772 490 788T473 827Q473 851 489 867T529 883Q552 883 568 867T584 827Q584 804 568 788T529
772ZM359 772Q335 772 319 788T303 827Q303 851 319 867T359 883Q382 883 398 867T415 827Q415 804 399 788T359 772Z" />
<glyph unicode="&#xc5;" glyph-name="Aring" horiz-adv-x="683" d="M-18 0L363 700H480L612 0H502L471 171H185L95 0H-18ZM229 253H457L400 578L229 253ZM450 756Q406 756 374 784T341 863Q341 913 373 942T450 971Q496 971 528 942T560 863Q560 813 528 785T450
756ZM450 807Q474 807 490 822T506 863Q506 890 490 905T450 920Q428 920 412 905T396 863Q396 838 412 823T450 807Z" />
<glyph unicode="&#xc6;" glyph-name="AE" horiz-adv-x="931" d="M-18 0L496 700H950L935 616H655L615 395H866L852 313H601L561 84H841L826 0H440L466 149H207L98 0H-18ZM549 616L267 231H481L549 616Z" />
<glyph unicode="&#xc7;" glyph-name="Ccedilla" horiz-adv-x="731" d="M340 -12Q250 -12 187 23T91 121T58 268Q58 363 89 443T175 584T304 678T465 712Q588 712 656 652T726 484H607Q605 546 566 581T449 617Q369 617 306 573T205 452T168 279Q168 186 217 135T356
83Q433 83 484 117T559 210H678Q638 105 550 47T340 -12ZM214 -262L225 -198H327Q396 -198 396 -152Q396 -117 343 -117H287L308 6H377L366 -57Q414 -56 446 -77T478 -144Q478 -179 459 -205T408 -247T336 -262H214Z" />
<glyph unicode="&#xc8;" glyph-name="Egrave" horiz-adv-x="551" d="M28 0L151 700H570L554 616H242L204 395H486L472 313H189L149 84H461L446 0H28ZM403 741L206 853L221 941L417 817L403 741Z" />
<glyph unicode="&#xc9;" glyph-name="Eacute" horiz-adv-x="551" d="M28 0L151 700H570L554 616H242L204 395H486L472 313H189L149 84H461L446 0H28ZM323 741L337 817L577 941L561 853L323 741Z" />
<glyph unicode="&#xca;" glyph-name="Ecircumflex" horiz-adv-x="551" d="M28 0L151 700H570L554 616H242L204 395H486L472 313H189L149 84H461L446 0H28ZM231 752L245 831L402 914L528 831L514 752L388 837L231 752Z" />
<glyph unicode="&#xcb;" glyph-name="Edieresis" horiz-adv-x="551" d="M28 0L151 700H570L554 616H242L204 395H486L472 313H189L149 84H461L446 0H28ZM472 772Q449 772 433 788T416 827Q416 851 432 867T472 883Q495 883 511 867T527 827Q527 804 511 788T472
772ZM302 772Q278 772 262 788T246 827Q246 851 262 867T302 883Q325 883 341 867T358 827Q358 804 342 788T302 772Z" />
<glyph unicode="&#xcc;" glyph-name="Igrave" horiz-adv-x="249" d="M28 0L151 700H257L134 0H28ZM498 741L301 853L316 941L512 817L498 741Z" />
<glyph unicode="&#xcd;" glyph-name="Iacute" horiz-adv-x="249" d="M28 0L151 700H257L134 0H28ZM162 741L176 817L416 941L400 853L162 741Z" />
<glyph unicode="&#xce;" glyph-name="Icircumflex" horiz-adv-x="249" d="M28 0L151 700H257L134 0H28ZM325 752L339 831L496 914L622 831L608 752L482 837L325 752Z" />
<glyph unicode="&#xcf;" glyph-name="Idieresis" horiz-adv-x="249" d="M28 0L151 700H257L134 0H28ZM566 772Q543 772 527 788T510 827Q510 851 526 867T566 883Q589 883 605 867T621 827Q621 804 605 788T566 772ZM396 772Q372 772 356 788T340 827Q340 851
356 867T396 883Q419 883 435 867T452 827Q452 804 436 788T396 772Z" />
<glyph unicode="&#xd0;" glyph-name="Eth" horiz-adv-x="719" d="M39 0L92 303H11L28 396H108L162 700H389Q547 700 621 625T695 416Q695 293 642 200T493 53T266 0H39ZM161 90H278Q375 90 444 129T549 239T586 408Q586 508 535 559T370 611H253L215 396H403L387
303H198L161 90Z" />
<glyph unicode="&#xd1;" glyph-name="Ntilde" horiz-adv-x="706" d="M28 0L151 700H257L514 167L608 700H714L591 0H485L228 533L134 0H28ZM287 757Q305 815 338 842T413 870Q440 870 456 859T487 835T523 823Q540 823 554 834T574 868H633Q616 812 582 784T507
756Q479 756 462 767T431 790T396 802Q359 802 345 757H287Z" />
<glyph unicode="&#xd2;" glyph-name="Ograve" horiz-adv-x="799" d="M357 -12Q269 -12 202 27T98 133T60 288Q60 377 92 453T182 588T316 679T479 712Q566 712 633 674T738 568T776 413Q776 324 743 247T653 112T519 21T357 -12ZM371 83Q431 83 484 107T579 176T643
279T666 405Q666 503 612 560T465 617Q404 617 351 593T257 524T193 422T170 296Q170 231 195 183T265 109T371 83ZM519 741L322 853L337 941L533 817L519 741Z" />
<glyph unicode="&#xd3;" glyph-name="Oacute" horiz-adv-x="799" d="M357 -12Q269 -12 202 27T98 133T60 288Q60 377 92 453T182 588T316 679T479 712Q566 712 633 674T738 568T776 413Q776 324 743 247T653 112T519 21T357 -12ZM371 83Q431 83 484 107T579 176T643
279T666 405Q666 503 612 560T465 617Q404 617 351 593T257 524T193 422T170 296Q170 231 195 183T265 109T371 83ZM440 741L454 817L694 941L678 853L440 741Z" />
<glyph unicode="&#xd4;" glyph-name="Ocircumflex" horiz-adv-x="799" d="M357 -12Q269 -12 202 27T98 133T60 288Q60 377 92 453T182 588T316 679T479 712Q566 712 633 674T738 568T776 413Q776 324 743 247T653 112T519 21T357 -12ZM371 83Q431 83 484 107T579
176T643 279T666 405Q666 503 612 560T465 617Q404 617 351 593T257 524T193 422T170 296Q170 231 195 183T265 109T371 83ZM347 752L361 831L518 914L644 831L630 752L504 837L347 752Z" />
<glyph unicode="&#xd5;" glyph-name="Otilde" horiz-adv-x="799" d="M357 -12Q269 -12 202 27T98 133T60 288Q60 377 92 453T182 588T316 679T479 712Q566 712 633 674T738 568T776 413Q776 324 743 247T653 112T519 21T357 -12ZM371 83Q431 83 484 107T579 176T643
279T666 405Q666 503 612 560T465 617Q404 617 351 593T257 524T193 422T170 296Q170 231 195 183T265 109T371 83ZM334 757Q352 815 385 842T460 870Q487 870 503 859T534 835T570 823Q587 823 601 834T621 868H680Q663 812 629 784T554 756Q526 756 509 767T478
790T443 802Q406 802 392 757H334Z" />
<glyph unicode="&#xd6;" glyph-name="Odieresis" horiz-adv-x="799" d="M357 -12Q269 -12 202 27T98 133T60 288Q60 377 92 453T182 588T316 679T479 712Q566 712 633 674T738 568T776 413Q776 324 743 247T653 112T519 21T357 -12ZM371 83Q431 83 484 107T579
176T643 279T666 405Q666 503 612 560T465 617Q404 617 351 593T257 524T193 422T170 296Q170 231 195 183T265 109T371 83ZM588 772Q565 772 549 788T532 827Q532 851 548 867T588 883Q611 883 627 867T643 827Q643 804 627 788T588 772ZM418 772Q394 772 378
788T362 827Q362 851 378 867T418 883Q441 883 457 867T474 827Q474 804 458 788T418 772Z" />
<glyph unicode="&#xd7;" glyph-name="multiply" horiz-adv-x="504" d="M96 97L44 160L196 290L93 416L166 477L270 352L423 483L475 420L321 289L425 163L352 102L248 228L96 97Z" />
<glyph unicode="&#xd8;" glyph-name="Oslash" horiz-adv-x="787" d="M-9 0L107 111Q83 148 70 192T56 288Q56 377 88 453T178 588T312 679T475 712Q532 712 581 695T668 646L725 700H830L718 593Q744 556 757 511T771 413Q771 324 739 247T649 112T515 21T353
-12Q294 -12 244 6T156 56L97 0H-9ZM166 296Q166 235 188 188L592 574Q540 617 461 617Q400 617 347 593T252 524T189 422T166 296ZM367 83Q427 83 480 107T575 176T639 279T662 405Q662 469 638 516L233 129Q286 83 367 83Z" />
<glyph unicode="&#xd9;" glyph-name="Ugrave" horiz-adv-x="677" d="M285 -12Q220 -12 170 10T90 79T61 196Q61 227 67 263L144 700H250L172 263Q167 234 167 213Q167 147 203 116T304 85Q377 85 428 128T497 263L575 700H681L604 263Q587 169 540 108T427 18T285
-12ZM450 741L253 853L268 941L464 817L450 741Z" />
<glyph unicode="&#xda;" glyph-name="Uacute" horiz-adv-x="677" d="M285 -12Q220 -12 170 10T90 79T61 196Q61 227 67 263L144 700H250L172 263Q167 234 167 213Q167 147 203 116T304 85Q377 85 428 128T497 263L575 700H681L604 263Q587 169 540 108T427 18T285
-12ZM371 741L385 817L625 941L609 853L371 741Z" />
<glyph unicode="&#xdb;" glyph-name="Ucircumflex" horiz-adv-x="677" d="M285 -12Q220 -12 170 10T90 79T61 196Q61 227 67 263L144 700H250L172 263Q167 234 167 213Q167 147 203 116T304 85Q377 85 428 128T497 263L575 700H681L604 263Q587 169 540 108T427
18T285 -12ZM278 752L292 831L449 914L575 831L561 752L435 837L278 752Z" />
<glyph unicode="&#xdc;" glyph-name="Udieresis" horiz-adv-x="677" d="M285 -12Q220 -12 170 10T90 79T61 196Q61 227 67 263L144 700H250L172 263Q167 234 167 213Q167 147 203 116T304 85Q377 85 428 128T497 263L575 700H681L604 263Q587 169 540 108T427
18T285 -12ZM519 772Q496 772 480 788T463 827Q463 851 479 867T519 883Q542 883 558 867T574 827Q574 804 558 788T519 772ZM349 772Q325 772 309 788T293 827Q293 851 309 867T349 883Q372 883 388 867T405 827Q405 804 389 788T349 772Z" />
<glyph unicode="&#xdd;" glyph-name="Yacute" horiz-adv-x="602" d="M198 0L244 258L90 700H211L316 362L540 700H659L350 258L304 0H198ZM334 741L348 817L588 941L572 853L334 741Z" />
<glyph unicode="&#xde;" glyph-name="Thorn" horiz-adv-x="596" d="M28 0L151 700H257L232 560H371Q444 560 490 536T559 472T582 382Q582 309 546 255T446 171T297 141H159L134 0H28ZM174 228H308Q386 228 429 268T473 379Q473 424 444 448T351 472H217L174 228Z" />
<glyph unicode="&#xdf;" glyph-name="germandbls" horiz-adv-x="690" d="M413 -10Q322 -10 274 39T231 172H333Q329 126 353 99T423 71Q470 71 499 96T528 164Q528 190 509 208T445 242Q378 266 347 291T316 357Q316 390 333 412T375 451T426 484T468 521T486
570Q486 604 458 623T378 643Q308 643 269 607T219 505L129 0H23L114 515Q126 578 161 627T254 704T394 732Q492 732 543 689T595 586Q595 548 578 522T535 476T485 442T443 413T426 380Q426 363 444 350T522 314Q581 292 608 260T635 176Q635 122 606 80T527 14T413
-10Z" />
<glyph unicode="&#xe0;" glyph-name="agrave" horiz-adv-x="557" d="M187 -12Q103 -12 65 27T26 120Q26 202 93 249T272 296H402L403 305Q406 319 406 334Q406 377 380 399T312 421Q268 421 231 400T179 336H74Q89 390 126 428T215 487T326 508Q417 508 465 467T513
351Q513 340 513 329T509 305L456 0H361L369 83Q340 42 296 15T187 -12ZM223 74Q265 74 298 94T355 149T388 224H270Q210 224 175 200T140 135Q140 105 162 90T223 74ZM362 537L165 649L180 737L376 613L362 537Z" />
<glyph unicode="&#xe1;" glyph-name="aacute" horiz-adv-x="557" d="M187 -12Q103 -12 65 27T26 120Q26 202 93 249T272 296H402L403 305Q406 319 406 334Q406 377 380 399T312 421Q268 421 231 400T179 336H74Q89 390 126 428T215 487T326 508Q417 508 465 467T513
351Q513 340 513 329T509 305L456 0H361L369 83Q340 42 296 15T187 -12ZM223 74Q265 74 298 94T355 149T388 224H270Q210 224 175 200T140 135Q140 105 162 90T223 74ZM282 537L296 613L536 737L520 649L282 537Z" />
<glyph unicode="&#xe2;" glyph-name="acircumflex" horiz-adv-x="557" d="M187 -12Q103 -12 65 27T26 120Q26 202 93 249T272 296H402L403 305Q406 319 406 334Q406 377 380 399T312 421Q268 421 231 400T179 336H74Q89 390 126 428T215 487T326 508Q417 508 465
467T513 351Q513 340 513 329T509 305L456 0H361L369 83Q340 42 296 15T187 -12ZM223 74Q265 74 298 94T355 149T388 224H270Q210 224 175 200T140 135Q140 105 162 90T223 74ZM189 548L203 627L360 710L486 627L472 548L346 633L189 548Z" />
<glyph unicode="&#xe3;" glyph-name="atilde" horiz-adv-x="557" d="M187 -12Q103 -12 65 27T26 120Q26 202 93 249T272 296H402L403 305Q406 319 406 334Q406 377 380 399T312 421Q268 421 231 400T179 336H74Q89 390 126 428T215 487T326 508Q417 508 465 467T513
351Q513 340 513 329T509 305L456 0H361L369 83Q340 42 296 15T187 -12ZM223 74Q265 74 298 94T355 149T388 224H270Q210 224 175 200T140 135Q140 105 162 90T223 74ZM170 553Q188 611 221 638T296 666Q323 666 339 655T370 631T407 619Q423 619 437 630T458 664H517Q499
608 466 580T390 552Q362 552 345 563T314 586T279 598Q243 598 229 553H170Z" />
<glyph unicode="&#xe4;" glyph-name="adieresis" horiz-adv-x="557" d="M187 -12Q103 -12 65 27T26 120Q26 202 93 249T272 296H402L403 305Q406 319 406 334Q406 377 380 399T312 421Q268 421 231 400T179 336H74Q89 390 126 428T215 487T326 508Q417 508 465
467T513 351Q513 340 513 329T509 305L456 0H361L369 83Q340 42 296 15T187 -12ZM223 74Q265 74 298 94T355 149T388 224H270Q210 224 175 200T140 135Q140 105 162 90T223 74ZM430 568Q407 568 391 584T375 623Q375 647 391 663T430 679Q453 679 469 663T486 623Q486
600 470 584T430 568ZM260 568Q236 568 220 584T204 623Q204 647 220 663T260 679Q283 679 299 663T316 623Q316 600 300 584T260 568Z" />
<glyph unicode="&#xe5;" glyph-name="aring" horiz-adv-x="557" d="M187 -12Q103 -12 65 27T26 120Q26 202 93 249T272 296H402L403 305Q406 319 406 334Q406 377 380 399T312 421Q268 421 231 400T179 336H74Q89 390 126 428T215 487T326 508Q417 508 465 467T513
351Q513 340 513 329T509 305L456 0H361L369 83Q340 42 296 15T187 -12ZM223 74Q265 74 298 94T355 149T388 224H270Q210 224 175 200T140 135Q140 105 162 90T223 74ZM352 552Q308 552 276 580T243 659Q243 709 275 738T352 767Q398 767 430 738T462 659Q462 609
430 581T352 552ZM352 603Q375 603 391 618T407 659Q407 686 391 701T352 716Q330 716 314 701T298 659Q298 634 314 619T352 603Z" />
<glyph unicode="&#xe6;" glyph-name="ae" horiz-adv-x="936" d="M194 -12Q111 -12 69 24T26 117Q26 171 56 211T140 274T265 296H411Q415 318 415 334Q415 377 389 399T321 421Q277 421 241 400T189 336H83Q98 390 136 428T227 487T336 508Q399 508 440 487T501
428Q540 466 591 487T702 508Q766 508 811 483T881 414T905 315Q905 300 902 281T896 245T891 223H505Q503 211 503 200Q502 140 537 108T624 76Q674 76 711 101T769 166H874Q852 116 814 76T723 12T609 -12Q542 -12 494 18T422 100Q385 51 326 20T194 -12ZM520
295H799Q799 300 799 304T800 312Q801 362 770 391T686 421Q632 421 586 389T520 295ZM222 74Q262 74 296 92T354 140T390 205L394 224H263Q208 224 174 201T140 135Q140 107 161 91T222 74Z" />
<glyph unicode="&#xe7;" glyph-name="ccedilla" horiz-adv-x="584" d="M256 -12Q192 -12 144 14T70 89T43 200Q43 265 66 321T131 419T227 484T346 508Q440 508 495 459T550 325H440Q440 370 409 393T331 417Q282 417 242 391T177 317T153 211Q153 149 187 114T272
78Q318 78 357 102T414 171H524Q504 116 465 75T372 11T256 -12ZM131 -263L142 -199H244Q312 -199 312 -153Q312 -118 260 -118H203L225 5H294L282 -58Q331 -57 363 -78T395 -145Q395 -180 376 -206T325 -248T253 -263H131Z" />
<glyph unicode="&#xe8;" glyph-name="egrave" horiz-adv-x="582" d="M253 -12Q157 -12 100 45T43 198Q43 262 65 318T127 417T223 484T344 508Q409 508 455 483T525 414T549 315Q549 293 545 268T535 223H149Q147 210 147 199Q147 139 182 108T268 76Q314 76 348
97T403 152H510Q488 105 450 68T362 10T253 -12ZM330 421Q277 421 230 389T163 295H443Q444 300 444 304T444 312Q445 362 414 391T330 421ZM382 537L185 649L200 737L396 613L382 537Z" />
<glyph unicode="&#xe9;" glyph-name="eacute" horiz-adv-x="582" d="M253 -12Q157 -12 100 45T43 198Q43 262 65 318T127 417T223 484T344 508Q409 508 455 483T525 414T549 315Q549 293 545 268T535 223H149Q147 210 147 199Q147 139 182 108T268 76Q314 76 348
97T403 152H510Q488 105 450 68T362 10T253 -12ZM330 421Q277 421 230 389T163 295H443Q444 300 444 304T444 312Q445 362 414 391T330 421ZM302 537L316 613L556 737L540 649L302 537Z" />
<glyph unicode="&#xea;" glyph-name="ecircumflex" horiz-adv-x="582" d="M253 -12Q157 -12 100 45T43 198Q43 262 65 318T127 417T223 484T344 508Q409 508 455 483T525 414T549 315Q549 293 545 268T535 223H149Q147 210 147 199Q147 139 182 108T268 76Q314
76 348 97T403 152H510Q488 105 450 68T362 10T253 -12ZM330 421Q277 421 230 389T163 295H443Q444 300 444 304T444 312Q445 362 414 391T330 421ZM209 548L223 627L380 710L506 627L492 548L366 633L209 548Z" />
<glyph unicode="&#xeb;" glyph-name="edieresis" horiz-adv-x="582" d="M253 -12Q157 -12 100 45T43 198Q43 262 65 318T127 417T223 484T344 508Q409 508 455 483T525 414T549 315Q549 293 545 268T535 223H149Q147 210 147 199Q147 139 182 108T268 76Q314 76
348 97T403 152H510Q488 105 450 68T362 10T253 -12ZM330 421Q277 421 230 389T163 295H443Q444 300 444 304T444 312Q445 362 414 391T330 421ZM450 568Q427 568 411 584T395 623Q395 647 411 663T450 679Q473 679 489 663T506 623Q506 600 490 584T450 568ZM280
568Q256 568 240 584T224 623Q224 647 240 663T280 679Q303 679 319 663T336 623Q336 600 320 584T280 568Z" />
<glyph unicode="&#xec;" glyph-name="igrave" horiz-adv-x="241" d="M24 0L111 496H217L130 0H24ZM459 537L262 649L277 737L473 613L459 537Z" />
<glyph unicode="&#xed;" glyph-name="iacute" horiz-adv-x="241" d="M24 0L111 496H217L130 0H24ZM123 537L137 613L377 737L361 649L123 537Z" />
<glyph unicode="&#xee;" glyph-name="icircumflex" horiz-adv-x="241" d="M24 0L111 496H217L130 0H24ZM286 548L300 627L457 710L583 627L569 548L443 633L286 548Z" />
<glyph unicode="&#xef;" glyph-name="idieresis" horiz-adv-x="241" d="M24 0L111 496H217L130 0H24ZM527 568Q504 568 488 584T472 623Q472 647 488 663T527 679Q550 679 566 663T583 623Q583 600 567 584T527 568ZM357 568Q333 568 317 584T301 623Q301 647
317 663T357 679Q380 679 396 663T413 623Q413 600 397 584T357 568Z" />
<glyph unicode="&#xf0;" glyph-name="eth" horiz-adv-x="626" d="M277 -12Q205 -12 153 19T73 102T45 215Q45 277 68 330T133 422T227 483T342 505Q388 505 428 490T492 438Q486 477 473 514T439 587L302 544L314 611L405 640Q381 671 352 700H454Q471 684 486
666L620 709L608 641L523 614Q558 556 575 492T592 363Q592 271 566 201T496 84T395 12T277 -12ZM289 78Q339 78 381 106T448 179T473 277Q473 344 434 379T338 415Q288 415 246 389T179 319T154 222Q154 157 191 118T289 78Z" />
<glyph unicode="&#xf1;" glyph-name="ntilde" horiz-adv-x="591" d="M24 0L111 496H205L199 410Q230 455 278 481T385 508Q461 508 503 466T546 345Q546 316 540 285L489 0H384L432 274Q434 287 435 298T437 320Q437 418 340 418Q282 418 237 378T177 264L130
0H24ZM208 553Q226 611 259 638T334 666Q361 666 377 655T408 631T445 619Q461 619 475 630T496 664H555Q537 608 504 580T428 552Q400 552 383 563T352 586T317 598Q281 598 267 553H208Z" />
<glyph unicode="&#xf2;" glyph-name="ograve" horiz-adv-x="600" d="M259 -12Q196 -12 148 16T72 94T44 207Q44 271 66 326T129 422T223 485T339 508Q403 508 451 481T528 405T556 292Q556 228 533 173T470 76T376 11T259 -12ZM273 79Q322 79 361 106T424 180T447
286Q447 348 412 382T327 417Q278 417 239 390T176 316T153 210Q153 148 188 114T273 79ZM381 537L184 649L199 737L395 613L381 537Z" />
<glyph unicode="&#xf3;" glyph-name="oacute" horiz-adv-x="600" d="M259 -12Q196 -12 148 16T72 94T44 207Q44 271 66 326T129 422T223 485T339 508Q403 508 451 481T528 405T556 292Q556 228 533 173T470 76T376 11T259 -12ZM273 79Q322 79 361 106T424 180T447
286Q447 348 412 382T327 417Q278 417 239 390T176 316T153 210Q153 148 188 114T273 79ZM301 537L315 613L555 737L539 649L301 537Z" />
<glyph unicode="&#xf4;" glyph-name="ocircumflex" horiz-adv-x="600" d="M259 -12Q196 -12 148 16T72 94T44 207Q44 271 66 326T129 422T223 485T339 508Q403 508 451 481T528 405T556 292Q556 228 533 173T470 76T376 11T259 -12ZM273 79Q322 79 361 106T424
180T447 286Q447 348 412 382T327 417Q278 417 239 390T176 316T153 210Q153 148 188 114T273 79ZM208 548L222 627L379 710L505 627L491 548L365 633L208 548Z" />
<glyph unicode="&#xf5;" glyph-name="otilde" horiz-adv-x="600" d="M259 -12Q196 -12 148 16T72 94T44 207Q44 271 66 326T129 422T223 485T339 508Q403 508 451 481T528 405T556 292Q556 228 533 173T470 76T376 11T259 -12ZM273 79Q322 79 361 106T424 180T447
286Q447 348 412 382T327 417Q278 417 239 390T176 316T153 210Q153 148 188 114T273 79ZM189 553Q207 611 240 638T315 666Q342 666 358 655T389 631T426 619Q442 619 456 630T477 664H536Q518 608 485 580T409 552Q381 552 364 563T333 586T298 598Q262 598 248
553H189Z" />
<glyph unicode="&#xf6;" glyph-name="odieresis" horiz-adv-x="600" d="M259 -12Q196 -12 148 16T72 94T44 207Q44 271 66 326T129 422T223 485T339 508Q403 508 451 481T528 405T556 292Q556 228 533 173T470 76T376 11T259 -12ZM273 79Q322 79 361 106T424 180T447
286Q447 348 412 382T327 417Q278 417 239 390T176 316T153 210Q153 148 188 114T273 79ZM449 568Q426 568 410 584T394 623Q394 647 410 663T449 679Q472 679 488 663T505 623Q505 600 489 584T449 568ZM279 568Q255 568 239 584T223 623Q223 647 239 663T279
679Q302 679 318 663T335 623Q335 600 319 584T279 568Z" />
<glyph unicode="&#xf7;" glyph-name="divide" horiz-adv-x="533" d="M301 384Q271 384 252 403T232 450Q232 478 251 497T301 516Q331 516 350 497T369 450Q369 422 350 403T301 384ZM59 246L74 334H489L473 246H59ZM248 64Q218 64 199 83T179 130Q179 158 198
177T248 196Q278 196 297 177T316 130Q316 102 297 83T248 64Z" />
<glyph unicode="&#xf8;" glyph-name="oslash" horiz-adv-x="592" d="M-8 0L76 80Q40 135 40 207Q40 271 62 326T125 422T219 485T335 508Q417 508 475 463L509 496H599L517 417Q552 363 552 292Q552 228 529 173T466 76T372 11T256 -12Q215 -12 180 0T118 34L83
0H-8ZM144 209Q144 179 153 154L404 395Q371 423 324 423Q273 423 233 395T168 319T144 209ZM268 73Q319 73 360 101T424 177T448 287Q448 317 439 342L188 101Q222 73 268 73Z" />
<glyph unicode="&#xf9;" glyph-name="ugrave" horiz-adv-x="591" d="M206 -12Q130 -12 88 30T45 151Q45 180 51 211L101 496H207L159 222Q157 209 156 198T154 176Q154 78 251 78Q308 78 353 118T414 232L460 496H566L479 0H385L392 86Q361 41 312 15T206 -12ZM372
537L175 649L190 737L386 613L372 537Z" />
<glyph unicode="&#xfa;" glyph-name="uacute" horiz-adv-x="591" d="M206 -12Q130 -12 88 30T45 151Q45 180 51 211L101 496H207L159 222Q157 209 156 198T154 176Q154 78 251 78Q308 78 353 118T414 232L460 496H566L479 0H385L392 86Q361 41 312 15T206 -12ZM292
537L306 613L546 737L530 649L292 537Z" />
<glyph unicode="&#xfb;" glyph-name="ucircumflex" horiz-adv-x="591" d="M206 -12Q130 -12 88 30T45 151Q45 180 51 211L101 496H207L159 222Q157 209 156 198T154 176Q154 78 251 78Q308 78 353 118T414 232L460 496H566L479 0H385L392 86Q361 41 312 15T206
-12ZM199 548L213 627L370 710L496 627L482 548L356 633L199 548Z" />
<glyph unicode="&#xfc;" glyph-name="udieresis" horiz-adv-x="591" d="M206 -12Q130 -12 88 30T45 151Q45 180 51 211L101 496H207L159 222Q157 209 156 198T154 176Q154 78 251 78Q308 78 353 118T414 232L460 496H566L479 0H385L392 86Q361 41 312 15T206 -12ZM440
568Q417 568 401 584T384 623Q384 647 400 663T440 679Q463 679 479 663T495 623Q495 600 479 584T440 568ZM270 568Q246 568 230 584T214 623Q214 647 230 663T270 679Q293 679 309 663T326 623Q326 600 310 584T270 568Z" />
<glyph unicode="&#xfd;" glyph-name="yacute" horiz-adv-x="574" d="M42 -220L206 41H177L62 496H175L264 129L488 496H600L154 -220H42ZM292 537L306 613L546 737L530 649L292 537Z" />
<glyph unicode="&#xfe;" glyph-name="thorn" horiz-adv-x="632" d="M302 -12Q245 -12 203 15T143 76L91 -220H-15L150 720H256L205 426Q234 459 278 483T386 508Q448 508 493 480T564 404T589 295Q589 230 568 175T507 77T416 12T302 -12ZM301 80Q353 80 393 106T456
176T480 277Q480 337 445 376T350 416Q299 416 258 389T194 317T170 214Q170 155 206 118T301 80Z" />
<glyph unicode="&#xff;" glyph-name="ydieresis" horiz-adv-x="574" d="M42 -220L206 41H177L62 496H175L264 129L488 496H600L154 -220H42ZM440 568Q417 568 401 584T384 623Q384 647 400 663T440 679Q463 679 479 663T495 623Q495 600 479 584T440 568ZM270
568Q246 568 230 584T214 623Q214 647 230 663T270 679Q293 679 309 663T326 623Q326 600 310 584T270 568Z" />
<glyph unicode="&#x2013;" glyph-name="endash" horiz-adv-x="645" d="M57 246L72 334H604L588 246H57Z" />
<glyph unicode="&#x2014;" glyph-name="emdash" horiz-adv-x="858" d="M57 246L72 334H816L801 246H57Z" />
<glyph unicode="&#x2018;" glyph-name="quoteleft" horiz-adv-x="239" d="M66 465L204 700H278L181 465H66Z" />
<glyph unicode="&#x2019;" glyph-name="quoteright" horiz-adv-x="239" d="M79 465L177 700H291L153 465H79Z" />
<glyph unicode="&#x201a;" glyph-name="quotesinglbase" horiz-adv-x="212" d="M-58 -118L39 118H154L16 -118H-58Z" />
<glyph unicode="&#x201c;" glyph-name="quotedblleft" horiz-adv-x="417" d="M244 465L382 700H456L359 465H244ZM66 465L204 700H278L181 465H66Z" />
<glyph unicode="&#x201d;" glyph-name="quotedblright" horiz-adv-x="416" d="M257 465L354 699H468L331 465H257ZM79 465L176 699H290L153 465H79Z" />
<glyph unicode="&#x201e;" glyph-name="quotedblbase" horiz-adv-x="397" d="M127 -118L224 118H338L200 -118H127ZM-58 -118L39 118H154L16 -118H-58Z" />
<glyph unicode="&#x2022;" glyph-name="bullet" horiz-adv-x="367" d="M198 206Q163 206 134 223T88 268T71 333Q71 369 88 398T134 444T198 461Q234 461 263 444T309 398T327 333Q327 297 310 269T263 223T198 206Z" />
<glyph unicode="&#x2039;" glyph-name="guilsinglleft" horiz-adv-x="290" d="M111 120L48 295L173 470H275L147 295L213 120H111Z" />
<glyph unicode="&#x203a;" glyph-name="guilsinglright" horiz-adv-x="289" d="M30 120L158 295L92 470H194L257 295L132 120H30Z" />
</font>
</defs>
</svg>
