<?xml version="1.0" encoding="utf-8"?>
<!-- Generator: Adobe Illustrator 23.0.0, SVG Export Plug-In . SVG Version: 6.00 Build 0)  -->
<svg version="1.1" id="Ebene_1" xmlns="http://www.w3.org/2000/svg" xmlns:xlink="http://www.w3.org/1999/xlink" x="0px" y="0px"
	 viewBox="0 0 71.3 20" style="enable-background:new 0 0 71.3 20;" xml:space="preserve">
<style type="text/css">
	.st0{fill:#0071B9;}
	.st1{fill:#393B41;}
	.st2{fill:#FFFFFF;}
</style>
<path class="st0" d="M40.5,18.4c0,0.9-0.7,1.6-1.6,1.6H1.7c-0.9,0-1.6-0.7-1.6-1.6V1.7C0.1,0.8,0.9,0,1.7,0h37.1
	c0.9,0,1.6,0.7,1.6,1.6L40.5,18.4L40.5,18.4z"/>
<g>
	<polygon class="st1" points="52.4,5.8 48.7,5.8 48.7,17 47.4,17 47.4,5.8 43.7,5.8 43.7,4.7 52.4,4.7 	"/>
	<polygon class="st1" points="60.3,17 54.1,17 54.1,4.7 60.3,4.7 60.3,5.8 55.5,5.8 55.5,10.2 60.1,10.2 60.1,11.3 55.5,11.3 
		55.5,15.8 60.3,15.8 	"/>
	<path class="st1" d="M71.4,16.5c-1,0.4-2.2,0.7-3.6,0.7c-1.9,0-3.3-0.5-4.1-1.6c-0.9-1.1-1.3-2.5-1.3-4.4c0-1.8,0.4-3.4,1.3-4.6
		c0.9-1.3,2.4-1.9,4.5-1.9c1,0,2,0.1,3,0.4l-0.1,1.3c-1-0.5-2.1-0.6-3.1-0.6c-1.5,0-2.5,0.5-3.2,1.5c-0.6,1-0.9,2.2-0.9,3.6
		c0,1.6,0.3,2.8,1,3.7s1.8,1.3,3.3,1.3c0.5,0,1-0.1,1.6-0.2c0.6-0.1,1.1-0.3,1.4-0.5L71.4,16.5z"/>
</g>
<g>
	<polygon class="st2" points="16.8,17.1 11.6,10.9 11.6,17.1 10.2,17.1 10.2,4.8 11.6,4.8 11.6,10.6 16.8,4.8 18.5,4.8 13.1,10.7 
		18.7,17.1 	"/>
	<polygon class="st2" points="26.6,6 21.8,6 21.8,10.3 26.4,10.3 26.4,11.4 21.8,11.4 21.8,16 26.6,16 26.6,17.1 20.4,17.1 
		20.4,4.8 26.6,4.8 	"/>
	<path class="st2" d="M33.3,12.6v4.5h-1.4v-4.5l-3.8-7.8h1.5l2.1,4.3c0.2,0.4,0.3,0.7,0.5,1.1l0.5,1.1l0,0c0.1-0.4,0.3-0.8,0.5-1.2
		l0.6-1.2l2-4.1h1.5L33.3,12.6z"/>
</g>
</svg>
