<svg xmlns="http://www.w3.org/2000/svg" width="24" height="24" viewBox="0 0 24 24">
  <g fill="none">
    <path fill="#F0F0F0" d="M23.2536094,16.1738906 C23.736,14.8739531 24,13.4678438 24,12 C24,10.5321562 23.736,9.12614063 23.2536094,7.82610938 L12,6.782625 L0.746390625,7.82610938 C0.264046875,9.12614063 0,10.5321562 0,12 C0,13.4678437 0.264046875,14.8739531 0.746390625,16.1738906 L12,17.217375 L23.2536094,16.1738906 Z"/>
    <g fill="#D80027" transform="translate(.703)">
      <path d="M11.296875 24C16.4564062 24 20.8549688 20.7435 22.5504375 16.1738906L.04321875 16.1738906C1.73878125 20.7435 6.13725 24 11.296875 24zM11.296875 0C6.13725 0 1.73878125 3.2565.04321875 7.82610937L22.5504844 7.82610937C20.8549688 3.2565 16.4564063 0 11.296875 0z"/>
    </g>
  </g>
</svg>
