<svg xmlns="http://www.w3.org/2000/svg" width="24" height="24" viewBox="0 0 24 24">
  <g fill="none">
    <circle cx="12" cy="12" r="12" fill="#F0F0F0"/>
    <g fill="#0052B4" transform="translate(.375 .375)">
      <path d="M2.105625 4.31915625C1.16301563 5.54554687.45225 6.9590625.038390625 8.49464062L6.28110938 8.49464062 2.105625 4.31915625zM23.2116094 8.49464062C22.79775 6.95910937 22.0869375 5.54559375 21.144375 4.31920312L16.9689844 8.49464062 23.2116094 8.49464062zM.038390625 14.7555C.452296875 16.2910312 1.1630625 17.7045469 2.105625 18.9308906L6.28096875 14.7555.038390625 14.7555.038390625 14.7555zM18.9308438 2.10567188C17.7044531 1.1630625 16.2909844.452296875 14.7554063.038390625L14.7554063 6.2810625 18.9308438 2.10567188zM4.31915625 21.1443281C5.54554687 22.0869375 6.9590625 22.7977031 8.49459375 23.2116094L8.49459375 16.9689844 4.31915625 21.1443281zM8.49454688.038390625C6.95901563.452296875 5.5455 1.1630625 4.31915625 2.105625L8.49454688 6.28101563 8.49454688.038390625zM14.7554531 23.2116094C16.2909844 22.7977031 17.7045 22.0869375 18.9308438 21.144375L14.7554531 16.9689844 14.7554531 23.2116094zM16.9689844 14.7555L21.144375 18.9309375C22.0869375 17.7045938 22.79775 16.2910312 23.2116094 14.7555L16.9689844 14.7555z"/>
    </g>
    <g fill="#D80027">
      <path d="M23.8984219,10.4347969 L13.5652969,10.4347969 L13.56525,10.4347969 L13.56525,0.101578125 C13.0528594,0.034875 12.5304844,0 12,0 C11.4694219,0 10.9471406,0.034875 10.4347969,0.101578125 L10.4347969,10.4347031 L10.4347969,10.43475 L0.101578125,10.43475 C0.034875,10.9471406 0,11.4695156 0,12 C0,12.5305781 0.034875,13.0528594 0.101578125,13.5652031 L10.4347031,13.5652031 L10.43475,13.5652031 L10.43475,23.8984219 C10.9471406,23.965125 11.4694219,24 12,24 C12.5304844,24 13.0528594,23.9651719 13.5652031,23.8984219 L13.5652031,13.5652969 L13.5652031,13.56525 L23.8984219,13.56525 C23.965125,13.0528594 24,12.5305781 24,12 C24,11.4695156 23.965125,10.9471406 23.8984219,10.4347969 Z"/>
      <path d="M15.1304531 15.1304531L15.1304531 15.1304531 20.4852656 20.4853125C20.7315469 20.239125 20.9664844 19.9817344 21.1906406 19.7149219L16.6061719 15.1304531 15.1304531 15.1304531 15.1304531 15.1304531zM8.86954688 15.1305L8.86945312 15.1305 3.5146875 20.4852656C3.760875 20.7315469 4.01826562 20.9664844 4.28507813 21.1906406L8.86954688 16.6060781 8.86954688 15.1305zM8.86954688 8.86964062L8.86954688 8.86954687 3.51473437 3.5146875C3.26845312 3.760875 3.03351562 4.01826562 2.80935937 4.28507813L7.393875 8.86964062 8.86954688 8.86964062 8.86954688 8.86964062zM15.1304531 8.86964062L15.1304531 8.86964062 20.4853125 3.51473437C20.239125 3.26845312 19.9817344 3.03351562 19.7149219 2.80940625L15.1304531 7.39392187 15.1304531 8.86964062 15.1304531 8.86964062z"/>
    </g>
  </g>
</svg>
