<svg width="152" height="46" viewBox="0 0 152 46" fill="none" xmlns="http://www.w3.org/2000/svg">
<path d="M28.5 18.875V17.5625C27.1406 15.8281 26.25 13.8125 25.9219 11.6562C25.8281 11.0469 25.0312 10.7656 24.6562 11.2812C23.625 12.4531 22.875 13.8125 22.3594 15.3594C23.9531 17.1406 26.1094 18.3594 28.5 18.875ZM33.75 14C31.6406 14 30 15.6875 30 17.7969V20.5625C25.125 20.2812 20.9531 17.2812 19.0781 12.9688C18.7969 12.4062 17.9531 12.3594 17.7188 12.9219C16.9219 14.5625 16.5 16.4375 16.5 18.3594C16.5 21.6875 18.0938 24.7812 20.4844 27.0781C21.0938 27.6875 21.7031 28.1562 22.3125 28.625L15.5625 30.3125C15.0469 30.4062 14.8125 31.0156 15.0938 31.4375C15.9375 32.7031 17.9531 34.8594 22.2656 35C22.6406 35.0469 23.0156 34.9062 23.2969 34.6719L26.3906 32L30 32.0469C34.125 32.0469 37.5 28.6719 37.5 24.5469V17L38.9531 14H33.75ZM33.75 18.5469C33.3281 18.5469 32.9531 18.1719 32.9531 17.7969C32.9531 17.375 33.3281 17.0469 33.75 17.0469C34.125 17.0469 34.4531 17.375 34.4531 17.7969C34.5 18.1719 34.125 18.5469 33.75 18.5469Z" fill="white"/>
<path d="M48.9952 31L51.9712 14.2H62.4592L62.0032 16.624H54.6112L53.7712 21.4H59.6992L59.2672 23.752H53.3392L52.0672 31H48.9952ZM61.691 31L64.763 13.72H67.835L64.763 31H61.691ZM68.2134 36.28L72.0294 30.208H71.3094L68.6454 19.096H71.9334L73.8534 27.472L78.7974 19.096H82.0614L71.4534 36.28H68.2134ZM87.6245 31.288C86.5205 31.288 85.5445 31.12 84.6965 30.784C83.8485 30.432 83.1845 29.928 82.7045 29.272C82.2245 28.6 81.9845 27.8 81.9845 26.872C81.9845 26.712 81.9925 26.56 82.0085 26.416C82.0245 26.256 82.0405 26.096 82.0565 25.936H85.3205C85.3045 26.112 85.2965 26.272 85.2965 26.416C85.2965 27.104 85.5365 27.664 86.0165 28.096C86.5125 28.512 87.1765 28.72 88.0085 28.72C88.9365 28.72 89.6645 28.488 90.1925 28.024C90.7205 27.544 90.9845 26.92 90.9845 26.152C90.9845 25.576 90.7845 25.12 90.3845 24.784C89.9845 24.448 89.4725 24.168 88.8485 23.944C88.2405 23.72 87.6005 23.488 86.9285 23.248C85.8725 22.864 85.0645 22.336 84.5045 21.664C83.9445 20.992 83.6645 20.2 83.6645 19.288C83.6645 18.216 83.9365 17.28 84.4805 16.48C85.0405 15.664 85.8005 15.032 86.7605 14.584C87.7365 14.136 88.8565 13.912 90.1205 13.912C91.6405 13.912 92.8645 14.28 93.7925 15.016C94.7205 15.752 95.1845 16.752 95.1845 18.016C95.1845 18.128 95.1765 18.248 95.1605 18.376C95.1605 18.504 95.1525 18.632 95.1365 18.76H91.8485C91.8645 18.616 91.8725 18.48 91.8725 18.352C91.8725 17.856 91.6805 17.424 91.2965 17.056C90.9125 16.688 90.3525 16.504 89.6165 16.504C88.8005 16.504 88.1525 16.72 87.6725 17.152C87.2085 17.568 86.9765 18.096 86.9765 18.736C86.9765 19.232 87.1365 19.632 87.4565 19.936C87.7765 20.224 88.2085 20.48 88.7525 20.704C89.2965 20.912 89.8965 21.136 90.5525 21.376C91.2405 21.616 91.8645 21.936 92.4245 22.336C93.0005 22.72 93.4565 23.192 93.7925 23.752C94.1445 24.312 94.3205 24.976 94.3205 25.744C94.3205 26.864 94.0325 27.84 93.4565 28.672C92.8805 29.504 92.0885 30.152 91.0805 30.616C90.0725 31.064 88.9205 31.288 87.6245 31.288ZM95.9169 31L98.9409 13.72H102.013L100.765 20.92C101.261 20.28 101.877 19.768 102.613 19.384C103.365 19 104.189 18.808 105.085 18.808C106.557 18.808 107.613 19.272 108.253 20.2C108.909 21.128 109.085 22.488 108.781 24.28L107.581 31H104.509L105.661 24.568C105.837 23.544 105.765 22.76 105.445 22.216C105.125 21.672 104.517 21.4 103.621 21.4C102.773 21.4 102.021 21.704 101.365 22.312C100.709 22.92 100.277 23.768 100.069 24.856V24.832L98.9889 31H95.9169ZM116.086 31.288C115.046 31.288 114.134 31.056 113.35 30.592C112.566 30.128 111.95 29.504 111.502 28.72C111.07 27.92 110.854 27.008 110.854 25.984C110.854 24.976 111.03 24.04 111.382 23.176C111.75 22.296 112.254 21.528 112.894 20.872C113.55 20.216 114.31 19.712 115.174 19.36C116.038 18.992 116.966 18.808 117.958 18.808C119.014 18.808 119.934 19.032 120.718 19.48C121.518 19.928 122.142 20.544 122.59 21.328C123.038 22.112 123.262 23.024 123.262 24.064C123.262 25.088 123.078 26.04 122.71 26.92C122.342 27.784 121.83 28.544 121.174 29.2C120.534 29.856 119.774 30.368 118.894 30.736C118.03 31.104 117.094 31.288 116.086 31.288ZM116.494 28.624C117.182 28.624 117.798 28.432 118.342 28.048C118.886 27.664 119.318 27.144 119.638 26.488C119.958 25.816 120.118 25.064 120.118 24.232C120.118 23.352 119.87 22.672 119.374 22.192C118.894 21.712 118.31 21.472 117.622 21.472C116.95 21.472 116.334 21.664 115.774 22.048C115.23 22.432 114.798 22.96 114.478 23.632C114.158 24.288 113.998 25.032 113.998 25.864C113.998 26.744 114.238 27.424 114.718 27.904C115.214 28.384 115.806 28.624 116.494 28.624ZM123.728 36.28L126.728 19.096H129.488L129.512 20.8C129.992 20.208 130.568 19.728 131.24 19.36C131.928 18.992 132.744 18.808 133.688 18.808C134.664 18.808 135.512 19.032 136.232 19.48C136.968 19.928 137.536 20.544 137.936 21.328C138.336 22.096 138.536 22.968 138.536 23.944C138.536 24.968 138.36 25.928 138.008 26.824C137.672 27.704 137.192 28.48 136.568 29.152C135.944 29.824 135.208 30.352 134.36 30.736C133.528 31.104 132.624 31.288 131.648 31.288C130.784 31.288 130.032 31.104 129.392 30.736C128.752 30.352 128.288 29.896 128 29.368L126.8 36.28H123.728ZM131.504 28.6C132.24 28.6 132.896 28.424 133.472 28.072C134.064 27.704 134.528 27.208 134.864 26.584C135.2 25.96 135.368 25.256 135.368 24.472C135.368 23.624 135.112 22.92 134.6 22.36C134.088 21.784 133.392 21.496 132.512 21.496C131.76 21.496 131.088 21.68 130.496 22.048C129.92 22.416 129.464 22.92 129.128 23.56C128.792 24.2 128.624 24.92 128.624 25.72C128.624 26.552 128.888 27.24 129.416 27.784C129.944 28.328 130.64 28.6 131.504 28.6Z" fill="white"/>
<rect x="0.5" y="0.5" width="151" height="45" rx="22.5" stroke="white"/>
</svg>
