<svg width="538" height="347" viewBox="0 0 538 347" fill="none" xmlns="http://www.w3.org/2000/svg">
<path d="M0 268.671H19.5824L28.5222 304.856L49.3816 268.671H66.6226L75.7753 305.282L97.699 268.671H117.494L83.6508 324.651H60.6628L53.6387 294.639L36.6105 324.651H14.0482L0 268.671Z" fill="black"/>
<path d="M123.029 268.671H142.185L132.394 324.651H113.237L123.029 268.671ZM124.093 251.217C125.37 243.98 130.053 241 137.29 241C144.527 241 148.358 243.98 147.081 251.217C145.804 258.454 141.121 261.434 133.671 261.434C126.434 261.434 122.816 258.667 124.093 251.217Z" fill="black"/>
<path d="M153.893 268.67H174.752L168.579 291.658H169.431C174.965 275.056 184.33 266.755 201.571 266.755C217.322 266.967 223.069 274.204 218.6 300.172L214.343 324.438H195.186L199.017 302.088C201.784 286.337 198.591 281.229 188.587 281.229C178.158 281.229 169.218 291.871 166.451 307.409L163.471 324.438H144.314L153.893 268.67Z" fill="black"/>
<path d="M226.88 342.956L229.86 326.566C233.904 329.333 244.334 331.674 255.615 331.674C271.792 331.674 277.964 326.353 281.157 312.092L282.008 308.048C276.9 319.329 264.98 325.076 251.571 325.076C233.904 325.076 223.687 314.433 226.88 296.128C229.86 278.461 244.121 266.755 260.723 266.755C274.346 266.755 284.563 273.992 284.988 286.763H286.691L288.181 268.67H307.125L298.398 317.839C294.78 338.06 278.177 347 256.041 347C244.334 347 235.181 345.297 226.88 342.956ZM281.157 296.341C282.86 286.763 274.984 282.08 265.619 282.08C256.041 282.08 247.101 286.763 245.398 296.341C243.695 306.132 250.932 311.028 260.51 311.028C269.876 311.241 279.454 306.132 281.157 296.341Z" fill="black"/>
<path d="M308.189 322.096L310.956 305.92C319.683 309.538 327.346 311.028 337.137 311.028C349.269 311.028 354.591 309.964 355.229 306.558C356.932 297.618 307.976 309.751 312.233 285.912C314.575 272.928 328.836 266.968 348.418 266.968C355.229 266.968 366.51 268.245 375.876 270.161L373.109 285.912C365.446 284.209 356.719 282.719 348.205 282.719C336.498 282.719 331.177 283.996 330.538 286.763C329.261 294.639 378.004 283.145 373.747 307.622C371.406 321.032 357.145 326.353 337.563 326.353C328.836 326.353 317.129 324.651 308.189 322.096Z" fill="black"/>
<path d="M448.883 324.651H428.024L434.197 301.663H433.345C427.811 318.265 418.446 326.566 401.205 326.566C385.454 326.354 379.707 319.117 384.389 293.149L388.646 268.884H407.803L403.972 291.233C401.205 306.984 404.397 312.092 414.401 312.092C424.831 312.092 433.771 301.45 436.751 286.125L439.731 269.096H458.887L448.883 324.651Z" fill="black"/>
<path d="M470.169 268.671H489.326L479.535 324.651H460.378L470.169 268.671ZM471.021 251.217C472.298 243.98 476.98 241 484.43 241C491.667 241 495.499 243.98 494.221 251.217C492.944 258.454 488.262 261.434 480.812 261.434C473.575 261.434 469.956 258.667 471.021 251.217Z" fill="black"/>
<path d="M497.839 304.43L501.671 282.506H494.434L496.988 268.458H505.715L508.056 255.048L526.149 252.707L523.382 268.458H537.004L534.45 282.506H520.827L517.635 301.024C516.145 310.177 515.719 312.731 524.02 312.731C525.51 312.731 527.213 312.518 529.342 312.518L527.426 323.586C521.892 325.076 516.996 325.928 510.823 325.928C496.137 325.715 494.86 320.394 497.839 304.43Z" fill="black"/>
<rect x="167" width="203" height="203" rx="101.5" fill="#C2FF46"/>
<path d="M210.703 109.725L208.295 141.705C214.829 153.053 239.588 172.653 262.283 172.997C295.983 173.341 311.801 141.705 311.801 141.705C301.141 148.582 294.264 149.614 282.916 149.958C251.28 150.646 221.363 128.294 210.703 109.725Z" fill="black"/>
<path d="M331.402 80.495C331.058 80.1511 330.714 79.8073 330.371 79.4634C332.09 78.7756 334.497 77.0563 334.497 74.6492C334.497 70.8666 321.774 53.6729 318.679 54.0168C316.959 54.3606 314.896 56.08 313.521 57.4555C309.05 52.6413 303.892 47.8271 298.046 45.7638C298.046 45.4199 298.046 45.0761 298.046 44.7322C298.734 38.5425 297.703 30.9773 293.232 29.2579C292.201 28.914 290.825 28.914 289.794 29.2579C286.355 30.2895 282.916 37.5109 279.133 44.0445C272.256 44.7322 265.722 46.4516 259.189 49.2025C257.469 44.0445 253.687 39.918 248.873 36.8231C242.683 33.3844 238.213 34.416 235.462 35.4476C232.367 36.4792 229.616 40.6057 228.584 46.1077C226.865 52.9852 228.928 62.2697 235.118 68.4594C234.086 69.8349 233.054 71.5543 232.367 73.2737C225.145 87.0286 226.521 106.285 236.149 122.791C244.402 136.89 266.41 144.455 286.011 144.455C295.639 144.455 304.924 142.736 311.458 138.61C319.71 133.795 325.556 124.855 330.371 115.914C330.371 115.914 330.371 115.914 330.371 115.57C333.122 110.412 335.185 104.91 337.248 100.44L338.624 96.657C340.343 91.1551 335.873 85.6531 331.402 80.495ZM291.857 33.3844C292.544 34.0721 293.92 37.5109 293.232 43.7006H292.888C291.857 43.7006 290.825 43.3567 289.794 43.3567C289.794 42.3251 289.794 41.6373 289.794 40.2618C290.137 36.4792 291.169 34.0721 291.857 33.3844ZM233.742 47.1393C234.43 43.3567 236.149 40.6057 238.556 39.5741C239.244 38.8864 240.276 38.8864 240.964 38.8864C243.027 38.8864 245.09 39.5741 246.809 40.6057C250.936 43.0128 253.687 46.4516 255.062 50.9219C254.031 51.6097 252.999 51.9535 251.967 52.6413C250.592 50.9219 249.216 48.8587 247.841 47.1393C247.153 46.4516 243.715 43.3567 240.276 44.0445C239.932 44.0445 239.932 44.3883 239.932 44.3883C239.932 44.7322 239.932 44.7322 240.276 44.7322C242.683 44.7322 244.402 46.7954 245.778 48.8587C247.153 50.578 247.841 52.9852 248.529 55.0484C244.746 57.7994 240.964 60.8942 238.213 64.6768C233.742 59.5187 232.367 52.6413 233.742 47.1393ZM333.809 94.5938L332.434 98.0325C330.371 102.847 328.307 108.349 325.556 113.507C323.837 116.602 321.086 118.321 316.616 119.353C319.367 115.57 322.118 109.724 322.118 104.91C322.461 104.91 322.461 104.566 322.805 104.222L329.683 97.0009C331.402 95.6254 331.746 93.2183 330.371 92.5306C326.588 91.1551 317.647 93.5622 314.208 95.6254C312.145 96.657 312.145 99.0642 313.521 100.096L318.335 104.91C318.335 104.91 318.335 104.91 318.679 104.91C318.679 108.349 316.616 112.819 314.208 116.258C313.177 117.977 312.145 119.009 311.458 119.697C303.892 119.697 297.015 116.946 294.952 115.57C295.295 115.57 295.295 115.57 295.639 115.226C296.671 114.882 298.046 114.195 299.078 113.507V113.163C297.703 112.131 296.327 111.787 294.952 112.131C293.576 112.131 291.857 113.163 290.825 114.538C289.794 115.914 289.45 117.633 289.45 119.009C289.45 120.384 289.793 121.76 290.137 123.135H290.481C290.481 121.76 290.825 120.384 291.169 119.353C294.608 122.791 303.548 124.511 304.236 124.855C306.987 125.199 309.394 125.542 311.801 125.542C314.552 125.542 316.959 125.199 319.023 124.511C315.928 128.637 312.489 132.076 308.707 134.139C289.794 145.487 250.936 137.234 240.62 120.04C236.837 113.851 234.43 106.973 233.398 100.44C237.869 100.784 245.778 99.7519 249.904 98.0325C252.655 103.534 257.469 107.317 263.659 108.005C283.26 110.068 290.825 98.7203 293.576 86.6847C290.137 91.8428 284.292 97.3448 277.414 98.0325C276.726 98.0325 276.382 98.0325 275.695 98.0325C265.722 98.0325 257.469 89.0918 257.469 78.4318C257.469 71.5543 261.252 65.3646 266.754 61.9259C254.031 66.0523 246.809 78.0879 246.809 84.9654C246.809 85.3092 246.809 85.997 246.809 86.3408C242.683 87.3725 237.181 88.0602 233.398 87.7163C234.086 83.5899 235.118 79.4634 236.837 76.0246C239.244 71.5543 242.339 67.7717 246.122 64.333C254.718 58.831 266.41 54.0168 279.133 56.08C296.671 59.5187 301.485 66.3962 302.173 60.8942C302.517 56.7678 301.485 54.0168 300.11 51.9535C305.268 55.0484 310.082 60.2065 314.208 65.3646C308.019 64.333 302.173 66.3962 297.015 70.5227C298.39 73.2737 298.39 77.4001 296.671 81.5266C303.205 74.6492 311.114 71.2104 320.054 73.2737C320.742 74.3053 321.774 75.6808 322.461 76.7124C323.837 78.4318 324.869 80.1511 325.556 81.1827C326.244 82.2144 327.276 83.246 327.963 83.9337C331.058 87.7163 334.497 92.1867 333.809 94.5938Z" fill="black"/>
<path d="M276.726 61.5823C275.695 61.5823 274.663 61.5823 273.631 61.9261H273.287C272.6 62.27 271.568 62.27 270.88 62.6139C270.536 62.6139 270.193 62.9578 270.193 62.9578C264.347 65.7088 260.22 71.5546 260.22 78.4321C260.22 87.0289 266.754 94.938 275.351 94.938C276.038 94.938 276.038 94.938 276.726 94.938C279.821 94.5941 282.916 92.8747 285.667 90.8115C286.011 90.4676 286.355 90.1237 286.698 89.7799C288.762 87.7166 290.481 85.6534 291.857 83.2463C292.2 82.9024 292.2 82.5585 292.544 81.8708C292.544 81.8708 292.544 81.5269 292.888 81.5269C294.608 77.7443 294.951 73.9617 293.92 71.2107C290.137 63.6455 281.884 61.5823 276.726 61.5823ZM270.88 84.6218C268.817 84.6218 267.442 82.5585 267.442 79.8076C267.442 77.0566 269.161 74.9933 270.88 74.9933C272.944 74.9933 274.319 77.0566 274.319 79.8076C274.319 82.5585 272.944 84.6218 270.88 84.6218ZM290.137 80.1514C289.449 77.0566 287.73 72.5862 282.572 70.1791C276.382 67.4281 271.568 67.0842 267.785 68.4597C270.193 66.0526 273.631 64.6771 277.07 64.6771C280.853 64.6771 288.418 66.3965 291.513 72.5862C292.2 73.9617 291.513 77.0566 290.137 80.1514Z" fill="black"/>
</svg>
