<svg xmlns="http://www.w3.org/2000/svg" viewBox="0 0 580 580"><defs><style>.cls-1{isolation:isolate;}.cls-2{mix-blend-mode:multiply;}.cls-3{fill:#cd0f2d;}</style></defs><title>LY_NIM-2020002_WEBSITE_SVG</title><g class="cls-1"><g id="Ebene_1" data-name="Ebene 1"><g class="cls-2"><path class="cls-3" d="M289.62,405.36a21.31,21.31,0,0,0,14.88-6.3L493,209.82a20.67,20.67,0,0,0,.45-29.33c-3.68-3.68-8.72-5.65-14.9-5.85a21.13,21.13,0,0,0-14.46,6.3L290.3,355.27,116.3,181a19.06,19.06,0,0,0-14.09-5.82,21.48,21.48,0,0,0-15.3,6.27v0a21.15,21.15,0,0,0-6.27,14.88,20.16,20.16,0,0,0,5.88,14.48L275.17,399.51a19.93,19.93,0,0,0,14.45,5.85"/></g></g></g></svg>