<svg xmlns="http://www.w3.org/2000/svg" width="30" height="30" viewBox="0 0 30 30">
  <path fill="#222" d="M1,15 C1,22.7331601 7.26736558,29 15,29 C22.7331601,29 29,22.7326344 29,15 C29,7.26683989 22.7326344,1 15,1 C7.26683989,1 1,7.26736558 1,15 Z M0,15 C0,6.71572875 6.71390727,0 15,0 C23.2842712,0 30,6.71390727 30,15 C30,23.2842712 23.2860927,30 15,30 C6.71572875,30 0,23.2860927 0,15 Z M19,9.12 L19,6 L16.16,6 C13.8,6 12.04,8 12.04,10.48 L12.04,12.2 L9,12.2 L9,15.16 L12.04,15.16 L12.04,24 L15.44,24 L15.44,15.16 L19,15.16 L19,12.2 L15.44,12.2 L15.44,10.16 C15.44,9.56 15.8,9.12 16.16,9.12 L19,9.12 Z"/>
</svg>
