<svg xmlns="http://www.w3.org/2000/svg" width="24" height="24" viewBox="0 0 24 24">
  <g fill="none">
    <path fill="#FFDA44" d="M0.746390625,16.1738906 C2.44190625,20.7434531 6.84042188,24 12,24 C17.1595781,24 21.5580937,20.7434531 23.2536094,16.1738906 L12,15.1304531 L0.746390625,16.1738906 Z"/>
    <path fill="#000" d="M12,0 C6.84042188,0 2.44190625,3.2565 0.746390625,7.82610937 L12,8.86954688 L23.2536094,7.8260625 C21.5580937,3.2565 17.1595781,0 12,0 Z"/>
    <path fill="#D80027" d="M0.746390625,7.82610937 C0.264046875,9.12609375 0,10.5321562 0,12 C0,13.4678437 0.264046875,14.8739062 0.746390625,16.1738906 L23.2536562,16.1738906 C23.736,14.8739062 24,13.4678438 24,12 C24,10.5321562 23.736,9.12609375 23.2536094,7.82610937 L0.746390625,7.82610937 Z"/>
  </g>
</svg>
