<svg xmlns="http://www.w3.org/2000/svg" width="24" height="24" viewBox="0 0 24 24">
  <g fill="none">
    <path fill="#FFDA44" d="M0,12 C0,13.4678438 0.264046875,14.8739062 0.746390625,16.1738906 L12,17.217375 L23.2536094,16.1738906 C23.7359531,14.8739062 24,13.4678438 24,12 C24,10.5321562 23.7359531,9.12609375 23.2536094,7.82610938 L12,6.782625 L0.746390625,7.82610938 C0.264046875,9.12609375 0,10.5321562 0,12 Z"/>
    <g fill="#D80027" transform="translate(.703)">
      <path d="M22.5504844 7.82610937C20.8549687 3.25654688 16.4564531 0 11.296875 0 6.13729687 0 1.73878125 3.25654688.043265625 7.82610937L22.5504844 7.82610937zM.043265625 16.1738906C1.73878125 20.7434531 6.13729688 24 11.296875 24 16.4564531 24 20.8549687 20.7434531 22.5504844 16.1738906L.043265625 16.1738906z"/>
    </g>
  </g>
</svg>
