<svg xmlns="http://www.w3.org/2000/svg" width="24" height="24" viewBox="0 0 24 24">
  <g fill="none">
    <circle cx="12" cy="12" r="12" fill="#F0F0F0"/>
    <g fill="#338AF3">
      <path d="M12 8.86954688L23.5866094 8.86954688C23.2857188 7.75326563 22.8284063 6.70134375 22.2387188 5.73909375L12 5.73909375 12 8.86954688zM4.53014062 21.3913125L19.4698125 21.3913125C20.5649531 20.5190625 21.5041406 19.4595937 22.2386719 18.2608594L1.76128125 18.2608594C2.49585937 19.4595469 3.43504688 20.5190625 4.53014062 21.3913125zM4.17389063 2.90339063C3.23048437 3.71578125 2.41490625 4.67245313 1.76128125 5.73914063L4.17389063 5.73914063 4.17389063 2.90339063z"/>
      <path d="M12 12C12 10.7776875 12 9.75473437 12 8.86954687L7.30434375 8.86954687 7.30434375 12 4.17389063 12 4.17389063 8.86954687.413390625 8.86954687C.144375 9.86770313 0 10.9168594 0 12 0 13.0831406.144375 14.1322969.413390625 15.1304531L23.5866563 15.1304531C23.855625 14.1322969 24 13.0831406 24 12L12 12zM12 0C10.3336406 0 8.7466875.339984375 7.30434375.9538125L7.30434375 5.73914063 12 5.73914063C12 4.64639062 12 3.717 12 2.6086875L19.4698594 2.6086875C17.4199688.976125 14.8241719 0 12 0z"/>
    </g>
  </g>
</svg>
