<svg xmlns="http://www.w3.org/2000/svg" width="24" height="24" viewBox="0 0 24 24">
  <g fill="none">
    <circle cx="12" cy="12" r="12" fill="#D80027"/>
    <g fill="#F0F0F0" transform="translate(3.328 6)">
      <polygon points="11.176 3 12.519 4.85 14.693 4.145 13.348 5.994 14.691 7.844 12.517 7.136 11.172 8.985 11.174 6.699 9 5.991 11.174 5.286"/>
      <path d="M7.4703196,10.4901875 C4.91631392,10.4901875 2.84580256,8.41967614 2.84580256,5.86567045 C2.84580256,3.31166477 4.91631392,1.24115341 7.4703196,1.24115341 C8.26664063,1.24115341 9.01591619,1.44256676 9.67007813,1.79700568 C8.64383523,0.793326705 7.24033381,0.1739375 5.69166903,0.1739375 C2.54818892,0.1739375 7.28306304e-14,2.72219034 7.28306304e-14,5.86560653 C7.28306304e-14,9.00902273 2.54825284,11.5572756 5.69166903,11.5572756 C7.24046165,11.5572756 8.64389915,10.9378224 9.67007813,9.93420739 C9.01591619,10.2887741 8.26664063,10.4901875 7.4703196,10.4901875 Z"/>
    </g>
  </g>
</svg>
