<svg width="20" height="20" viewBox="0 0 20 20" fill="none" xmlns="http://www.w3.org/2000/svg">
<path fill-rule="evenodd" clip-rule="evenodd" d="M10 0C4.47035 0 0 4.47035 0 10C0 15.5297 4.47035 20 10 20C15.5297 20 20 15.5297 20 10C20 4.47035 15.5297 0 10 0ZM6.9816 1.36196C6.45399 2.10225 6.00409 2.88344 5.62781 3.70143H3.35787C4.34765 2.6544 5.58691 1.84458 6.9816 1.36196ZM5.26789 4.55215H2.64213C1.59509 5.96728 0.948875 7.69734 0.862986 9.57464H4.26176C4.31084 7.84049 4.65031 6.14315 5.26789 4.55215ZM2.64213 15.4479C1.59509 14.0327 0.948875 12.3027 0.862986 10.4254H4.26176C4.31084 12.1595 4.66258 13.8569 5.28425 15.4479H2.64213ZM5.64826 16.2986H3.35787C4.35174 17.3497 5.59918 18.1636 6.99796 18.6462C6.47853 17.9059 6.02863 17.1166 5.64826 16.2986ZM9.57464 19.1411C9.14928 19.1207 8.72802 19.0716 8.31902 18.998C7.64008 18.1595 7.0593 17.2556 6.58896 16.3027H9.57464V19.1411ZM6.20041 15.4479H9.57464V10.4254H5.11247C5.16564 12.1636 5.54192 13.8609 6.20041 15.4479ZM9.57464 9.57464H5.11247C5.16564 7.84049 5.53783 6.13906 6.19223 4.55215H9.57464V9.57464ZM9.57464 3.70143H9.57873V0.862986C9.14928 0.883436 8.72802 0.928425 8.31902 1.00613C7.63599 1.8364 7.05521 2.74029 6.58078 3.70143H9.57464ZM17.3579 4.55215C18.4049 5.96728 19.0552 7.69325 19.137 9.57464H15.7382C15.6892 7.84049 15.3374 6.14315 14.7157 4.55215H17.3579ZM14.3517 3.70143H16.6421C15.6483 2.65031 14.4008 1.8364 12.998 1.35378C13.5215 2.09407 13.9714 2.88344 14.3517 3.70143ZM10.4254 0.862986C10.8507 0.883436 11.272 0.932515 11.681 1.00613C12.3599 1.84458 12.9407 2.74847 13.411 3.70143H10.4254V0.862986ZM13.7996 4.55215H10.4254V9.57464H14.8875C14.8344 7.8364 14.4581 6.13497 13.7996 4.55215ZM10.4254 10.4254H14.8875C14.8344 12.1595 14.4622 13.8609 13.8078 15.4479H10.4254V10.4254ZM10.4213 16.2986V19.137C10.8507 19.1166 11.272 19.0716 11.681 18.9939C12.364 18.1636 12.9448 17.2597 13.4192 16.2986H10.4254H10.4213ZM12.998 18.6462C13.5174 17.9059 13.9673 17.1166 14.3436 16.2986H16.6462C15.6483 17.3497 14.4008 18.1636 12.998 18.6462ZM15.7342 10.4254C15.6646 12.1595 15.317 13.8569 14.7035 15.4479H17.362C18.409 14.0327 19.0552 12.3027 19.1411 10.4254H15.7342Z" fill="currentColor"/>
</svg>
