<svg width="470" height="372" viewBox="0 0 470 372" fill="none" xmlns="http://www.w3.org/2000/svg">
<path d="M1.984 17.096C1.64267 17.096 1.36 16.984 1.136 16.76C0.912 16.5253 0.8 16.2373 0.8 15.896C0.8 15.5547 0.912 15.272 1.136 15.048C1.36 14.8133 1.64267 14.696 1.984 14.696C2.32533 14.696 2.608 14.8133 2.832 15.048C3.056 15.272 3.168 15.5547 3.168 15.896C3.168 16.2373 3.056 16.5253 2.832 16.76C2.608 16.984 2.32533 17.096 1.984 17.096ZM9.50475 8.984C10.1768 8.984 10.7741 9.15467 11.2968 9.496C11.8301 9.83733 12.2408 10.3227 12.5288 10.952C12.8274 11.5707 12.9768 12.2853 12.9768 13.096C12.9768 13.9067 12.8274 14.616 12.5288 15.224C12.2408 15.832 11.8354 16.3013 11.3128 16.632C10.7901 16.9627 10.1874 17.128 9.50475 17.128C8.95008 17.128 8.45408 17.0107 8.01675 16.776C7.57942 16.5413 7.24342 16.216 7.00875 15.8V19.064C7.00875 19.3413 6.91808 19.56 6.73675 19.72C6.55542 19.88 6.31542 19.96 6.01675 19.96C5.71808 19.96 5.47275 19.8747 5.28075 19.704C5.09942 19.5333 5.00875 19.3093 5.00875 19.032V9.96C5.00875 9.672 5.09408 9.44267 5.26475 9.272C5.44608 9.10133 5.68608 9.016 5.98475 9.016C6.28342 9.016 6.52342 9.10133 6.70475 9.272C6.88608 9.44267 6.97675 9.672 6.97675 9.96V10.36C7.21142 9.92267 7.54742 9.58667 7.98475 9.352C8.43275 9.10667 8.93942 8.984 9.50475 8.984ZM8.97675 15.576C9.60608 15.576 10.0968 15.3627 10.4488 14.936C10.8008 14.4987 10.9768 13.8853 10.9768 13.096C10.9768 12.2853 10.8008 11.656 10.4488 11.208C10.0968 10.76 9.60608 10.536 8.97675 10.536C8.33675 10.536 7.84075 10.7547 7.48875 11.192C7.14742 11.6293 6.97675 12.2533 6.97675 13.064C6.97675 13.864 7.14742 14.4827 7.48875 14.92C7.84075 15.3573 8.33675 15.576 8.97675 15.576ZM18.9861 9.016C19.2635 8.99467 19.4821 9.05333 19.6421 9.192C19.8021 9.33067 19.8821 9.53867 19.8821 9.816C19.8821 10.104 19.8128 10.3173 19.6741 10.456C19.5355 10.5947 19.2848 10.6853 18.9221 10.728L18.4421 10.776C17.8128 10.84 17.3488 11.0533 17.0501 11.416C16.7621 11.7787 16.6181 12.232 16.6181 12.776V16.136C16.6181 16.4453 16.5221 16.6853 16.3301 16.856C16.1381 17.016 15.8981 17.096 15.6101 17.096C15.3221 17.096 15.0821 17.016 14.8901 16.856C14.7088 16.6853 14.6181 16.4453 14.6181 16.136V9.944C14.6181 9.64533 14.7088 9.416 14.8901 9.256C15.0821 9.096 15.3168 9.016 15.5941 9.016C15.8715 9.016 16.0955 9.096 16.2661 9.256C16.4368 9.40533 16.5221 9.624 16.5221 9.912V10.552C16.7248 10.0827 17.0235 9.72 17.4181 9.464C17.8235 9.208 18.2715 9.064 18.7621 9.032L18.9861 9.016ZM21.7351 17.096C21.4471 17.096 21.2071 17.016 21.0151 16.856C20.8338 16.6853 20.7431 16.4453 20.7431 16.136V9.96C20.7431 9.65067 20.8338 9.416 21.0151 9.256C21.2071 9.096 21.4471 9.016 21.7351 9.016C22.0231 9.016 22.2631 9.096 22.4551 9.256C22.6471 9.416 22.7431 9.65067 22.7431 9.96V16.136C22.7431 16.4453 22.6471 16.6853 22.4551 16.856C22.2631 17.016 22.0231 17.096 21.7351 17.096ZM21.7351 7.592C21.3725 7.592 21.0845 7.496 20.8711 7.304C20.6578 7.10133 20.5511 6.84 20.5511 6.52C20.5511 6.2 20.6578 5.944 20.8711 5.752C21.0845 5.56 21.3725 5.464 21.7351 5.464C22.0871 5.464 22.3698 5.56 22.5831 5.752C22.8071 5.944 22.9191 6.2 22.9191 6.52C22.9191 6.84 22.8125 7.10133 22.5991 7.304C22.3858 7.496 22.0978 7.592 21.7351 7.592ZM34.1016 8.984C34.955 8.984 35.6056 9.24 36.0536 9.752C36.5123 10.2533 36.7416 11.0693 36.7416 12.2V16.136C36.7416 16.4453 36.6456 16.6853 36.4536 16.856C36.2723 17.016 36.0323 17.096 35.7336 17.096C35.4456 17.096 35.2056 17.016 35.0136 16.856C34.8323 16.6853 34.7416 16.4453 34.7416 16.136V12.2C34.7416 11.6133 34.635 11.1973 34.4216 10.952C34.219 10.696 33.9043 10.568 33.4776 10.568C32.955 10.568 32.539 10.7493 32.2296 11.112C31.9203 11.464 31.7656 11.9493 31.7656 12.568V16.136C31.7656 16.4453 31.6696 16.6853 31.4776 16.856C31.2963 17.016 31.0616 17.096 30.7736 17.096C30.4856 17.096 30.2456 17.016 30.0536 16.856C29.8616 16.6853 29.7656 16.4453 29.7656 16.136V12.2C29.7656 11.6133 29.659 11.1973 29.4456 10.952C29.243 10.696 28.9283 10.568 28.5016 10.568C27.979 10.568 27.563 10.7493 27.2536 11.112C26.955 11.464 26.8056 11.9493 26.8056 12.568V16.136C26.8056 16.4453 26.7096 16.6853 26.5176 16.856C26.3256 17.016 26.0856 17.096 25.7976 17.096C25.5096 17.096 25.2696 17.016 25.0776 16.856C24.8963 16.6853 24.8056 16.4453 24.8056 16.136V9.944C24.8056 9.64533 24.9016 9.416 25.0936 9.256C25.2856 9.096 25.5256 9.016 25.8136 9.016C26.091 9.016 26.315 9.096 26.4856 9.256C26.667 9.40533 26.7576 9.624 26.7576 9.912V10.296C27.003 9.86933 27.3283 9.544 27.7336 9.32C28.1496 9.096 28.6243 8.984 29.1576 8.984C30.331 8.984 31.115 9.47467 31.5096 10.456C31.7443 10.008 32.091 9.65067 32.5496 9.384C33.0083 9.11733 33.5256 8.984 34.1016 8.984ZM42.1664 8.984C43.2544 8.984 44.0597 9.256 44.5824 9.8C45.1157 10.3333 45.3824 11.1493 45.3824 12.248V16.152C45.3824 16.44 45.297 16.6693 45.1264 16.84C44.9557 17 44.721 17.08 44.4224 17.08C44.145 17.08 43.9157 16.9947 43.7344 16.824C43.5637 16.6533 43.4784 16.4293 43.4784 16.152V15.8C43.297 16.216 43.009 16.5413 42.6144 16.776C42.2304 17.0107 41.7824 17.128 41.2704 17.128C40.7477 17.128 40.273 17.0213 39.8464 16.808C39.4197 16.5947 39.0837 16.3013 38.8384 15.928C38.593 15.5547 38.4704 15.1387 38.4704 14.68C38.4704 14.104 38.6144 13.6507 38.9024 13.32C39.201 12.9893 39.681 12.7493 40.3424 12.6C41.0037 12.4507 41.9157 12.376 43.0784 12.376H43.4784V12.008C43.4784 11.4853 43.3664 11.1067 43.1424 10.872C42.9184 10.6267 42.5557 10.504 42.0544 10.504C41.745 10.504 41.4304 10.552 41.1104 10.648C40.7904 10.7333 40.4117 10.8613 39.9744 11.032C39.697 11.1707 39.4944 11.24 39.3664 11.24C39.1744 11.24 39.0144 11.1707 38.8864 11.032C38.769 10.8933 38.7104 10.712 38.7104 10.488C38.7104 10.3067 38.753 10.152 38.8384 10.024C38.9344 9.88533 39.089 9.75733 39.3024 9.64C39.6757 9.43733 40.1184 9.27733 40.6304 9.16C41.153 9.04267 41.665 8.984 42.1664 8.984ZM41.6704 15.688C42.2037 15.688 42.6357 15.512 42.9664 15.16C43.3077 14.7973 43.4784 14.3333 43.4784 13.768V13.432H43.1904C42.4757 13.432 41.921 13.464 41.5264 13.528C41.1317 13.592 40.849 13.704 40.6784 13.864C40.5077 14.024 40.4224 14.2427 40.4224 14.52C40.4224 14.8613 40.5397 15.144 40.7744 15.368C41.0197 15.5813 41.3184 15.688 41.6704 15.688ZM51.783 9.016C52.0603 8.99467 52.279 9.05333 52.439 9.192C52.599 9.33067 52.679 9.53867 52.679 9.816C52.679 10.104 52.6097 10.3173 52.471 10.456C52.3323 10.5947 52.0817 10.6853 51.719 10.728L51.239 10.776C50.6097 10.84 50.1457 11.0533 49.847 11.416C49.559 11.7787 49.415 12.232 49.415 12.776V16.136C49.415 16.4453 49.319 16.6853 49.127 16.856C48.935 17.016 48.695 17.096 48.407 17.096C48.119 17.096 47.879 17.016 47.687 16.856C47.5057 16.6853 47.415 16.4453 47.415 16.136V9.944C47.415 9.64533 47.5057 9.416 47.687 9.256C47.879 9.096 48.1137 9.016 48.391 9.016C48.6683 9.016 48.8923 9.096 49.063 9.256C49.2337 9.40533 49.319 9.624 49.319 9.912V10.552C49.5217 10.0827 49.8203 9.72 50.215 9.464C50.6203 9.208 51.0683 9.064 51.559 9.032L51.783 9.016ZM59.4804 9.592C59.5657 9.4 59.6777 9.26133 59.8164 9.176C59.9657 9.08 60.1257 9.032 60.2964 9.032C60.5417 9.032 60.7604 9.11733 60.9524 9.288C61.155 9.448 61.2564 9.65067 61.2564 9.896C61.2564 10.0133 61.2244 10.136 61.1604 10.264L56.7924 19.416C56.611 19.7787 56.3284 19.96 55.9444 19.96C55.699 19.96 55.4804 19.88 55.2884 19.72C55.107 19.5707 55.0164 19.3787 55.0164 19.144C55.0164 19.0267 55.0484 18.8933 55.1124 18.744L56.2004 16.456L53.2244 10.264C53.171 10.1573 53.1444 10.0347 53.1444 9.896C53.1444 9.65067 53.2457 9.44267 53.4484 9.272C53.6617 9.10133 53.9017 9.016 54.1684 9.016C54.3497 9.016 54.515 9.064 54.6644 9.16C54.8137 9.24533 54.931 9.384 55.0164 9.576L57.2564 14.52L59.4804 9.592Z" fill="black"/>
<rect x="104" width="366" height="50" fill="#0094FB"/>
<path d="M265.701 57.416L265.174 59.4902H266.609L267.143 57.416H268.08L267.547 59.4902H268.977V60.3867H267.33L266.756 62.6895H268.221V63.5859H266.527L265.918 66H264.98L265.596 63.5859H264.154L263.539 66H262.607L263.217 63.5859H261.705V62.6895H263.445L264.02 60.3867H262.461V59.4902H264.236L264.764 57.416H265.701ZM266.393 60.3867H264.957L264.383 62.6895H265.824L266.393 60.3867ZM272.533 57.123C273.467 57.123 274.172 57.5039 274.648 58.2656C275.129 59.0273 275.369 60.1543 275.369 61.6465C275.369 63.1387 275.129 64.2656 274.648 65.0273C274.172 65.7891 273.467 66.1699 272.533 66.1699C271.6 66.1699 270.895 65.7891 270.418 65.0273C269.941 64.2656 269.703 63.1387 269.703 61.6465C269.703 60.1543 269.941 59.0273 270.418 58.2656C270.895 57.5039 271.6 57.123 272.533 57.123ZM272.533 65.2324C273.088 65.2324 273.5 64.9375 273.77 64.3477C274.043 63.7578 274.18 62.8574 274.18 61.6465C274.18 61.002 274.141 60.4199 274.062 59.9004L271.273 64.2656C271.566 64.9102 271.986 65.2324 272.533 65.2324ZM272.533 58.0605C271.982 58.0605 271.57 58.3555 271.297 58.9453C271.027 59.5352 270.893 60.4355 270.893 61.6465C270.893 62.1973 270.93 62.7129 271.004 63.1934L273.734 58.8398C273.438 58.3203 273.037 58.0605 272.533 58.0605ZM279.764 57.123C280.697 57.123 281.402 57.5039 281.879 58.2656C282.359 59.0273 282.6 60.1543 282.6 61.6465C282.6 63.1387 282.359 64.2656 281.879 65.0273C281.402 65.7891 280.697 66.1699 279.764 66.1699C278.83 66.1699 278.125 65.7891 277.648 65.0273C277.172 64.2656 276.934 63.1387 276.934 61.6465C276.934 60.1543 277.172 59.0273 277.648 58.2656C278.125 57.5039 278.83 57.123 279.764 57.123ZM279.764 65.2324C280.318 65.2324 280.73 64.9375 281 64.3477C281.273 63.7578 281.41 62.8574 281.41 61.6465C281.41 61.002 281.371 60.4199 281.293 59.9004L278.504 64.2656C278.797 64.9102 279.217 65.2324 279.764 65.2324ZM279.764 58.0605C279.213 58.0605 278.801 58.3555 278.527 58.9453C278.258 59.5352 278.123 60.4355 278.123 61.6465C278.123 62.1973 278.16 62.7129 278.234 63.1934L280.965 58.8398C280.668 58.3203 280.268 58.0605 279.764 58.0605ZM284.199 57.252H289.707V57.7559L286.578 66H285.342L288.389 58.248H284.199V57.252ZM292.777 61.5879V65.0273H294.178C294.865 65.0273 295.355 64.9082 295.648 64.6699C295.941 64.4277 296.088 64.0312 296.088 63.4805C296.088 62.7539 295.934 62.2578 295.625 61.9922C295.316 61.7227 294.834 61.5879 294.178 61.5879H292.777ZM292.777 58.2246V60.627H294.154C294.725 60.627 295.137 60.5176 295.391 60.2988C295.648 60.0801 295.777 59.8047 295.777 59.4727C295.777 59.0312 295.65 58.7129 295.396 58.5176C295.146 58.3223 294.732 58.2246 294.154 58.2246H292.777ZM291.588 57.252H294.178C295.072 57.252 295.762 57.4453 296.246 57.832C296.73 58.2188 296.973 58.7656 296.973 59.4727C296.973 59.8516 296.844 60.1953 296.586 60.5039C296.332 60.8125 295.949 61.0059 295.438 61.084C296.012 61.1699 296.461 61.416 296.785 61.8223C297.113 62.2246 297.277 62.8164 297.277 63.5977C297.277 64.3906 297.018 64.9902 296.498 65.3965C295.979 65.7988 295.205 66 294.178 66H291.588V57.252ZM304.074 56.8828V57.7793H302.85C302.463 57.7793 302.193 57.8594 302.041 58.0195C301.893 58.1758 301.818 58.4551 301.818 58.8574V59.4375H304.074V60.2754H301.818V66H300.74V60.2754H298.988V59.4375H300.74V58.9805C300.74 58.2617 300.904 57.7324 301.232 57.3926C301.564 57.0527 302.08 56.8828 302.779 56.8828H304.074ZM311.305 56.8828V57.7793H310.08C309.693 57.7793 309.424 57.8594 309.271 58.0195C309.123 58.1758 309.049 58.4551 309.049 58.8574V59.4375H311.305V60.2754H309.049V66H307.971V60.2754H306.219V59.4375H307.971V58.9805C307.971 58.2617 308.135 57.7324 308.463 57.3926C308.795 57.0527 309.311 56.8828 310.01 56.8828H311.305Z" fill="#909090"/>
<path d="M1.984 118.096C1.64267 118.096 1.36 117.984 1.136 117.76C0.912 117.525 0.8 117.237 0.8 116.896C0.8 116.555 0.912 116.272 1.136 116.048C1.36 115.813 1.64267 115.696 1.984 115.696C2.32533 115.696 2.608 115.813 2.832 116.048C3.056 116.272 3.168 116.555 3.168 116.896C3.168 117.237 3.056 117.525 2.832 117.76C2.608 117.984 2.32533 118.096 1.984 118.096ZM7.91888 118.128C6.75621 118.128 5.81754 117.899 5.10287 117.44C4.76154 117.237 4.59088 116.949 4.59088 116.576C4.59088 116.363 4.64954 116.192 4.76688 116.064C4.88421 115.925 5.02821 115.856 5.19888 115.856C5.38021 115.856 5.63088 115.941 5.95088 116.112C6.29221 116.272 6.60154 116.395 6.87888 116.48C7.16688 116.565 7.52954 116.608 7.96688 116.608C8.41488 116.608 8.76154 116.533 9.00688 116.384C9.26288 116.235 9.39088 116.027 9.39088 115.76C9.39088 115.579 9.33754 115.435 9.23088 115.328C9.13488 115.221 8.95354 115.125 8.68688 115.04C8.43088 114.944 8.03621 114.837 7.50288 114.72C6.55354 114.528 5.87088 114.256 5.45488 113.904C5.04954 113.552 4.84688 113.067 4.84688 112.448C4.84688 111.979 4.98554 111.557 5.26288 111.184C5.54021 110.8 5.91888 110.507 6.39887 110.304C6.88954 110.091 7.44421 109.984 8.06288 109.984C8.51088 109.984 8.94288 110.043 9.35888 110.16C9.77488 110.267 10.1482 110.427 10.4789 110.64C10.8202 110.853 10.9909 111.136 10.9909 111.488C10.9909 111.701 10.9322 111.883 10.8149 112.032C10.6975 112.171 10.5535 112.24 10.3829 112.24C10.2655 112.24 10.1482 112.219 10.0309 112.176C9.92421 112.123 9.78554 112.048 9.61488 111.952C9.30554 111.792 9.03888 111.675 8.81488 111.6C8.59088 111.515 8.31354 111.472 7.98288 111.472C7.58821 111.472 7.27354 111.552 7.03888 111.712C6.81488 111.872 6.70288 112.091 6.70288 112.368C6.70288 112.635 6.82021 112.837 7.05488 112.976C7.28954 113.115 7.74288 113.253 8.41488 113.392C9.12954 113.541 9.68954 113.712 10.0949 113.904C10.5002 114.096 10.7882 114.336 10.9589 114.624C11.1402 114.912 11.2309 115.28 11.2309 115.728C11.2309 116.453 10.9269 117.035 10.3189 117.472C9.72154 117.909 8.92154 118.128 7.91888 118.128ZM19.0445 115.856C19.2258 115.856 19.3698 115.925 19.4765 116.064C19.5938 116.203 19.6525 116.389 19.6525 116.624C19.6525 116.955 19.4552 117.232 19.0605 117.456C18.6978 117.659 18.2872 117.824 17.8285 117.952C17.3698 118.069 16.9325 118.128 16.5165 118.128C15.2578 118.128 14.2605 117.765 13.5245 117.04C12.7885 116.315 12.4205 115.323 12.4205 114.064C12.4205 113.264 12.5805 112.555 12.9005 111.936C13.2205 111.317 13.6685 110.837 14.2445 110.496C14.8312 110.155 15.4925 109.984 16.2285 109.984C16.9325 109.984 17.5458 110.139 18.0685 110.448C18.5912 110.757 18.9965 111.195 19.2845 111.76C19.5725 112.325 19.7165 112.992 19.7165 113.76C19.7165 114.219 19.5138 114.448 19.1085 114.448H14.3885C14.4525 115.184 14.6605 115.728 15.0125 116.08C15.3645 116.421 15.8765 116.592 16.5485 116.592C16.8898 116.592 17.1885 116.549 17.4445 116.464C17.7112 116.379 18.0098 116.261 18.3405 116.112C18.6605 115.941 18.8952 115.856 19.0445 115.856ZM16.2765 111.392C15.7325 111.392 15.2952 111.563 14.9645 111.904C14.6445 112.245 14.4525 112.736 14.3885 113.376H18.0045C17.9832 112.725 17.8232 112.235 17.5245 111.904C17.2258 111.563 16.8098 111.392 16.2765 111.392ZM24.8245 118.128C24.0458 118.128 23.3578 117.963 22.7605 117.632C22.1738 117.301 21.7205 116.832 21.4005 116.224C21.0805 115.616 20.9205 114.907 20.9205 114.096C20.9205 113.285 21.0858 112.571 21.4165 111.952C21.7578 111.323 22.2325 110.837 22.8405 110.496C23.4485 110.155 24.1472 109.984 24.9365 109.984C25.3525 109.984 25.7685 110.043 26.1845 110.16C26.6112 110.277 26.9845 110.437 27.3045 110.64C27.6458 110.864 27.8165 111.147 27.8165 111.488C27.8165 111.723 27.7578 111.915 27.6405 112.064C27.5338 112.203 27.3898 112.272 27.2085 112.272C27.0912 112.272 26.9685 112.245 26.8405 112.192C26.7125 112.139 26.5845 112.075 26.4565 112C26.2218 111.861 25.9978 111.755 25.7845 111.68C25.5712 111.595 25.3258 111.552 25.0485 111.552C24.3872 111.552 23.8752 111.771 23.5125 112.208C23.1605 112.635 22.9845 113.253 22.9845 114.064C22.9845 114.864 23.1605 115.483 23.5125 115.92C23.8752 116.347 24.3872 116.56 25.0485 116.56C25.3152 116.56 25.5498 116.523 25.7525 116.448C25.9658 116.363 26.2005 116.251 26.4565 116.112C26.6165 116.016 26.7552 115.947 26.8725 115.904C26.9898 115.851 27.1072 115.824 27.2245 115.824C27.3952 115.824 27.5392 115.899 27.6565 116.048C27.7738 116.197 27.8325 116.384 27.8325 116.608C27.8325 116.789 27.7898 116.949 27.7045 117.088C27.6298 117.216 27.5018 117.333 27.3205 117.44C26.9898 117.653 26.6058 117.824 26.1685 117.952C25.7312 118.069 25.2832 118.128 24.8245 118.128ZM32.733 118.128C31.933 118.128 31.229 117.963 30.621 117.632C30.0237 117.301 29.5597 116.827 29.229 116.208C28.8983 115.589 28.733 114.869 28.733 114.048C28.733 113.227 28.8983 112.512 29.229 111.904C29.5597 111.285 30.0237 110.811 30.621 110.48C31.229 110.149 31.933 109.984 32.733 109.984C33.533 109.984 34.2317 110.149 34.829 110.48C35.437 110.811 35.901 111.285 36.221 111.904C36.5517 112.512 36.717 113.227 36.717 114.048C36.717 114.869 36.5517 115.589 36.221 116.208C35.901 116.827 35.437 117.301 34.829 117.632C34.2317 117.963 33.533 118.128 32.733 118.128ZM32.717 116.576C33.3677 116.576 33.8637 116.363 34.205 115.936C34.5463 115.509 34.717 114.88 34.717 114.048C34.717 113.227 34.5463 112.603 34.205 112.176C33.8637 111.739 33.373 111.52 32.733 111.52C32.093 111.52 31.597 111.739 31.245 112.176C30.9037 112.603 30.733 113.227 30.733 114.048C30.733 114.88 30.9037 115.509 31.245 115.936C31.5863 116.363 32.077 116.576 32.717 116.576ZM42.9121 109.984C43.8508 109.984 44.5495 110.251 45.0081 110.784C45.4668 111.317 45.6961 112.123 45.6961 113.2V117.136C45.6961 117.435 45.6055 117.669 45.4241 117.84C45.2535 118.011 45.0135 118.096 44.7041 118.096C44.3948 118.096 44.1495 118.011 43.9681 117.84C43.7868 117.669 43.6961 117.435 43.6961 117.136V113.312C43.6961 112.704 43.5788 112.261 43.3441 111.984C43.1201 111.707 42.7628 111.568 42.2721 111.568C41.6961 111.568 41.2321 111.749 40.8801 112.112C40.5388 112.475 40.3681 112.96 40.3681 113.568V117.136C40.3681 117.435 40.2775 117.669 40.0961 117.84C39.9148 118.011 39.6695 118.096 39.3601 118.096C39.0508 118.096 38.8055 118.011 38.6241 117.84C38.4535 117.669 38.3681 117.435 38.3681 117.136V110.944C38.3681 110.667 38.4588 110.443 38.6401 110.272C38.8215 110.101 39.0668 110.016 39.3761 110.016C39.6535 110.016 39.8775 110.101 40.0481 110.272C40.2295 110.432 40.3201 110.645 40.3201 110.912V111.344C40.5868 110.907 40.9441 110.571 41.3921 110.336C41.8401 110.101 42.3468 109.984 42.9121 109.984ZM54.2555 106.64C54.5542 106.64 54.7995 106.725 54.9915 106.896C55.1835 107.067 55.2795 107.291 55.2795 107.568V117.136C55.2795 117.424 55.1888 117.653 55.0075 117.824C54.8262 117.995 54.5862 118.08 54.2875 118.08C53.9888 118.08 53.7488 117.995 53.5675 117.824C53.3862 117.653 53.2955 117.424 53.2955 117.136V116.736C53.0608 117.173 52.7195 117.515 52.2715 117.76C51.8342 118.005 51.3328 118.128 50.7675 118.128C50.0955 118.128 49.4928 117.957 48.9595 117.616C48.4368 117.275 48.0262 116.795 47.7275 116.176C47.4395 115.547 47.2955 114.827 47.2955 114.016C47.2955 113.205 47.4395 112.496 47.7275 111.888C48.0262 111.28 48.4368 110.811 48.9595 110.48C49.4822 110.149 50.0848 109.984 50.7675 109.984C51.3328 109.984 51.8342 110.101 52.2715 110.336C52.7088 110.571 53.0448 110.901 53.2795 111.328V107.536C53.2795 107.269 53.3648 107.056 53.5355 106.896C53.7168 106.725 53.9568 106.64 54.2555 106.64ZM51.2955 116.576C51.9355 116.576 52.4262 116.357 52.7675 115.92C53.1195 115.483 53.2955 114.859 53.2955 114.048C53.2955 113.237 53.1195 112.619 52.7675 112.192C52.4262 111.755 51.9408 111.536 51.3115 111.536C50.6715 111.536 50.1755 111.749 49.8235 112.176C49.4715 112.603 49.2955 113.216 49.2955 114.016C49.2955 114.827 49.4715 115.456 49.8235 115.904C50.1755 116.352 50.6662 116.576 51.2955 116.576ZM60.7289 109.984C61.8169 109.984 62.6222 110.256 63.1449 110.8C63.6782 111.333 63.9449 112.149 63.9449 113.248V117.152C63.9449 117.44 63.8595 117.669 63.6889 117.84C63.5182 118 63.2835 118.08 62.9849 118.08C62.7075 118.08 62.4782 117.995 62.2969 117.824C62.1262 117.653 62.0409 117.429 62.0409 117.152V116.8C61.8595 117.216 61.5715 117.541 61.1769 117.776C60.7929 118.011 60.3449 118.128 59.8329 118.128C59.3102 118.128 58.8355 118.021 58.4089 117.808C57.9822 117.595 57.6462 117.301 57.4009 116.928C57.1555 116.555 57.0329 116.139 57.0329 115.68C57.0329 115.104 57.1769 114.651 57.4649 114.32C57.7635 113.989 58.2435 113.749 58.9049 113.6C59.5662 113.451 60.4782 113.376 61.6409 113.376H62.0409V113.008C62.0409 112.485 61.9289 112.107 61.7049 111.872C61.4809 111.627 61.1182 111.504 60.6169 111.504C60.3075 111.504 59.9929 111.552 59.6729 111.648C59.3529 111.733 58.9742 111.861 58.5369 112.032C58.2595 112.171 58.0569 112.24 57.9289 112.24C57.7369 112.24 57.5769 112.171 57.4489 112.032C57.3315 111.893 57.2729 111.712 57.2729 111.488C57.2729 111.307 57.3155 111.152 57.4009 111.024C57.4969 110.885 57.6515 110.757 57.8649 110.64C58.2382 110.437 58.6809 110.277 59.1929 110.16C59.7155 110.043 60.2275 109.984 60.7289 109.984ZM60.2329 116.688C60.7662 116.688 61.1982 116.512 61.5289 116.16C61.8702 115.797 62.0409 115.333 62.0409 114.768V114.432H61.7529C61.0382 114.432 60.4835 114.464 60.0889 114.528C59.6942 114.592 59.4115 114.704 59.2409 114.864C59.0702 115.024 58.9849 115.243 58.9849 115.52C58.9849 115.861 59.1022 116.144 59.3369 116.368C59.5822 116.581 59.8809 116.688 60.2329 116.688ZM70.3455 110.016C70.6228 109.995 70.8415 110.053 71.0015 110.192C71.1615 110.331 71.2415 110.539 71.2415 110.816C71.2415 111.104 71.1722 111.317 71.0335 111.456C70.8948 111.595 70.6442 111.685 70.2815 111.728L69.8015 111.776C69.1722 111.84 68.7082 112.053 68.4095 112.416C68.1215 112.779 67.9775 113.232 67.9775 113.776V117.136C67.9775 117.445 67.8815 117.685 67.6895 117.856C67.4975 118.016 67.2575 118.096 66.9695 118.096C66.6815 118.096 66.4415 118.016 66.2495 117.856C66.0682 117.685 65.9775 117.445 65.9775 117.136V110.944C65.9775 110.645 66.0682 110.416 66.2495 110.256C66.4415 110.096 66.6762 110.016 66.9535 110.016C67.2308 110.016 67.4548 110.096 67.6255 110.256C67.7962 110.405 67.8815 110.624 67.8815 110.912V111.552C68.0842 111.083 68.3828 110.72 68.7775 110.464C69.1828 110.208 69.6308 110.064 70.1215 110.032L70.3455 110.016ZM78.0429 110.592C78.1282 110.4 78.2402 110.261 78.3789 110.176C78.5282 110.08 78.6882 110.032 78.8589 110.032C79.1042 110.032 79.3229 110.117 79.5149 110.288C79.7175 110.448 79.8189 110.651 79.8189 110.896C79.8189 111.013 79.7869 111.136 79.7229 111.264L75.3549 120.416C75.1735 120.779 74.8909 120.96 74.5069 120.96C74.2615 120.96 74.0429 120.88 73.8509 120.72C73.6695 120.571 73.5789 120.379 73.5789 120.144C73.5789 120.027 73.6109 119.893 73.6749 119.744L74.7629 117.456L71.7869 111.264C71.7335 111.157 71.7069 111.035 71.7069 110.896C71.7069 110.651 71.8082 110.443 72.0109 110.272C72.2242 110.101 72.4642 110.016 72.7309 110.016C72.9122 110.016 73.0775 110.064 73.2269 110.16C73.3762 110.245 73.4935 110.384 73.5789 110.576L75.8189 115.52L78.0429 110.592Z" fill="black"/>
<rect x="104" y="101" width="366" height="50" fill="#7E8890"/>
<path d="M265.701 158.416L265.174 160.49H266.609L267.143 158.416H268.08L267.547 160.49H268.977V161.387H267.33L266.756 163.689H268.221V164.586H266.527L265.918 167H264.98L265.596 164.586H264.154L263.539 167H262.607L263.217 164.586H261.705V163.689H263.445L264.02 161.387H262.461V160.49H264.236L264.764 158.416H265.701ZM266.393 161.387H264.957L264.383 163.689H265.824L266.393 161.387ZM274.73 158.445V159.535C274.484 159.391 274.223 159.281 273.945 159.207C273.668 159.129 273.379 159.09 273.078 159.09C272.328 159.09 271.76 159.373 271.373 159.939C270.986 160.502 270.793 161.332 270.793 162.43C270.98 162.039 271.24 161.74 271.572 161.533C271.904 161.322 272.285 161.217 272.715 161.217C273.559 161.217 274.211 161.477 274.672 161.996C275.137 162.512 275.369 163.244 275.369 164.193C275.369 165.139 275.131 165.871 274.654 166.391C274.178 166.91 273.508 167.17 272.645 167.17C271.629 167.17 270.885 166.807 270.412 166.08C269.939 165.35 269.703 164.201 269.703 162.635C269.703 161.158 269.986 160.033 270.553 159.26C271.123 158.482 271.947 158.094 273.025 158.094C273.314 158.094 273.604 158.125 273.893 158.188C274.182 158.246 274.461 158.332 274.73 158.445ZM272.621 162.143C272.117 162.143 271.721 162.324 271.432 162.688C271.143 163.051 270.998 163.553 270.998 164.193C270.998 164.834 271.143 165.336 271.432 165.699C271.721 166.062 272.117 166.244 272.621 166.244C273.145 166.244 273.539 166.072 273.805 165.729C274.07 165.381 274.203 164.869 274.203 164.193C274.203 163.514 274.07 163.002 273.805 162.658C273.539 162.314 273.145 162.143 272.621 162.143ZM282.441 166.689C282.141 166.85 281.832 166.969 281.516 167.047C281.199 167.129 280.863 167.17 280.508 167.17C279.387 167.17 278.516 166.773 277.895 165.98C277.277 165.188 276.969 164.072 276.969 162.635C276.969 161.205 277.279 160.092 277.9 159.295C278.525 158.494 279.395 158.094 280.508 158.094C280.863 158.094 281.199 158.135 281.516 158.217C281.832 158.295 282.141 158.414 282.441 158.574V159.787C282.152 159.549 281.842 159.367 281.51 159.242C281.178 159.117 280.844 159.055 280.508 159.055C279.738 159.055 279.162 159.352 278.779 159.945C278.396 160.539 278.205 161.436 278.205 162.635C278.205 163.83 278.396 164.725 278.779 165.318C279.162 165.912 279.738 166.209 280.508 166.209C280.852 166.209 281.188 166.146 281.516 166.021C281.848 165.896 282.156 165.715 282.441 165.477V166.689ZM284.199 158.252H289.707V158.756L286.578 167H285.342L288.389 159.248H284.199V158.252ZM291.828 158.252H296.258V159.248H292.906V161.398C293.074 161.336 293.242 161.291 293.41 161.264C293.582 161.232 293.754 161.217 293.926 161.217C294.832 161.217 295.551 161.484 296.082 162.02C296.613 162.555 296.879 163.279 296.879 164.193C296.879 165.115 296.6 165.842 296.041 166.373C295.486 166.904 294.727 167.17 293.762 167.17C293.297 167.17 292.871 167.139 292.484 167.076C292.102 167.014 291.758 166.92 291.453 166.795V165.594C291.812 165.789 292.174 165.936 292.537 166.033C292.9 166.127 293.271 166.174 293.65 166.174C294.303 166.174 294.805 166.002 295.156 165.658C295.512 165.314 295.689 164.826 295.689 164.193C295.689 163.568 295.506 163.082 295.139 162.734C294.775 162.387 294.268 162.213 293.615 162.213C293.299 162.213 292.99 162.25 292.689 162.324C292.389 162.395 292.102 162.502 291.828 162.646V158.252ZM298.66 158.252H304.168V158.756L301.039 167H299.803L302.85 159.248H298.66V158.252ZM307.631 166.027C308.627 166.027 309.322 165.783 309.717 165.295C310.111 164.803 310.309 163.916 310.309 162.635C310.309 161.342 310.111 160.451 309.717 159.963C309.326 159.471 308.631 159.225 307.631 159.225H307.068V166.027H307.631ZM307.654 158.252C308.99 158.252 309.975 158.607 310.607 159.318C311.24 160.029 311.557 161.135 311.557 162.635C311.557 164.127 311.24 165.229 310.607 165.939C309.975 166.646 308.99 167 307.654 167H305.879V158.252H307.654Z" fill="#909090"/>
<path d="M1.984 219.096C1.64267 219.096 1.36 218.984 1.136 218.76C0.912 218.525 0.8 218.237 0.8 217.896C0.8 217.555 0.912 217.272 1.136 217.048C1.36 216.813 1.64267 216.696 1.984 216.696C2.32533 216.696 2.608 216.813 2.832 217.048C3.056 217.272 3.168 217.555 3.168 217.896C3.168 218.237 3.056 218.525 2.832 218.76C2.608 218.984 2.32533 219.096 1.984 219.096ZM7.91888 219.128C6.75621 219.128 5.81754 218.899 5.10287 218.44C4.76154 218.237 4.59088 217.949 4.59088 217.576C4.59088 217.363 4.64954 217.192 4.76688 217.064C4.88421 216.925 5.02821 216.856 5.19888 216.856C5.38021 216.856 5.63088 216.941 5.95088 217.112C6.29221 217.272 6.60154 217.395 6.87888 217.48C7.16688 217.565 7.52954 217.608 7.96688 217.608C8.41488 217.608 8.76154 217.533 9.00688 217.384C9.26288 217.235 9.39088 217.027 9.39088 216.76C9.39088 216.579 9.33754 216.435 9.23088 216.328C9.13488 216.221 8.95354 216.125 8.68688 216.04C8.43088 215.944 8.03621 215.837 7.50288 215.72C6.55354 215.528 5.87088 215.256 5.45488 214.904C5.04954 214.552 4.84688 214.067 4.84688 213.448C4.84688 212.979 4.98554 212.557 5.26288 212.184C5.54021 211.8 5.91888 211.507 6.39887 211.304C6.88954 211.091 7.44421 210.984 8.06288 210.984C8.51088 210.984 8.94288 211.043 9.35888 211.16C9.77488 211.267 10.1482 211.427 10.4789 211.64C10.8202 211.853 10.9909 212.136 10.9909 212.488C10.9909 212.701 10.9322 212.883 10.8149 213.032C10.6975 213.171 10.5535 213.24 10.3829 213.24C10.2655 213.24 10.1482 213.219 10.0309 213.176C9.92421 213.123 9.78554 213.048 9.61488 212.952C9.30554 212.792 9.03888 212.675 8.81488 212.6C8.59088 212.515 8.31354 212.472 7.98288 212.472C7.58821 212.472 7.27354 212.552 7.03888 212.712C6.81488 212.872 6.70288 213.091 6.70288 213.368C6.70288 213.635 6.82021 213.837 7.05488 213.976C7.28954 214.115 7.74288 214.253 8.41488 214.392C9.12954 214.541 9.68954 214.712 10.0949 214.904C10.5002 215.096 10.7882 215.336 10.9589 215.624C11.1402 215.912 11.2309 216.28 11.2309 216.728C11.2309 217.453 10.9269 218.035 10.3189 218.472C9.72154 218.909 8.92154 219.128 7.91888 219.128ZM19.0285 211.016C19.3378 211.016 19.5832 211.101 19.7645 211.272C19.9458 211.443 20.0365 211.672 20.0365 211.96V218.168C20.0365 218.445 19.9405 218.669 19.7485 218.84C19.5672 219.011 19.3272 219.096 19.0285 219.096C18.7405 219.096 18.5112 219.016 18.3405 218.856C18.1698 218.696 18.0845 218.477 18.0845 218.2V217.8C17.8392 218.227 17.5085 218.557 17.0925 218.792C16.6765 219.016 16.2072 219.128 15.6845 219.128C13.7645 219.128 12.8045 218.051 12.8045 215.896V211.96C12.8045 211.672 12.8952 211.443 13.0765 211.272C13.2578 211.101 13.4978 211.016 13.7965 211.016C14.1058 211.016 14.3512 211.101 14.5325 211.272C14.7138 211.443 14.8045 211.672 14.8045 211.96V215.912C14.8045 216.467 14.9165 216.877 15.1405 217.144C15.3645 217.411 15.7165 217.544 16.1965 217.544C16.7512 217.544 17.1938 217.363 17.5245 217C17.8658 216.627 18.0365 216.136 18.0365 215.528V211.96C18.0365 211.672 18.1272 211.443 18.3085 211.272C18.4898 211.101 18.7298 211.016 19.0285 211.016ZM25.5901 219.128C24.8115 219.128 24.1235 218.963 23.5261 218.632C22.9395 218.301 22.4861 217.832 22.1661 217.224C21.8461 216.616 21.6861 215.907 21.6861 215.096C21.6861 214.285 21.8515 213.571 22.1821 212.952C22.5235 212.323 22.9981 211.837 23.6061 211.496C24.2141 211.155 24.9128 210.984 25.7021 210.984C26.1181 210.984 26.5341 211.043 26.9501 211.16C27.3768 211.277 27.7501 211.437 28.0701 211.64C28.4115 211.864 28.5821 212.147 28.5821 212.488C28.5821 212.723 28.5235 212.915 28.4061 213.064C28.2995 213.203 28.1555 213.272 27.9741 213.272C27.8568 213.272 27.7341 213.245 27.6061 213.192C27.4781 213.139 27.3501 213.075 27.2221 213C26.9875 212.861 26.7635 212.755 26.5501 212.68C26.3368 212.595 26.0915 212.552 25.8141 212.552C25.1528 212.552 24.6408 212.771 24.2781 213.208C23.9261 213.635 23.7501 214.253 23.7501 215.064C23.7501 215.864 23.9261 216.483 24.2781 216.92C24.6408 217.347 25.1528 217.56 25.8141 217.56C26.0808 217.56 26.3155 217.523 26.5181 217.448C26.7315 217.363 26.9661 217.251 27.2221 217.112C27.3821 217.016 27.5208 216.947 27.6381 216.904C27.7555 216.851 27.8728 216.824 27.9901 216.824C28.1608 216.824 28.3048 216.899 28.4221 217.048C28.5395 217.197 28.5981 217.384 28.5981 217.608C28.5981 217.789 28.5555 217.949 28.4701 218.088C28.3955 218.216 28.2675 218.333 28.0861 218.44C27.7555 218.653 27.3715 218.824 26.9341 218.952C26.4968 219.069 26.0488 219.128 25.5901 219.128ZM33.4026 219.128C32.624 219.128 31.936 218.963 31.3386 218.632C30.752 218.301 30.2986 217.832 29.9786 217.224C29.6586 216.616 29.4986 215.907 29.4986 215.096C29.4986 214.285 29.664 213.571 29.9946 212.952C30.336 212.323 30.8106 211.837 31.4186 211.496C32.0266 211.155 32.7253 210.984 33.5146 210.984C33.9306 210.984 34.3466 211.043 34.7626 211.16C35.1893 211.277 35.5626 211.437 35.8826 211.64C36.224 211.864 36.3946 212.147 36.3946 212.488C36.3946 212.723 36.336 212.915 36.2186 213.064C36.112 213.203 35.968 213.272 35.7866 213.272C35.6693 213.272 35.5466 213.245 35.4186 213.192C35.2906 213.139 35.1626 213.075 35.0346 213C34.8 212.861 34.576 212.755 34.3626 212.68C34.1493 212.595 33.904 212.552 33.6266 212.552C32.9653 212.552 32.4533 212.771 32.0906 213.208C31.7386 213.635 31.5626 214.253 31.5626 215.064C31.5626 215.864 31.7386 216.483 32.0906 216.92C32.4533 217.347 32.9653 217.56 33.6266 217.56C33.8933 217.56 34.128 217.523 34.3306 217.448C34.544 217.363 34.7786 217.251 35.0346 217.112C35.1946 217.016 35.3333 216.947 35.4506 216.904C35.568 216.851 35.6853 216.824 35.8026 216.824C35.9733 216.824 36.1173 216.899 36.2346 217.048C36.352 217.197 36.4106 217.384 36.4106 217.608C36.4106 217.789 36.368 217.949 36.2826 218.088C36.208 218.216 36.08 218.333 35.8986 218.44C35.568 218.653 35.184 218.824 34.7466 218.952C34.3093 219.069 33.8613 219.128 33.4026 219.128ZM43.9351 216.856C44.1165 216.856 44.2605 216.925 44.3671 217.064C44.4845 217.203 44.5431 217.389 44.5431 217.624C44.5431 217.955 44.3458 218.232 43.9511 218.456C43.5885 218.659 43.1778 218.824 42.7191 218.952C42.2605 219.069 41.8231 219.128 41.4071 219.128C40.1485 219.128 39.1511 218.765 38.4151 218.04C37.6791 217.315 37.3111 216.323 37.3111 215.064C37.3111 214.264 37.4711 213.555 37.7911 212.936C38.1111 212.317 38.5591 211.837 39.1351 211.496C39.7218 211.155 40.3831 210.984 41.1191 210.984C41.8231 210.984 42.4365 211.139 42.9591 211.448C43.4818 211.757 43.8871 212.195 44.1751 212.76C44.4631 213.325 44.6071 213.992 44.6071 214.76C44.6071 215.219 44.4045 215.448 43.9991 215.448H39.2791C39.3431 216.184 39.5511 216.728 39.9031 217.08C40.2551 217.421 40.7671 217.592 41.4391 217.592C41.7805 217.592 42.0791 217.549 42.3351 217.464C42.6018 217.379 42.9005 217.261 43.2311 217.112C43.5511 216.941 43.7858 216.856 43.9351 216.856ZM41.1671 212.392C40.6231 212.392 40.1858 212.563 39.8551 212.904C39.5351 213.245 39.3431 213.736 39.2791 214.376H42.8951C42.8738 213.725 42.7138 213.235 42.4151 212.904C42.1165 212.563 41.7005 212.392 41.1671 212.392ZM49.0751 219.128C47.9125 219.128 46.9738 218.899 46.2591 218.44C45.9178 218.237 45.7471 217.949 45.7471 217.576C45.7471 217.363 45.8058 217.192 45.9231 217.064C46.0405 216.925 46.1845 216.856 46.3551 216.856C46.5365 216.856 46.7871 216.941 47.1071 217.112C47.4485 217.272 47.7578 217.395 48.0351 217.48C48.3231 217.565 48.6858 217.608 49.1231 217.608C49.5711 217.608 49.9178 217.533 50.1631 217.384C50.4191 217.235 50.5471 217.027 50.5471 216.76C50.5471 216.579 50.4938 216.435 50.3871 216.328C50.2911 216.221 50.1098 216.125 49.8431 216.04C49.5871 215.944 49.1925 215.837 48.6591 215.72C47.7098 215.528 47.0271 215.256 46.6111 214.904C46.2058 214.552 46.0031 214.067 46.0031 213.448C46.0031 212.979 46.1418 212.557 46.4191 212.184C46.6965 211.8 47.0751 211.507 47.5551 211.304C48.0458 211.091 48.6005 210.984 49.2191 210.984C49.6671 210.984 50.0991 211.043 50.5151 211.16C50.9311 211.267 51.3045 211.427 51.6351 211.64C51.9765 211.853 52.1471 212.136 52.1471 212.488C52.1471 212.701 52.0885 212.883 51.9711 213.032C51.8538 213.171 51.7098 213.24 51.5391 213.24C51.4218 213.24 51.3045 213.219 51.1871 213.176C51.0805 213.123 50.9418 213.048 50.7711 212.952C50.4618 212.792 50.1951 212.675 49.9711 212.6C49.7471 212.515 49.4698 212.472 49.1391 212.472C48.7445 212.472 48.4298 212.552 48.1951 212.712C47.9711 212.872 47.8591 213.091 47.8591 213.368C47.8591 213.635 47.9765 213.837 48.2111 213.976C48.4458 214.115 48.8991 214.253 49.5711 214.392C50.2858 214.541 50.8458 214.712 51.2511 214.904C51.6565 215.096 51.9445 215.336 52.1151 215.624C52.2965 215.912 52.3871 216.28 52.3871 216.728C52.3871 217.453 52.0831 218.035 51.4751 218.472C50.8778 218.909 50.0778 219.128 49.0751 219.128ZM56.8408 219.128C55.6781 219.128 54.7394 218.899 54.0247 218.44C53.6834 218.237 53.5128 217.949 53.5128 217.576C53.5128 217.363 53.5714 217.192 53.6888 217.064C53.8061 216.925 53.9501 216.856 54.1208 216.856C54.3021 216.856 54.5528 216.941 54.8728 217.112C55.2141 217.272 55.5234 217.395 55.8008 217.48C56.0888 217.565 56.4514 217.608 56.8888 217.608C57.3368 217.608 57.6834 217.533 57.9288 217.384C58.1848 217.235 58.3128 217.027 58.3128 216.76C58.3128 216.579 58.2594 216.435 58.1528 216.328C58.0568 216.221 57.8754 216.125 57.6088 216.04C57.3528 215.944 56.9581 215.837 56.4248 215.72C55.4754 215.528 54.7928 215.256 54.3768 214.904C53.9714 214.552 53.7688 214.067 53.7688 213.448C53.7688 212.979 53.9074 212.557 54.1848 212.184C54.4621 211.8 54.8408 211.507 55.3207 211.304C55.8114 211.091 56.3661 210.984 56.9848 210.984C57.4328 210.984 57.8648 211.043 58.2808 211.16C58.6968 211.267 59.0701 211.427 59.4008 211.64C59.7421 211.853 59.9128 212.136 59.9128 212.488C59.9128 212.701 59.8541 212.883 59.7368 213.032C59.6194 213.171 59.4754 213.24 59.3048 213.24C59.1874 213.24 59.0701 213.219 58.9528 213.176C58.8461 213.123 58.7074 213.048 58.5368 212.952C58.2274 212.792 57.9608 212.675 57.7368 212.6C57.5128 212.515 57.2354 212.472 56.9048 212.472C56.5101 212.472 56.1954 212.552 55.9608 212.712C55.7368 212.872 55.6248 213.091 55.6248 213.368C55.6248 213.635 55.7421 213.837 55.9768 213.976C56.2114 214.115 56.6648 214.253 57.3368 214.392C58.0514 214.541 58.6114 214.712 59.0168 214.904C59.4221 215.096 59.7101 215.336 59.8808 215.624C60.0621 215.912 60.1528 216.28 60.1528 216.728C60.1528 217.453 59.8488 218.035 59.2408 218.472C58.6434 218.909 57.8434 219.128 56.8408 219.128Z" fill="black"/>
<rect x="104" y="202" width="366" height="50" fill="#21B362"/>
<path d="M265.701 259.416L265.174 261.49H266.609L267.143 259.416H268.08L267.547 261.49H268.977V262.387H267.33L266.756 264.689H268.221V265.586H266.527L265.918 268H264.98L265.596 265.586H264.154L263.539 268H262.607L263.217 265.586H261.705V264.689H263.445L264.02 262.387H262.461V261.49H264.236L264.764 259.416H265.701ZM266.393 262.387H264.957L264.383 264.689H265.824L266.393 262.387ZM271.109 267.004H275.129V268H269.814V267.004C270.545 266.234 271.184 265.555 271.73 264.965C272.277 264.375 272.654 263.959 272.861 263.717C273.252 263.24 273.516 262.855 273.652 262.562C273.789 262.266 273.857 261.963 273.857 261.654C273.857 261.166 273.713 260.783 273.424 260.506C273.139 260.229 272.746 260.09 272.246 260.09C271.891 260.09 271.518 260.154 271.127 260.283C270.736 260.412 270.322 260.607 269.885 260.869V259.674C270.287 259.482 270.682 259.338 271.068 259.24C271.459 259.143 271.844 259.094 272.223 259.094C273.078 259.094 273.766 259.322 274.285 259.779C274.809 260.232 275.07 260.828 275.07 261.566C275.07 261.941 274.982 262.316 274.807 262.691C274.635 263.066 274.354 263.48 273.963 263.934C273.744 264.188 273.426 264.539 273.008 264.988C272.594 265.438 271.961 266.109 271.109 267.004ZM279.764 263.846C279.236 263.846 278.828 263.994 278.539 264.291C278.254 264.584 278.111 265 278.111 265.539C278.111 266.078 278.256 266.498 278.545 266.799C278.838 267.096 279.244 267.244 279.764 267.244C280.295 267.244 280.703 267.098 280.988 266.805C281.277 266.508 281.422 266.086 281.422 265.539C281.422 265.004 281.275 264.588 280.982 264.291C280.693 263.994 280.287 263.846 279.764 263.846ZM278.732 263.354C278.229 263.225 277.834 262.984 277.549 262.633C277.268 262.281 277.127 261.857 277.127 261.361C277.127 260.666 277.363 260.115 277.836 259.709C278.309 259.299 278.951 259.094 279.764 259.094C280.58 259.094 281.225 259.299 281.697 259.709C282.17 260.115 282.406 260.666 282.406 261.361C282.406 261.857 282.264 262.281 281.979 262.633C281.697 262.984 281.305 263.225 280.801 263.354C281.387 263.482 281.834 263.742 282.143 264.133C282.455 264.523 282.611 265.029 282.611 265.65C282.611 266.439 282.359 267.057 281.855 267.502C281.352 267.947 280.654 268.17 279.764 268.17C278.873 268.17 278.176 267.949 277.672 267.508C277.172 267.062 276.922 266.447 276.922 265.662C276.922 265.037 277.076 264.529 277.385 264.139C277.697 263.744 278.146 263.482 278.732 263.354ZM278.305 261.473C278.305 261.941 278.43 262.299 278.68 262.545C278.93 262.791 279.291 262.914 279.764 262.914C280.24 262.914 280.604 262.791 280.854 262.545C281.104 262.299 281.229 261.941 281.229 261.473C281.229 260.996 281.104 260.633 280.854 260.383C280.607 260.133 280.244 260.008 279.764 260.008C279.291 260.008 278.93 260.135 278.68 260.389C278.43 260.639 278.305 261 278.305 261.473ZM286.994 260.295L285.746 264.771H288.242L286.994 260.295ZM286.279 259.252H287.715L290.393 268H289.168L288.523 265.721H285.459L284.826 268H283.602L286.279 259.252ZM291.43 259.252H296.938V259.756L293.809 268H292.572L295.619 260.248H291.43V259.252ZM302.152 260.33L299.393 264.953H302.152V260.33ZM301.959 259.252H303.33V264.953H304.496V265.914H303.33V268H302.152V265.914H298.443V264.795L301.959 259.252ZM306.289 259.252H310.719V260.248H307.367V262.398C307.535 262.336 307.703 262.291 307.871 262.264C308.043 262.232 308.215 262.217 308.387 262.217C309.293 262.217 310.012 262.484 310.543 263.02C311.074 263.555 311.34 264.279 311.34 265.193C311.34 266.115 311.061 266.842 310.502 267.373C309.947 267.904 309.188 268.17 308.223 268.17C307.758 268.17 307.332 268.139 306.945 268.076C306.562 268.014 306.219 267.92 305.914 267.795V266.594C306.273 266.789 306.635 266.936 306.998 267.033C307.361 267.127 307.732 267.174 308.111 267.174C308.764 267.174 309.266 267.002 309.617 266.658C309.973 266.314 310.15 265.826 310.15 265.193C310.15 264.568 309.967 264.082 309.6 263.734C309.236 263.387 308.729 263.213 308.076 263.213C307.76 263.213 307.451 263.25 307.15 263.324C306.85 263.395 306.562 263.502 306.289 263.646V259.252Z" fill="#909090"/>
<path d="M1.984 320.096C1.64267 320.096 1.36 319.984 1.136 319.76C0.912 319.525 0.8 319.237 0.8 318.896C0.8 318.555 0.912 318.272 1.136 318.048C1.36 317.813 1.64267 317.696 1.984 317.696C2.32533 317.696 2.608 317.813 2.832 318.048C3.056 318.272 3.168 318.555 3.168 318.896C3.168 319.237 3.056 319.525 2.832 319.76C2.608 319.984 2.32533 320.096 1.984 320.096ZM6.00075 320.096C5.71275 320.096 5.47275 320.016 5.28075 319.856C5.09942 319.685 5.00875 319.445 5.00875 319.136V312.96C5.00875 312.651 5.09942 312.416 5.28075 312.256C5.47275 312.096 5.71275 312.016 6.00075 312.016C6.28875 312.016 6.52875 312.096 6.72075 312.256C6.91275 312.416 7.00875 312.651 7.00875 312.96V319.136C7.00875 319.445 6.91275 319.685 6.72075 319.856C6.52875 320.016 6.28875 320.096 6.00075 320.096ZM6.00075 310.592C5.63808 310.592 5.35008 310.496 5.13675 310.304C4.92342 310.101 4.81675 309.84 4.81675 309.52C4.81675 309.2 4.92342 308.944 5.13675 308.752C5.35008 308.56 5.63808 308.464 6.00075 308.464C6.35275 308.464 6.63542 308.56 6.84875 308.752C7.07275 308.944 7.18475 309.2 7.18475 309.52C7.18475 309.84 7.07808 310.101 6.86475 310.304C6.65142 310.496 6.36342 310.592 6.00075 310.592ZM13.6153 311.984C14.5539 311.984 15.2526 312.251 15.7113 312.784C16.1699 313.317 16.3993 314.123 16.3993 315.2V319.136C16.3993 319.435 16.3086 319.669 16.1273 319.84C15.9566 320.011 15.7166 320.096 15.4073 320.096C15.0979 320.096 14.8526 320.011 14.6713 319.84C14.4899 319.669 14.3993 319.435 14.3993 319.136V315.312C14.3993 314.704 14.2819 314.261 14.0473 313.984C13.8233 313.707 13.4659 313.568 12.9753 313.568C12.3993 313.568 11.9353 313.749 11.5833 314.112C11.2419 314.475 11.0713 314.96 11.0713 315.568V319.136C11.0713 319.435 10.9806 319.669 10.7993 319.84C10.6179 320.011 10.3726 320.096 10.0633 320.096C9.75392 320.096 9.50858 320.011 9.32725 319.84C9.15658 319.669 9.07125 319.435 9.07125 319.136V312.944C9.07125 312.667 9.16192 312.443 9.34325 312.272C9.52458 312.101 9.76992 312.016 10.0793 312.016C10.3566 312.016 10.5806 312.101 10.7513 312.272C10.9326 312.432 11.0233 312.645 11.0233 312.912V313.344C11.2899 312.907 11.6473 312.571 12.0953 312.336C12.5433 312.101 13.0499 311.984 13.6153 311.984ZM22.3826 310.208C21.892 310.24 21.5346 310.389 21.3106 310.656C21.0866 310.923 20.9746 311.307 20.9746 311.808V312.176H22.3346C22.932 312.176 23.2306 312.427 23.2306 312.928C23.2306 313.429 22.932 313.68 22.3346 313.68H20.9746V319.136C20.9746 319.445 20.8786 319.68 20.6866 319.84C20.5053 320 20.2706 320.08 19.9826 320.08C19.6946 320.08 19.4546 320 19.2626 319.84C19.0706 319.68 18.9746 319.445 18.9746 319.136V313.68H18.1746C17.5773 313.68 17.2786 313.429 17.2786 312.928C17.2786 312.427 17.5773 312.176 18.1746 312.176H18.9746V312.064C18.9746 311.061 19.236 310.277 19.7586 309.712C20.292 309.136 21.0386 308.811 21.9986 308.736L22.4146 308.704C22.8413 308.672 23.14 308.72 23.3106 308.848C23.492 308.965 23.5826 309.152 23.5826 309.408C23.5826 309.867 23.3213 310.123 22.7986 310.176L22.3826 310.208ZM27.6549 320.128C26.8549 320.128 26.1509 319.963 25.5429 319.632C24.9455 319.301 24.4815 318.827 24.1509 318.208C23.8202 317.589 23.6549 316.869 23.6549 316.048C23.6549 315.227 23.8202 314.512 24.1509 313.904C24.4815 313.285 24.9455 312.811 25.5429 312.48C26.1509 312.149 26.8549 311.984 27.6549 311.984C28.4549 311.984 29.1535 312.149 29.7509 312.48C30.3589 312.811 30.8229 313.285 31.1429 313.904C31.4735 314.512 31.6389 315.227 31.6389 316.048C31.6389 316.869 31.4735 317.589 31.1429 318.208C30.8229 318.827 30.3589 319.301 29.7509 319.632C29.1535 319.963 28.4549 320.128 27.6549 320.128ZM27.6389 318.576C28.2895 318.576 28.7855 318.363 29.1269 317.936C29.4682 317.509 29.6389 316.88 29.6389 316.048C29.6389 315.227 29.4682 314.603 29.1269 314.176C28.7855 313.739 28.2949 313.52 27.6549 313.52C27.0149 313.52 26.5189 313.739 26.1669 314.176C25.8255 314.603 25.6549 315.227 25.6549 316.048C25.6549 316.88 25.8255 317.509 26.1669 317.936C26.5082 318.363 26.9989 318.576 27.6389 318.576Z" fill="black"/>
<rect x="104" y="303" width="366" height="50" fill="#00B1C4"/>
<path d="M265.701 360.416L265.174 362.49H266.609L267.143 360.416H268.08L267.547 362.49H268.977V363.387H267.33L266.756 365.689H268.221V366.586H266.527L265.918 369H264.98L265.596 366.586H264.154L263.539 369H262.607L263.217 366.586H261.705V365.689H263.445L264.02 363.387H262.461V362.49H264.236L264.764 360.416H265.701ZM266.393 363.387H264.957L264.383 365.689H265.824L266.393 363.387ZM270.506 368.01H272.346V361.4L270.143 362.461V361.324L272.334 360.281H273.518V368.01H275.334V369H270.506V368.01ZM276.969 360.252H282.477V360.756L279.348 369H278.111L281.158 361.248H276.969V360.252ZM286.994 361.295L285.746 365.771H288.242L286.994 361.295ZM286.279 360.252H287.715L290.393 369H289.168L288.523 366.721H285.459L284.826 369H283.602L286.279 360.252ZM292.801 368.004H296.82V369H291.506V368.004C292.236 367.234 292.875 366.555 293.422 365.965C293.969 365.375 294.346 364.959 294.553 364.717C294.943 364.24 295.207 363.855 295.344 363.562C295.48 363.266 295.549 362.963 295.549 362.654C295.549 362.166 295.404 361.783 295.115 361.506C294.83 361.229 294.438 361.09 293.938 361.09C293.582 361.09 293.209 361.154 292.818 361.283C292.428 361.412 292.014 361.607 291.576 361.869V360.674C291.979 360.482 292.373 360.338 292.76 360.24C293.15 360.143 293.535 360.094 293.914 360.094C294.77 360.094 295.457 360.322 295.977 360.779C296.5 361.232 296.762 361.828 296.762 362.566C296.762 362.941 296.674 363.316 296.498 363.691C296.326 364.066 296.045 364.48 295.654 364.934C295.436 365.188 295.117 365.539 294.699 365.988C294.285 366.438 293.652 367.109 292.801 368.004ZM300.008 364.588V368.027H301.408C302.096 368.027 302.586 367.908 302.879 367.67C303.172 367.428 303.318 367.031 303.318 366.48C303.318 365.754 303.164 365.258 302.855 364.992C302.547 364.723 302.064 364.588 301.408 364.588H300.008ZM300.008 361.225V363.627H301.385C301.955 363.627 302.367 363.518 302.621 363.299C302.879 363.08 303.008 362.805 303.008 362.473C303.008 362.031 302.881 361.713 302.627 361.518C302.377 361.322 301.963 361.225 301.385 361.225H300.008ZM298.818 360.252H301.408C302.303 360.252 302.992 360.445 303.477 360.832C303.961 361.219 304.203 361.766 304.203 362.473C304.203 362.852 304.074 363.195 303.816 363.504C303.562 363.812 303.18 364.006 302.668 364.084C303.242 364.17 303.691 364.416 304.016 364.822C304.344 365.225 304.508 365.816 304.508 366.598C304.508 367.391 304.248 367.99 303.729 368.396C303.209 368.799 302.436 369 301.408 369H298.818V360.252ZM308.686 364.846C308.158 364.846 307.75 364.994 307.461 365.291C307.176 365.584 307.033 366 307.033 366.539C307.033 367.078 307.178 367.498 307.467 367.799C307.76 368.096 308.166 368.244 308.686 368.244C309.217 368.244 309.625 368.098 309.91 367.805C310.199 367.508 310.344 367.086 310.344 366.539C310.344 366.004 310.197 365.588 309.904 365.291C309.615 364.994 309.209 364.846 308.686 364.846ZM307.654 364.354C307.15 364.225 306.756 363.984 306.471 363.633C306.189 363.281 306.049 362.857 306.049 362.361C306.049 361.666 306.285 361.115 306.758 360.709C307.23 360.299 307.873 360.094 308.686 360.094C309.502 360.094 310.146 360.299 310.619 360.709C311.092 361.115 311.328 361.666 311.328 362.361C311.328 362.857 311.186 363.281 310.9 363.633C310.619 363.984 310.227 364.225 309.723 364.354C310.309 364.482 310.756 364.742 311.064 365.133C311.377 365.523 311.533 366.029 311.533 366.65C311.533 367.439 311.281 368.057 310.777 368.502C310.273 368.947 309.576 369.17 308.686 369.17C307.795 369.17 307.098 368.949 306.594 368.508C306.094 368.062 305.844 367.447 305.844 366.662C305.844 366.037 305.998 365.529 306.307 365.139C306.619 364.744 307.068 364.482 307.654 364.354ZM307.227 362.473C307.227 362.941 307.352 363.299 307.602 363.545C307.852 363.791 308.213 363.914 308.686 363.914C309.162 363.914 309.525 363.791 309.775 363.545C310.025 363.299 310.15 362.941 310.15 362.473C310.15 361.996 310.025 361.633 309.775 361.383C309.529 361.133 309.166 361.008 308.686 361.008C308.213 361.008 307.852 361.135 307.602 361.389C307.352 361.639 307.227 362 307.227 362.473Z" fill="#909090"/>
</svg>
