<svg xmlns="http://www.w3.org/2000/svg" width="250" height="100" x="0" y="100" viewBox="65 60 60 80">
  <path fill-rule="evenodd" clip-rule="evenodd" fill="transparent" d="M0 0h192.756v192.756H0V0z"/>
  <path fill-rule="evenodd" clip-rule="evenodd"
        d="M88.417 116.322h3.451l2.54 4.715 2.541-4.715h3.451v7.326h-2.187v-5.261h-.02l-2.944 5.261h-1.681l-2.945-5.261h-.02v5.261h-2.186v-7.326zM107.693 116.322h2.926l4.027 7.326h-2.5l-.699-1.295h-4.553l-.658 1.295h-2.51l3.967-7.326zm.041 4.451h2.873l-1.457-2.752-1.416 2.752zM117.811 118.893c0-2.146 1.205-2.652 3.229-2.652h3.381c2.551 0 2.904.922 2.904 2.348v.232h-2.207c0-.729-.414-.818-1.133-.818h-2.439c-1.133 0-1.426.271-1.426 1.527v.91c0 1.256.293 1.529 1.426 1.529h2.398c.588 0 1.174-.092 1.174-.801v-.211h-2.793v-1.52h5.041v2.086c0 2.105-1.094 2.205-3.623 2.205h-2.703c-2.023 0-3.229-.506-3.229-2.65v-2.185zM134.494 116.322h2.926l4.027 7.326h-2.5l-.697-1.295h-4.555l-.658 1.295h-2.51l3.967-7.326zm.041 4.451h2.875l-1.457-2.752-1.418 2.752zM144.42 121.887l5.252-3.785v-.02h-5.11v-1.76h8.43v1.76l-5.242 3.785v.02h5.363v1.761h-8.693v-1.761zM156.926 116.322h2.248v7.326h-2.248v-7.326zM163.342 116.322h3.482l4.219 5.323h.021v-5.323h2.247v7.326h-3.483l-4.219-5.324h-.021v5.324h-2.246v-7.326zM177.354 116.322h8.015v1.699H179.6v1.174h5.466v1.518H179.6v1.174h5.9v1.761h-8.146v-7.326z"/>
  <path
    d="M153.445 76.508c1.678-.002 4.766 1.728 6.002 3.254l3.078-2.036c.502-.332 3.395-1.219 3.996-1.219h16.533c6.707 0 9.508 9.931 3.768 13.434l-13.621 8.314 3.195 4.035c3.65 4.607.189 11.76-5.695 11.76h-16.307c-1.361 0-4.818-1.684-5.668-2.748l-.115-.145-3.637 1.986c-.389.213-3.018.906-3.457.906l-16.938.014a6.161 6.161 0 0 1-1.533-.186c-.424.123-.816.193-1.15.193h-15.531a6.892 6.892 0 0 1-3.057-.707l-.133.049c-.029.012-.877.248-.908.256a45.634 45.634 0 0 1-4.967.801c-1.845.191-3.384.238-4.659.168-15.125-.84-14.723-11.832-13.933-16.27-.401.232-.79.492-1.164.773-1.896 1.426-3.704 3.557-5.23 5.648-1.824 2.498-3.001 4.52-3.737 5.775-.907 1.547-4.449 3.6-6.235 3.6h-16.4c-4.166 0-7.208-3.607-7.214-7.402l-2.299 3.859c-.906 1.521-4.463 3.543-6.235 3.543H10.932c-5.511 0-9.059-6.314-6.207-11.025l9.242-15.262a29.725 29.725 0 0 1-3.206-1.775c-1.776-1.131-3.706-2.597-5.756-4.493-4.618-4.271-1.363-12.583 4.932-12.583h49.51c4.266 0 7.342 3.774 7.202 7.651 4.959-.151 11.466-.272 16.234-.081 4.987.201 9.003 1.237 11.172 3.537a41.405 41.405 0 0 1 3.409-1.444 38.373 38.373 0 0 1 4.965-1.478c1.85-.413 3.516-.646 4.896-.691.918-.03 2.045-.038 3.393-.028 1.336.01 2.748.035 4.299.071l38.428-.054z"/>
  <path
    d="M136.061 80.542l17.385-.023c.826-.001 2.42.939 2.826 1.661l1.838 3.264 6.625-4.379c.225-.148 1.518-.545 1.787-.545h16.533c3 0 4.252 4.442 1.686 6.009l-17.494 10.676 6.002 7.578c1.633 2.061.086 5.26-2.547 5.26h-16.307c-.609 0-2.154-.752-2.535-1.229l-2.213-2.771-6.582 3.596c-.174.094-1.35.404-1.547.404l-16.938.014a2.743 2.743 0 0 1-1.416-.385c-.463.234-.932.393-1.268.393h-15.531c-1.041 0-1.922-.504-2.496-1.242-1.203.52-2.033.816-2.041.82l-.406.113c-1.5.326-2.885.557-4.158.701a27.198 27.198 0 0 1-3.744.195c-13.275-.314-11.146-10.74-10.646-12.646a14.737 14.737 0 0 1 1.634-4.521c-.851-.177-2.159-.281-3.993.004-1.223.19-2.465.715-3.687 1.458-1.344.816-2.604 1.856-3.763 3-1.796 1.773-3.407 3.828-4.75 5.73-1.367 1.934-2.476 3.748-3.222 4.945-.404.65-1.987 1.535-2.751 1.535h-16.4c-2.465 0-4.052-2.826-2.776-4.932l11.09-18.312H45.88L32.981 108.57c-.405.682-1.997 1.586-2.789 1.586h-19.26c-2.452 0-4.044-2.799-2.777-4.906l11.72-19.478a19.27 19.27 0 0 1-2.873-.93c-1.405-.577-2.982-1.393-4.692-2.541a37.666 37.666 0 0 1-4.58-3.636c-2.066-1.911-.61-5.629 2.206-5.629h49.51c2.498 0 4.083 2.893 2.726 4.995L60.3 80.932c3.715-.149 19.907-1.65 27.452.483 2.515.711 4.244 2.701 3.998 4.113l-.097.555a33.993 33.993 0 0 1 5.349-2.904 35.914 35.914 0 0 1 5.352-1.854c1.863-.477 3.613-.745 5.098-.794 6.301-.208 12.684-.133 19.043-.059 2.885.034 5.766.068 8.58.075.162 0 .322.014.477.038a3.04 3.04 0 0 1 .509-.043zm-6.944 20.187l11.16-5.947-4.402-5.861-6.758 11.808z"
    fill="#fff"/>
  <path
    d="M107.553 83.776c-3.943.131-10.338 2.148-15.16 5.744-3.194 2.382-5.698 5.458-6.341 9.136 0 0-2.726 8.506 7.544 8.748 1.902.047 4.25-.191 7.143-.82 0 0 6.373-2.281 8.566-4.887 2.193-2.607-2.939 5.119-2.939 5.119h15.531l13.178-23.025c-9.136-.021-18.401-.317-27.522-.015zm-3.131 17.269c-5.902.217 2.795-11.621 7.031-11.621h4.67s-6.566 11.431-11.701 11.621zM59.688 84.21s29.246-1.412 28.866.76l-1.083 6.191s-2.568-1.629-7.451-.869c-2.355.367-4.581 1.515-6.621 3.068-5.213 3.969-9.212 10.583-11.059 13.549h-16.4L59.688 84.21zm-29.496 22.7h-19.26l13.79-22.917h.236l.51-1.086h-1.175s-2.271.499-6.06-1.057c-2.273-.933-5.093-2.605-8.295-5.568h49.51l-4.768 7.386H44.035L30.192 106.91zm105.869-23.123l17.314-.007 3.617 6.285 9.529-6.301h16.533l-20.627 12.588 8.273 10.445h-16.307l-3.912-4.896-8.965 4.896-16.938.014 20.549-10.952-9.066-12.072z"
    fill-rule="evenodd" clip-rule="evenodd" fill="#ecb731"/>
</svg>
