<svg xmlns="http://www.w3.org/2000/svg" xmlns:xlink="http://www.w3.org/1999/xlink" viewBox="0 0 106.31 133.65"><defs><style>.cls-1{fill:#161f2f;}.cls-16,.cls-2{stroke:#1fb0bb;}.cls-13,.cls-16,.cls-2{stroke-miterlimit:10;}.cls-2{fill:url(#Unbenannter_Verlauf_9);}.cls-3{fill:#634e42;}.cls-14,.cls-4{fill:#fff;}.cls-5{fill:#8b6d5e;}.cls-6,.cls-7{fill:#ceb59e;}.cls-7{opacity:0.39;}.cls-8{fill:#f5a37f;}.cls-9{fill:#f8b798;}.cls-10{fill:#1d1d1b;}.cls-11{fill:#253040;}.cls-12{fill:#454a5a;}.cls-13,.cls-16{fill:none;}.cls-13{stroke:#fff;stroke-width:0.75px;}.cls-14{opacity:0.48;}.cls-15{fill:#e1dfe0;}.cls-16{stroke-width:3px;}</style><radialGradient id="Unbenannter_Verlauf_9" cx="53.16" cy="44.34" r="43.09" gradientUnits="userSpaceOnUse"><stop offset="0" stop-color="#1fb0bb"/><stop offset="0.49" stop-color="#30b5ad"/><stop offset="1" stop-color="#1fb0bb"/></radialGradient></defs><g id="Ebene_2" data-name="Ebene 2"><g id="circle"><path class="cls-1" d="M34.58,109a1,1,0,0,1,.3.73,2.08,2.08,0,0,1-.44,1.3,1.69,1.69,0,0,1-1.36.59,18.79,18.79,0,0,1-4-.34,24.37,24.37,0,0,1-4.74,7Q21.59,121,18.89,121a4,4,0,0,1-3.71-2.62,18.3,18.3,0,0,1-1.41-7A21.61,21.61,0,0,1,10,118.62,6.06,6.06,0,0,1,5.45,121c-1.8,0-3.16-1.11-4.07-3.35a24.28,24.28,0,0,1-1.38-9,62.19,62.19,0,0,1,.73-9.08,3.52,3.52,0,0,1,.72-2A2.14,2.14,0,0,1,3.09,97a2,2,0,0,1,1.31.37,1.63,1.63,0,0,1,.46,1.35c0,.13,0,.38-.05.75A68.37,68.37,0,0,0,4,109.31a20.35,20.35,0,0,0,.65,5.82c.43,1.37,1,2.05,1.74,2.05s1.45-.69,2.38-2.06A27.14,27.14,0,0,0,11.5,109a65.39,65.39,0,0,0,2.33-9.68,2.86,2.86,0,0,1,.83-1.79A2.51,2.51,0,0,1,16.3,97a1.85,1.85,0,0,1,1.28.38A1.48,1.48,0,0,1,18,98.55a3.18,3.18,0,0,1-.06.7,54.48,54.48,0,0,0-.79,9.16,43.65,43.65,0,0,0,.22,5,6.92,6.92,0,0,0,.81,2.82,1.94,1.94,0,0,0,1.76,1q1.35,0,3-2a23,23,0,0,0,3-5.07,7,7,0,0,1-2.59-2.77,8.48,8.48,0,0,1-.87-3.92,9.1,9.1,0,0,1,.69-3.75,5.15,5.15,0,0,1,1.88-2.29,4.85,4.85,0,0,1,2.66-.76,3.48,3.48,0,0,1,2.85,1.29,5.45,5.45,0,0,1,1.06,3.55,21.28,21.28,0,0,1-1.38,7,19.57,19.57,0,0,0,3.37.25A1.35,1.35,0,0,1,34.58,109Zm-7.46-1.74a16.58,16.58,0,0,0,1.1-5.2,3.63,3.63,0,0,0-.31-1.73,1,1,0,0,0-.84-.55,1.42,1.42,0,0,0-1.24.89,5.37,5.37,0,0,0-.48,2.52A4.75,4.75,0,0,0,27.12,107.26Z"/><path class="cls-1" d="M33,119.71a6.29,6.29,0,0,1-.83-3.43,20.53,20.53,0,0,1,.33-3.24,28.84,28.84,0,0,1,.83-3.7A2.43,2.43,0,0,1,34,108.1a2.19,2.19,0,0,1,1.35-.33c1,0,1.43.32,1.43,1A21.13,21.13,0,0,1,36.2,112a24.13,24.13,0,0,0-.67,4.19,3,3,0,0,0,.22,1.29.78.78,0,0,0,.76.45,2.07,2.07,0,0,0,1.26-.7,24.38,24.38,0,0,0,2-2.22,1,1,0,0,1,.76-.39.65.65,0,0,1,.57.33,1.78,1.78,0,0,1,.21.93,2.55,2.55,0,0,1-.53,1.74c-1.85,2.27-3.59,3.4-5.2,3.4A2.94,2.94,0,0,1,33,119.71Zm1.11-14.35a2,2,0,0,1-.59-1.53,2.07,2.07,0,0,1,.78-1.64,2.83,2.83,0,0,1,1.92-.66,2.7,2.7,0,0,1,1.69.5,1.73,1.73,0,0,1,.65,1.44,2.27,2.27,0,0,1-.74,1.78,2.77,2.77,0,0,1-1.94.66A2.52,2.52,0,0,1,34.06,105.36Z"/><path class="cls-1" d="M39.56,119.88a10.77,10.77,0,0,1-.44-3.6,23,23,0,0,1,1-6.94,2.13,2.13,0,0,1,.83-1.19,2.9,2.9,0,0,1,1.62-.38,1.54,1.54,0,0,1,.79.14.59.59,0,0,1,.22.53,10.59,10.59,0,0,1-.42,2c-.19.75-.34,1.41-.45,2a19.61,19.61,0,0,0-.28,2.08,15.93,15.93,0,0,1,2.08-3.93,8.22,8.22,0,0,1,2.26-2.17,4.11,4.11,0,0,1,2-.64,1.61,1.61,0,0,1,1.82,1.82,22.59,22.59,0,0,1-.61,4,19.21,19.21,0,0,0-.54,3.23c0,.75.27,1.12.82,1.12a2.18,2.18,0,0,0,1.33-.69A20.7,20.7,0,0,0,53.74,115a1,1,0,0,1,.76-.39.65.65,0,0,1,.57.33,1.78,1.78,0,0,1,.21.93,2.55,2.55,0,0,1-.53,1.74,12.41,12.41,0,0,1-2.6,2.45A5.43,5.43,0,0,1,49,121a2.75,2.75,0,0,1-2.17-.82,3.6,3.6,0,0,1-.73-2.41,17,17,0,0,1,.4-2.81,14.7,14.7,0,0,0,.36-2.44c0-.3-.1-.45-.31-.45s-.58.31-1,.94a15.34,15.34,0,0,0-1.35,2.49,18.94,18.94,0,0,0-1.11,3.26,4.44,4.44,0,0,1-.72,1.78,1.61,1.61,0,0,1-1.28.46A1.53,1.53,0,0,1,39.56,119.88Z"/><path class="cls-1" d="M63.53,108.91a.94.94,0,0,1,.3.82,3.75,3.75,0,0,1,0,.54c-.07.58-.31,2.08-.7,4.5-.28,1.63-.46,2.7-.54,3.23a47,47,0,0,1-2.88,11.45c-1.21,2.8-2.82,4.2-4.85,4.2a3.18,3.18,0,0,1-2.33-.88,3.12,3.12,0,0,1-.9-2.32,7.72,7.72,0,0,1,1.58-4.29,28.37,28.37,0,0,1,5.9-5.63l.17-1.1A3.26,3.26,0,0,1,58,120.6a3.3,3.3,0,0,1-1.54.4,3.42,3.42,0,0,1-2.78-1.26,5.07,5.07,0,0,1-1-3.32,9.11,9.11,0,0,1,1-4.25,8.94,8.94,0,0,1,2.77-3.24,6.28,6.28,0,0,1,3.67-1.22A1.1,1.1,0,0,1,61,108a2.08,2.08,0,0,1,.35.86,5.66,5.66,0,0,1,1.24-.12A1.66,1.66,0,0,1,63.53,108.91Zm-6.8,20.33a22.82,22.82,0,0,0,1.7-5.37,16.41,16.41,0,0,0-3.12,3.35,5,5,0,0,0-1,2.61,1.57,1.57,0,0,0,.18.79.65.65,0,0,0,.6.31C55.61,130.93,56.14,130.36,56.73,129.24Zm2-11.86a5.17,5.17,0,0,0,.85-2.25l.9-4.81a3.35,3.35,0,0,0-2.14.89,6,6,0,0,0-1.57,2.26,7.51,7.51,0,0,0-.59,3,2,2,0,0,0,.35,1.29,1.16,1.16,0,0,0,1,.43A1.62,1.62,0,0,0,58.71,117.38Z"/><path class="cls-1" d="M76.56,111.88l-3.16.19a1.5,1.5,0,0,0-.46-1,1.75,1.75,0,0,0-1.29-.43,3,3,0,0,0-1.53.39,1.4,1.4,0,0,0-.76,1,.69.69,0,0,0,.2.66,2.55,2.55,0,0,0,1.12.46l2.21.45q3.56.75,3.11,3.54a4,4,0,0,1-1,2.1,5.55,5.55,0,0,1-2.16,1.38,8.13,8.13,0,0,1-2.9.5A6.2,6.2,0,0,1,66,120a3.31,3.31,0,0,1-1.28-2.83l3.4-.18c.06,1,.69,1.54,1.9,1.55a3,3,0,0,0,1.65-.4,1.47,1.47,0,0,0,.78-1,.7.7,0,0,0-.25-.69,2.85,2.85,0,0,0-1.11-.43L69,115.6q-3.59-.73-3.09-3.72a3.87,3.87,0,0,1,1.88-2.75,7.23,7.23,0,0,1,3.91-1,5.78,5.78,0,0,1,3.69,1A3.17,3.17,0,0,1,76.56,111.88Z"/><path class="cls-1" d="M86.27,115.5l1.2-7.2H91l-2.09,12.54H85.52l.38-2.28h-.13a4.51,4.51,0,0,1-1.69,1.78,4.88,4.88,0,0,1-2.53.67,3.34,3.34,0,0,1-2.85-1.27,4.38,4.38,0,0,1-.61-3.45l1.34-8h3.48l-1.23,7.36a2.21,2.21,0,0,0,.31,1.76,1.72,1.72,0,0,0,1.47.65,2.83,2.83,0,0,0,1.78-.66A2.88,2.88,0,0,0,86.27,115.5Z"/><path class="cls-1" d="M91.62,120.84l2.09-12.54h3.48L95.1,120.84Zm4.18-14.18a1.66,1.66,0,0,1-1.27-.52,1.43,1.43,0,0,1-.41-1.24,1.88,1.88,0,0,1,.7-1.24,2.12,2.12,0,0,1,1.38-.52,1.7,1.7,0,0,1,1.27.52,1.45,1.45,0,0,1,.41,1.24,1.85,1.85,0,0,1-.69,1.24A2.07,2.07,0,0,1,95.8,106.66Z"/><path class="cls-1" d="M106.31,108.3l-.43,2.61h-2.37l-1,6.08c-.08.48,0,.8.16,1a1.22,1.22,0,0,0,.82.25,2.89,2.89,0,0,0,.5,0l.38-.07.13,2.59-.78.2a7.31,7.31,0,0,1-1.17.13,4,4,0,0,1-2.92-.83,2.82,2.82,0,0,1-.67-2.74l1.08-6.54H98.32l.44-2.61h1.7l.5-3h3.48l-.5,3Z"/><circle class="cls-2" cx="53.16" cy="44.34" r="43.09"/><path class="cls-3" d="M35.68,26s-.07-4.3,0-6.48.11-2.52,2.52-1.6a21.4,21.4,0,0,1,6.6,4.32C45.9,23.3,35.68,26,35.68,26Z"/><path class="cls-4" d="M86.84,58.7s4.58,2,6.69,0-4.62,13.71-15.4,21c-6.26,7.64-12.73,8-23.17,8-22.28,0-31.53-10.9-34.63-15.17-3.95-5.45-7.93-7.72-8.61-19,0,0,5.44,1.61,13.41-.44,3.59-1.94,5.23-6.14,6.07-6.14S51.64,36.25,51.64,36.25l13.27-4.09S78.17,42.49,81.25,43.33,86.84,58.7,86.84,58.7Z"/><path class="cls-5" d="M63.64,24.1c-3.67-1-8.66-3.23-15.31-2.46-1.65.19-24.18,1.76-25.62,29.82C24,51.62,24.08,53,25.13,53s4.17-2.23,8.46-2.35c2.89-.08,5.77,1.89,12.3.56C52.12,50,58.73,36.5,59.44,35.65S62,32.4,65.32,33.34,73.75,51.22,81.1,53.09c6.34,1.61,5.61,6.19,5.74,5.61C89.23,48.06,79.73,28.28,63.64,24.1Z"/><path class="cls-6" d="M85.76,46.87c-3.1-17-17.77-23.55-28-25.2-11.67-1.87-33.57,1.74-35,29.8,1.3.16,13.41-15.09,13.68-16.1C39.21,25,52.06,24.49,57.26,29.16c.83.74,6.26-1.66,14.11,3.82C84.28,42,85.87,47.45,85.76,46.87Z"/><path class="cls-7" d="M24.07,53.45C30.78,60.58,48.23,67.92,59,57.27c0,0,2.08,6.95.43,10s-19.2,2.53-26.61-3c-7.07-5.25-8.76-10.8-8.76-10.8h0"/><path class="cls-5" d="M72.57,22.58c-1.84-7.93-7.88-11.41-13.32-4.32-4,5.27-3.9,14.54-3.9,14.54s3.32-1.61,5.61-2.52,9.41,5.83,10.82,3.81C73.75,31.27,73.18,25.22,72.57,22.58Z"/><path class="cls-8" d="M60.78,19.2c-4.55,7-1,16.07-1,16.07a6.16,6.16,0,0,1,3-1.94,9,9,0,0,1-1.51-6c.24-3.85,2.2-6.86,4.39-6.73s3.76,3.36,3.53,7.21c-.18,2.95-1.38,5.4-2.91,6.33a14.42,14.42,0,0,1,2.06,2.8c.87-.54,2.8-2.16,3.1-3.93C73.87,18.24,65.6,11.75,60.78,19.2Z"/><path class="cls-9" d="M69.12,27.78c.23-3.85-1.35-7.08-3.53-7.21s-4.15,2.88-4.39,6.73a9,9,0,0,0,1.51,6,6.16,6.16,0,0,1,1.51-.14,2.78,2.78,0,0,1,2,.92C67.74,33.18,68.94,30.73,69.12,27.78Z"/><path class="cls-8" d="M22.84,50.76c2.38-2.32,5.3.25,5.67,1s-1.75.37-3.18,3.09C24.62,56.16,22.11,51.47,22.84,50.76Z"/><path class="cls-10" d="M51.75,40.85c0,2.66,0,6.26-7.43,7.17-4.15.5-7.49-3.18-7.68-6.41a7.86,7.86,0,0,1,7.75-8.38A7.22,7.22,0,0,1,51.75,40.85Z"/><ellipse class="cls-4" cx="46.73" cy="36.37" rx="0.9" ry="1.48" transform="translate(-2.07 69.91) rotate(-72.39)"/><rect class="cls-11" x="26.13" y="33.67" width="8.71" height="3.15" rx="0.59" transform="translate(60.97 70.48) rotate(-180)"/><path class="cls-11" d="M52.34,31.91c-1.61-.13-.88.25-.88.25s5.82.68,5.81,7.7a10.17,10.17,0,0,1-4.38,7.74l-4.32.47-7.89-.25-5.2-6.73a33,33,0,0,1-.64-4.94,24.35,24.35,0,0,1,.82-4.82s-2.83,1.25-3.11,3.14C31.9,39,35.66,49.81,41.88,50.19c3.18.2,11.53-.29,13.53-.38,2.28-.33,8-4.85,8.31-6.75v-5.6C63.6,36.53,55.53,32.16,52.34,31.91Z"/><path class="cls-1" d="M60.69,43.06h24c.34,0,.62-.4.62-.9l-1-4c0-.5-.27-.9-.61-.9H60.69c-.34,0-.61.4-.61.9v4C60.08,42.66,60.35,43.06,60.69,43.06Z"/><path class="cls-12" d="M36.05,41.41a14.66,14.66,0,0,1,0-3.86c.46-2.83,1.16-4.25,3.44-4.16,1.76.06,11.74.15,15.83,1.56.29.09-.64-1.07-.64-1.07L53.2,32.42l-6.47-.69L40.29,31l-3.67.29-2.44,2.16.29,4.18Z"/><path class="cls-13" d="M52,32.42v0Z"/><path class="cls-14" d="M57.68,39.07c.13,2.64-1.43,8-5.73,8V32.84C54.28,31.78,57.44,34.47,57.68,39.07Z"/><path class="cls-15" d="M39.73,31.91c1.93,0,4.29.14,6.32.29,2.5.19,4.47.4,4.47.4,3.23.19,5.82,3.4,5.82,7.58,0,2.88-2.22,6.44-5.35,6.93-.68.11-9.31.32-9.31.32-1.68-.32-3.57-2.53-5.12-5.82-1-2-2.49-8.74,0-9.45a14.13,14.13,0,0,1,3.19-.25m0-1h0a14,14,0,0,0-3.46.29,2.51,2.51,0,0,0-1.62,1.48c-1.16,2.56.26,7.8,1,9.36,1,2.16,3.15,5.86,5.84,6.38l.1,0h.11c2,0,8.75-.22,9.44-.33,3.66-.57,6.2-4.64,6.2-7.92,0-4.67-2.91-8.36-6.76-8.58h0s-2-.21-4.45-.4-4.74-.29-6.4-.29Z"/><circle class="cls-16" cx="53.16" cy="44.59" r="43.09"/></g></g></svg>