<svg xmlns="http://www.w3.org/2000/svg" xmlns:xlink="http://www.w3.org/1999/xlink" viewBox="0 0 89.17 89.17"><defs><style>.cls-1,.cls-16{stroke:#1fb0bb;}.cls-1,.cls-13,.cls-16{stroke-miterlimit:10;}.cls-1{fill:url(#Unbenannter_Verlauf_9);}.cls-2{fill:#634e42;}.cls-14,.cls-3{fill:#fff;}.cls-4{fill:#8b6d5e;}.cls-5,.cls-6{fill:#ceb59e;}.cls-6{opacity:0.39;}.cls-7{fill:#f5a37f;}.cls-8{fill:#f8b798;}.cls-9{fill:#1d1d1b;}.cls-10{fill:#253040;}.cls-11{fill:#161f2f;}.cls-12{fill:#454a5a;}.cls-13,.cls-16{fill:none;}.cls-13{stroke:#fff;stroke-width:0.75px;}.cls-14{opacity:0.48;}.cls-15{fill:#e1dfe0;}.cls-16{stroke-width:3px;}</style><radialGradient id="Unbenannter_Verlauf_9" cx="44.59" cy="44.34" r="43.09" gradientUnits="userSpaceOnUse"><stop offset="0" stop-color="#1fb0bb"/><stop offset="0.49" stop-color="#30b5ad"/><stop offset="1" stop-color="#1fb0bb"/></radialGradient></defs><g id="Ebene_2" data-name="Ebene 2"><g id="circle"><circle class="cls-1" cx="44.59" cy="44.34" r="43.09"/><path class="cls-2" d="M27.11,26s-.07-4.3.05-6.48.11-2.52,2.52-1.6a21.4,21.4,0,0,1,6.6,4.32C37.33,23.3,27.11,26,27.11,26Z"/><path class="cls-3" d="M78.27,58.7s4.58,2,6.69,0-4.62,13.71-15.4,21c-6.26,7.64-12.73,8-23.17,8-22.28,0-31.53-10.9-34.63-15.17-3.95-5.45-7.93-7.72-8.61-19,0,0,5.44,1.61,13.41-.44,3.59-1.94,5.23-6.14,6.07-6.14S43.07,36.25,43.07,36.25l13.27-4.09S69.6,42.49,72.68,43.33,78.27,58.7,78.27,58.7Z"/><path class="cls-4" d="M55.07,24.1c-3.67-1-8.66-3.23-15.31-2.46-1.65.19-24.18,1.76-25.62,29.82,1.3.16,1.37,1.55,2.42,1.55s4.17-2.23,8.46-2.35c2.89-.08,5.77,1.89,12.3.56C43.55,50,50.16,36.5,50.87,35.65s2.52-3.25,5.88-2.31,8.43,17.88,15.78,19.75c6.34,1.61,5.61,6.19,5.74,5.61C80.66,48.06,71.16,28.28,55.07,24.1Z"/><path class="cls-5" d="M77.2,46.87c-3.11-17-17.78-23.55-28.05-25.2-11.67-1.87-33.57,1.74-35,29.8,1.3.16,13.41-15.09,13.68-16.1C30.64,25,43.49,24.49,48.69,29.16,49.52,29.9,55,27.5,62.8,33,75.71,42,77.3,47.45,77.2,46.87Z"/><path class="cls-6" d="M15.5,53.45c6.71,7.13,24.16,14.47,34.94,3.82,0,0,2.08,6.95.43,10s-19.2,2.53-26.61-3C17.19,59,15.5,53.45,15.5,53.45h0"/><path class="cls-4" d="M64,22.58c-1.84-7.93-7.88-11.41-13.32-4.32-4,5.27-3.9,14.54-3.9,14.54s3.32-1.61,5.61-2.52,9.41,5.83,10.82,3.81C65.18,31.27,64.61,25.22,64,22.58Z"/><path class="cls-7" d="M52.21,19.2c-4.55,7-1,16.07-1,16.07a6.16,6.16,0,0,1,3-1.94,9,9,0,0,1-1.51-6c.24-3.85,2.2-6.86,4.39-6.73s3.76,3.36,3.53,7.21c-.18,2.95-1.38,5.4-2.91,6.33a14.42,14.42,0,0,1,2.06,2.8c.87-.54,2.8-2.16,3.1-3.93C65.3,18.24,57,11.75,52.21,19.2Z"/><path class="cls-8" d="M60.55,27.78c.23-3.85-1.35-7.08-3.53-7.21s-4.15,2.88-4.39,6.73a9,9,0,0,0,1.51,6,6.16,6.16,0,0,1,1.51-.14,2.78,2.78,0,0,1,2,.92C59.17,33.18,60.37,30.73,60.55,27.78Z"/><path class="cls-7" d="M14.27,50.76c2.38-2.32,5.3.25,5.67,1s-1.75.37-3.18,3.09C16.05,56.16,13.54,51.47,14.27,50.76Z"/><path class="cls-9" d="M43.18,40.85c0,2.66,0,6.26-7.43,7.17-4.14.5-7.49-3.18-7.68-6.41a7.87,7.87,0,0,1,7.75-8.38A7.22,7.22,0,0,1,43.18,40.85Z"/><ellipse class="cls-3" cx="38.16" cy="36.37" rx="0.9" ry="1.48" transform="translate(-8.05 61.74) rotate(-72.39)"/><rect class="cls-10" x="17.56" y="33.67" width="8.71" height="3.15" rx="0.59" transform="translate(43.83 70.48) rotate(-180)"/><path class="cls-10" d="M43.77,31.91c-1.61-.13-.88.25-.88.25s5.82.68,5.81,7.7a10.17,10.17,0,0,1-4.38,7.74L40,48.07l-7.89-.25-5.2-6.73a33,33,0,0,1-.64-4.94,24.35,24.35,0,0,1,.82-4.82S24.26,32.58,24,34.47c-.65,4.51,3.11,15.34,9.33,15.72,3.18.2,11.53-.29,13.53-.38,2.28-.33,8-4.85,8.31-6.75v-5.6C55,36.53,47,32.16,43.77,31.91Z"/><path class="cls-11" d="M52.12,43.06h24c.34,0,.62-.4.62-.9l-1-4c0-.5-.27-.9-.61-.9H52.12c-.34,0-.61.4-.61.9v4C51.51,42.66,51.78,43.06,52.12,43.06Z"/><path class="cls-12" d="M27.48,41.41a14.66,14.66,0,0,1,0-3.86C28,34.72,28.67,33.3,31,33.39c1.76.06,11.74.15,15.83,1.56.29.09-.64-1.07-.64-1.07l-1.51-1.46-6.47-.69L31.72,31l-3.67.29-2.44,2.16.29,4.18Z"/><path class="cls-13" d="M43.38,32.42v0Z"/><path class="cls-14" d="M49.11,39.07c.13,2.64-1.43,8-5.73,8V32.84C45.71,31.78,48.87,34.47,49.11,39.07Z"/><path class="cls-15" d="M31.16,31.91c1.93,0,4.29.14,6.32.29,2.5.19,4.47.4,4.47.4,3.23.19,5.82,3.4,5.82,7.58,0,2.88-2.22,6.44-5.35,6.93-.68.11-9.31.32-9.31.32-1.68-.32-3.57-2.53-5.12-5.82-.95-2-2.49-8.74,0-9.45a14.13,14.13,0,0,1,3.19-.25m0-1h0a14,14,0,0,0-3.46.29,2.51,2.51,0,0,0-1.62,1.48c-1.16,2.56.26,7.8,1,9.36,1,2.16,3.15,5.86,5.84,6.38l.1,0h.11c2,0,8.75-.22,9.44-.33,3.66-.57,6.2-4.64,6.2-7.92,0-4.67-2.91-8.36-6.76-8.58h0s-2-.21-4.45-.4-4.74-.29-6.4-.29Z"/><circle class="cls-16" cx="44.59" cy="44.59" r="43.09"/></g></g></svg>