<svg xmlns="http://www.w3.org/2000/svg" viewBox="0 0 101.99 101.99"><defs><style>.cls-1{fill:#b5cbeb;}.cls-2{fill:#634e42;}.cls-3{fill:#fffbf6;}.cls-4{fill:#6c5349;}.cls-5{fill:#856f65;}.cls-6{fill:#a48a7b;opacity:0.12;}.cls-7{fill:#f1d3e7;}.cls-8{fill:#f7e5f1;}.cls-9{fill:#9b9798;}.cls-10{fill:#5d5d5d;}.cls-11{fill:#1d1d1b;}.cls-12{fill:#fff;}.cls-13{fill:#515150;}.cls-14{fill:#e1dfe0;}.cls-15{fill:none;stroke:#b5cbeb;stroke-miterlimit:10;stroke-width:2px;}</style></defs><g id="Ebene_2" data-name="Ebene 2"><g id="circle"><circle class="cls-1" cx="50.99" cy="50.71" r="49.99"/><path class="cls-2" d="M34.41,32s-.06-3.81,0-5.73.1-2.23,2.23-1.42a19,19,0,0,1,5.84,3.83C43.45,29.65,34.41,32,34.41,32Z"/><path class="cls-3" d="M79.66,61s11.42,5.87,20.93-3.65c1.9-1.9-9.38,28.15-18.91,34.56-5.54,6.75-21.16,10-30.4,10-19.7,0-27-8.42-31-10.79-8-4.74-18.81-20.55-18.67-33.6,0,0,11,4.06,21.63-1.76,3.17-1.71,6.47-5.25,7.21-5.25S48.53,41.1,48.53,41.1l11.73-3.61S72,46.62,74.71,47.36,79.66,61,79.66,61Z"/><path class="cls-4" d="M59.14,30.36c-3.24-.85-7.66-2.86-13.54-2.18-1.46.17-21.39,1.56-22.66,26.38,1.15.14,1.21,1.37,2.14,1.37s3.68-2,7.48-2.08c2.55-.07,5.1,1.67,10.88.49,5.51-1.12,11.36-13,12-13.77a4.72,4.72,0,0,1,5.2-2c3,.84,7.45,15.81,14,17.47,5.6,1.42,5,5.47,5.07,5C81.78,51.55,73.37,34.05,59.14,30.36Z"/><path class="cls-5" d="M78.71,50.49C76,35.42,63,29.67,53.9,28.21c-10.32-1.66-29.69,1.54-31,26.36,1.15.14,11.86-13.35,12.1-14.25,2.49-9.22,13.85-9.62,18.46-5.49.73.66,5.53-1.46,12.47,3.38C77.39,46.17,78.8,51,78.71,50.49Z"/><path class="cls-6" d="M24.14,56.31c5.93,6.31,21.37,12.8,30.9,3.39,0,0,1.84,6.14.39,8.8s-17,2.24-23.55-2.63c-6.25-4.64-7.74-9.56-7.74-9.56h0"/><circle class="cls-7" cx="24.14" cy="54.89" r="2.11"/><path class="cls-4" d="M67,29c-1.62-7-7-10.1-11.78-3.82-3.58,4.66-3.44,12.86-3.44,12.86s2.94-1.42,5-2.23,8.32,5.15,9.57,3.37C68.08,36.7,67.57,31.35,67,29Z"/><path class="cls-6" d="M27.11,92.31s-1-20.09-3.25-17.13-5.78,13.44-5.78,13.44l7.77,5.59Z"/><path class="cls-6" d="M81.56,71.69c2.13-1.15,6.23,12.86,6.23,12.86s-8,8.74-7.7,6.77C81.56,79.83,80,72.54,81.56,71.69Z"/><path class="cls-7" d="M56.61,26c-4,6.23-.9,14.22-.9,14.22a5.44,5.44,0,0,1,2.61-1.73A8,8,0,0,1,57,33.18c.21-3.4,2-6.07,3.88-5.95s3.33,3,3.12,6.38c-.16,2.61-1.21,4.78-2.57,5.6a12.93,12.93,0,0,1,1.83,2.47c.77-.48,2.47-1.91,2.73-3.47C68.19,25.17,60.88,19.43,56.61,26Z"/><path class="cls-8" d="M64,33.61c.21-3.4-1.18-6.26-3.12-6.38S57.19,29.78,57,33.18a8,8,0,0,0,1.34,5.33,5.8,5.8,0,0,1,1.33-.12,2.44,2.44,0,0,1,1.76.82C62.77,38.39,63.82,36.22,64,33.61Z"/><path class="cls-9" d="M45.2,35c-5.43,0-10,2.88-11.71,6.9a8.77,8.77,0,0,0-.67,3.34c0,5.65,5.54,10.24,12.38,10.24s12.38-4.59,12.38-10.24S52,35,45.2,35Z"/><rect class="cls-9" x="24.14" y="43.29" width="12.1" height="1.91" rx="0.59"/><path class="cls-9" d="M60,48.94l-8.2,5c-.25,0-1.24-17.77-1-17.77L60,41a1.51,1.51,0,0,1,.46,1.21v5.83C60.47,48.54,60.26,48.94,60,48.94Z"/><path class="cls-10" d="M44.08,36c-4.7,0-8.69,2.61-10.14,6.23a8.23,8.23,0,0,0-.58,3c0,5.1,4.8,9.23,10.72,9.23s10.71-4.13,10.71-9.23S50,36,44.08,36Z"/><ellipse class="cls-10" cx="42.42" cy="43.72" rx="7.59" ry="7.09"/><path class="cls-11" d="M49.37,46.41a6.25,6.25,0,0,1-6.58,5.5c-3.7-.09-6.63-2.88-6.79-5.8a7.06,7.06,0,0,1,6.86-7.6A7,7,0,0,1,49.37,46.41Z"/><ellipse class="cls-12" cx="45.2" cy="41.97" rx="0.8" ry="1.31" transform="translate(-8.48 72.35) rotate(-72.39)"/><path class="cls-10" d="M54.71,46.4h23a.59.59,0,0,0,.59-.59l-1-2.57a.59.59,0,0,0-.59-.59h-22a.58.58,0,0,0-.59.59v2.57A.58.58,0,0,0,54.71,46.4Z"/><rect class="cls-13" x="23.55" y="42.64" width="10.11" height="1.96" rx="0.59" transform="translate(57.22 87.24) rotate(-180)"/><path class="cls-14" d="M42.42,35.55a8.72,8.72,0,0,0-8.28,5.51,7.64,7.64,0,0,0-.47,2.66,8.47,8.47,0,0,0,8.75,8.18,8.48,8.48,0,0,0,8.75-8.18C51.17,39.21,47.25,35.55,42.42,35.55Zm0,15.26a7.35,7.35,0,0,1-7.59-7.09,7.35,7.35,0,0,1,7.59-7.08A7.35,7.35,0,0,1,50,43.72,7.35,7.35,0,0,1,42.42,50.81Z"/><circle class="cls-15" cx="50.99" cy="50.99" r="49.99"/></g></g></svg>