<svg xmlns="http://www.w3.org/2000/svg" viewBox="0 0 101.99 101.99"><defs><style>.cls-1{fill:#dadada;}.cls-2{fill:#1d1d1b;}.cls-3,.cls-4,.cls-5,.cls-6{fill:#fff;}.cls-3,.cls-4,.cls-7{stroke:#1d1d1b;}.cls-3,.cls-4,.cls-6,.cls-7{stroke-miterlimit:10;}.cls-4,.cls-6{stroke-width:0.5px;}.cls-6{stroke:#fff;}.cls-7{fill:none;stroke-width:2px;}</style></defs><g id="Ebene_2" data-name="Ebene 2"><g id="circle"><circle class="cls-1" cx="50.99" cy="50.99" r="49.99"/><path class="cls-2" d="M31.8,27.7s-.06-4.42.05-6.66.12-2.58,2.59-1.64a21.73,21.73,0,0,1,6.78,4.44C42.31,25,31.8,27.7,31.8,27.7Z"/><path class="cls-3" d="M84.37,61.35a16.77,16.77,0,0,0,15.24,1.34S89.34,103.4,49.92,101c-33.64-2.07-46.46-25-48.1-38.07,0,0,7.85,3.9,20.26-2.85.92-.5-1.2-3.79-1.11-4.57.11-1-.63-.23-1.09-1.2-.58-1.21,1.59-1.49,1.95-1.49.86,0,26.38-14.53,26.38-14.53l13.63-4.2S75.46,44.69,78.62,45.55,84.37,61.35,84.37,61.35Z"/><path class="cls-2" d="M60.53,25.8c-3.77-1-8.9-3.32-15.72-2.53-1.71.2-24.85,1.81-26.33,30.64,1.34.16,1.41,1.59,2.49,1.59s4.28-2.29,8.69-2.41c3-.09,5.93,1.93,12.64.57,6.4-1.3,13.19-15.12,13.92-16s2.59-3.35,6-2.38,8.66,18.37,16.21,20.29c6.51,1.66,5.76,6.36,5.9,5.77C86.82,50.42,77.06,30.09,60.53,25.8Z"/><path class="cls-2" d="M83.26,49.19C80.07,31.68,65,25,54.45,23.3c-12-1.92-34.49,1.79-36,30.62,1.34.16,13.78-15.5,14.06-16.54C35.43,26.67,48.63,26.2,54,31c.85.76,6.43-1.7,14.49,3.92C81.74,44.17,83.37,49.79,83.26,49.19Z"/><line class="cls-4" x1="19.88" y1="55.95" x2="19.88" y2="55.95"/><path class="cls-3" d="M19.88,56c3.33,9.64,19.55,20,37.47,9.67"/><circle class="cls-3" cx="19.88" cy="54.3" r="2.46"/><path class="cls-2" d="M69.7,24.24C67.81,16.09,61.61,12.51,56,19.8c-4.16,5.41-4,14.93-4,14.93s3.41-1.64,5.76-2.59,9.67,6,11.12,3.92C70.92,33.16,70.33,27,69.7,24.24Z"/><path class="cls-5" d="M57.6,20.76C52.91,28,56.54,37.28,56.54,37.28a6.39,6.39,0,0,1,3-2A9.26,9.26,0,0,1,58,29.08c.24-3.95,2.26-7,4.5-6.91s3.87,3.46,3.63,7.41c-.19,3-1.41,5.55-3,6.5A15.42,15.42,0,0,1,65.29,39c.89-.56,2.87-2.22,3.18-4C71,19.78,62.55,13.11,57.6,20.76Z"/><path class="cls-5" d="M66.16,29.58c.24-3.95-1.38-7.27-3.63-7.41s-4.26,3-4.5,6.91a9.26,9.26,0,0,0,1.55,6.2,5.94,5.94,0,0,1,1.55-.15,2.92,2.92,0,0,1,2,.95C64.75,35.13,66,32.61,66.16,29.58Z"/><path class="cls-2" d="M65.57,38,56,33.19a17.15,17.15,0,0,0-2.64-1.33l0,0h0a20.15,20.15,0,0,0-7.53-1.43c-7.26,0-13.43,3.66-15.67,8.74a10.52,10.52,0,0,0-.9,4.22c0,7.16,7.42,13,16.57,13a20,20,0,0,0,8.85-2h0l.07,0,1.74-1,9.17-5.24c.34,0,.61-.5.61-1.12V39.56A1.89,1.89,0,0,0,65.57,38Z"/><path class="cls-6" d="M43,32.36c-5.46,0-10.09,3-11.78,7.23a9.56,9.56,0,0,0-.67,3.5C30.59,49,36.16,53.81,43,53.81S55.48,49,55.48,43.09,49.91,32.36,43,32.36Z"/><ellipse class="cls-5" cx="41.11" cy="41.33" rx="8.81" ry="8.23"/><path class="cls-2" d="M49.18,44.45a7.24,7.24,0,0,1-7.64,6.38c-4.29-.09-7.7-3.33-7.89-6.73-.28-5,3.68-8.92,8-8.83A8.17,8.17,0,0,1,49.18,44.45Z"/><ellipse class="cls-5" cx="44.34" cy="39.29" rx="0.93" ry="1.52" transform="translate(-6.52 69.66) rotate(-72.39)"/><path class="cls-5" d="M55.38,44.94a1.18,1.18,0,0,1-1.18-1.19v-3a1.19,1.19,0,0,1,1.18-1.19H80.9a1.19,1.19,0,0,1,1.18,1.08l1.17,3v.09a1.18,1.18,0,0,1-1.18,1.19Z"/><path class="cls-2" d="M80.9,40.07a.69.69,0,0,1,.69.69l1.16,3a.69.69,0,0,1-.68.69H55.38a.68.68,0,0,1-.68-.69v-3a.68.68,0,0,1,.68-.69H80.9m0-1H55.38a1.69,1.69,0,0,0-1.68,1.69v3a1.69,1.69,0,0,0,1.68,1.69H82.07a1.69,1.69,0,0,0,1.68-1.69v-.18l-.07-.18-1.11-2.86a1.68,1.68,0,0,0-1.67-1.46Z"/><rect class="cls-5" x="18.7" y="39.57" width="12.75" height="3.27" rx="1.09"/><path class="cls-2" d="M30.35,40.07a.58.58,0,0,1,.59.59v1.09a.58.58,0,0,1-.59.59H19.79a.58.58,0,0,1-.59-.59V40.66a.58.58,0,0,1,.59-.59H30.35m0-1H19.79a1.59,1.59,0,0,0-1.59,1.59v1.09a1.59,1.59,0,0,0,1.59,1.59H30.35a1.59,1.59,0,0,0,1.59-1.59V40.66a1.59,1.59,0,0,0-1.59-1.59Z"/><path class="cls-5" d="M41.11,51.32c-5.88,0-10.67-4.48-10.67-10A9.59,9.59,0,0,1,31,38.06a10.67,10.67,0,0,1,10.09-6.73c5.88,0,10.67,4.49,10.67,10S47,51.32,41.11,51.32Zm0-17.72c-4.58,0-8.31,3.46-8.31,7.73s3.73,7.73,8.31,7.73,8.31-3.47,8.31-7.73S45.69,33.6,41.11,33.6Z"/><path class="cls-2" d="M41.11,31.83c5.61,0,10.17,4.25,10.17,9.5s-4.56,9.49-10.17,9.49-10.17-4.25-10.17-9.49a9,9,0,0,1,.55-3.09,10.15,10.15,0,0,1,9.62-6.41m0,17.73c4.87,0,8.81-3.69,8.81-8.23S46,33.1,41.11,33.1s-8.81,3.68-8.81,8.23,3.94,8.23,8.81,8.23m0-18.73a11.14,11.14,0,0,0-10.55,7.06,9.83,9.83,0,0,0-.62,3.44c0,5.78,5,10.49,11.17,10.49s11.17-4.71,11.17-10.49-5-10.5-11.17-10.5Zm0,17.73c-4.31,0-7.81-3.25-7.81-7.23s3.5-7.23,7.81-7.23,7.81,3.24,7.81,7.23-3.5,7.23-7.81,7.23Z"/><circle class="cls-7" cx="50.99" cy="50.99" r="49.99"/></g></g></svg>