<svg width="16" height="16" viewBox="0 0 16 16" fill="none" xmlns="http://www.w3.org/2000/svg">
<path d="M15.0312 3.07812C15.6406 2.51562 15.6406 1.53125 15.0312 0.96875C14.4688 0.359375 13.4844 0.359375 12.9219 0.96875L8 5.89062L3.03125 0.96875C2.46875 0.359375 1.48438 0.359375 0.921875 0.96875C0.3125 1.53125 0.3125 2.51562 0.921875 3.07812L5.84375 8L0.921875 12.9688C0.3125 13.5312 0.3125 14.5156 0.921875 15.0781C1.48438 15.6875 2.46875 15.6875 3.03125 15.0781L8 10.1562L12.9219 15.0781C13.4844 15.6875 14.4688 15.6875 15.0312 15.0781C15.6406 14.5156 15.6406 13.5312 15.0312 12.9688L10.1094 8L15.0312 3.07812Z" fill="currentColor"/>
</svg>
