<svg width="28" height="24" viewBox="0 0 28 24" fill="none" xmlns="http://www.w3.org/2000/svg">
<path d="M27.4531 12C27.4531 12.8438 26.75 13.5 25.9531 13.5H24.4531L24.5 21C24.5 21.1406 24.5 21.2812 24.5 21.375V22.125C24.5 23.2031 23.6562 24 22.625 24H21.875C21.7812 24 21.7344 24 21.6875 24C21.6406 24 21.5469 24 21.5 24H20H18.875C17.7969 24 17 23.2031 17 22.125V21V18C17 17.2031 16.2969 16.5 15.5 16.5H12.5C11.6562 16.5 11 17.2031 11 18V21V22.125C11 23.2031 10.1562 24 9.125 24H8H6.5C6.40625 24 6.35938 24 6.26562 24C6.21875 24 6.17188 24 6.125 24H5.375C4.29688 24 3.5 23.2031 3.5 22.125V16.875C3.5 16.875 3.5 16.8281 3.5 16.7812V13.5H2C1.15625 13.5 0.5 12.8438 0.5 12C0.5 11.5781 0.640625 11.2031 0.96875 10.875L12.9688 0.375C13.2969 0.046875 13.6719 0 14 0C14.3281 0 14.7031 0.09375 14.9844 0.328125L26.9375 10.875C27.3125 11.2031 27.5 11.5781 27.4531 12Z" fill="currentColor"/>
</svg>
