<svg width="16" height="24" viewBox="0 0 16 24" fill="none" xmlns="http://www.w3.org/2000/svg">
<path d="M10.25 2.25C10.25 3.51562 9.21875 4.5 8 4.5C6.73438 4.5 5.75 3.51562 5.75 2.25C5.75 1.03125 6.73438 0 8 0C9.21875 0 10.25 1.03125 10.25 2.25ZM7.625 16.5V22.5C7.625 23.3438 6.92188 24 6.125 24C5.28125 24 4.625 23.3438 4.625 22.5V12.0469L3.26562 14.2969C2.84375 15 1.90625 15.2344 1.20312 14.8125C0.5 14.3906 0.265625 13.4531 0.6875 12.75L3.40625 8.20312C4.25 6.84375 5.70312 6 7.29688 6H8.65625C10.25 6 11.7031 6.84375 12.5469 8.20312L15.2656 12.75C15.6875 13.4531 15.4531 14.3906 14.75 14.8125C14.0469 15.2344 13.1094 15 12.6875 14.2969L11.375 12.0469V22.5C11.375 23.3438 10.6719 24 9.875 24C9.03125 24 8.375 23.3438 8.375 22.5V16.5H7.625Z" fill="currentColor"/>
</svg>
