<svg xmlns="http://www.w3.org/2000/svg" viewBox="20 0 150 110">
  <defs>
    <style>.cls-1{fill:#1d1d1b;}.cls-2{fill:#fff;stroke:#007bff;stroke-miterlimit:10;stroke-width:2px;}</style>
  </defs>
  <circle class="cls-2" cx="79.12" cy="51.95" r="50.68"/>
  <path class="cls-1"
        d="M64.55,60.35l2.74-.55-1,1.66c.06-1.22.08-4,.08-5.7V44.06l-2-.24v-1l4.85-1.22.41.25-.11,3.82v4.67l.08.35v8.75l-.48,2.39-4.59-.32ZM75.36,55c0-3.35-1.26-5-3.09-5-1.21,0-2.48,1-3.9,2.42L68.13,52c1.56-2.66,3.34-3.88,5.47-3.88,2.92,0,5.24,2.41,5.24,6.76s-2.57,7-5.69,7c-2.05,0-3.61-1.06-4.92-3.88l.24-.47c1.26,1.64,2.41,2.45,3.71,2.45C74,59.93,75.36,58.33,75.36,55Z"/>
  <path class="cls-1"
        d="M92.88,53.53A5.6,5.6,0,0,1,92.71,55H82.39V53.73h5.76c1.3,0,1.62-.55,1.62-1.54a2.56,2.56,0,0,0-2.41-2.81c-1.43,0-2.94,1.35-2.94,5.25,0,3.37,1.69,5,4,5A4.5,4.5,0,0,0,92,58l.79.69a5.74,5.74,0,0,1-5.45,3.16C83.56,61.83,81,59.28,81,55a6.6,6.6,0,0,1,6.59-7A5.09,5.09,0,0,1,92.88,53.53Z"/>
  <path class="cls-1" d="M95.31,59.67a2.18,2.18,0,1,1,2.18,2.16A2.17,2.17,0,0,1,95.31,59.67Z"/>
</svg>
