<svg xmlns="http://www.w3.org/2000/svg" viewBox="0 0 178.23 20.05"><defs><style>.cls-1{fill:#faefe9;}.cls-2{fill:none;stroke:#000;stroke-miterlimit:10;stroke-width:0.75px;}</style></defs><g id="Ebene_2" data-name="Ebene 2"><g id="Ebene_1-2" data-name="Ebene 1"><path d="M0,6.27H6.61v1H4V16H2.68V7.31H0Z"/><path d="M8.18,5.67H9.45v3.8A2.89,2.89,0,0,1,12,8.22a3,3,0,0,1,3.06,3.29V16H13.79V11.69c0-1.57-.85-2.36-2.14-2.36s-2.2.81-2.2,2.46V16H8.18Z"/><path d="M20.46,16.16a3.7,3.7,0,0,1-3.8-4,3.65,3.65,0,0,1,3.8-3.95,3.52,3.52,0,0,1,3.68,3.67,6.4,6.4,0,0,1,0,.77H18a2.41,2.41,0,0,0,2.5,2.41,2.11,2.11,0,0,0,2.15-1.41H24A3.46,3.46,0,0,1,20.46,16.16ZM18,11.64h4.84A2.25,2.25,0,0,0,20.4,9.31,2.38,2.38,0,0,0,18,11.64Z"/><path d="M32.71,12H30.83V16H29.55V6.27h3.16c2.29,0,3.37,1.26,3.37,2.86S35.13,12,32.71,12Zm0-1.05c1.45,0,2.07-.69,2.07-1.78s-.62-1.81-2.07-1.81H30.83v3.59Z"/><path d="M41,16.16a3.7,3.7,0,0,1-3.8-4A3.66,3.66,0,0,1,41,8.23a3.51,3.51,0,0,1,3.68,3.67,6.4,6.4,0,0,1,0,.77H38.49A2.4,2.4,0,0,0,41,15.08a2.12,2.12,0,0,0,2.16-1.41h1.37A3.45,3.45,0,0,1,41,16.16ZM38.5,11.64h4.85a2.26,2.26,0,0,0-2.43-2.33A2.38,2.38,0,0,0,38.5,11.64Z"/><path d="M49.51,8.23a3.17,3.17,0,0,1,2.85,1.53V8.36h1.29V16H52.36V14.61a3.2,3.2,0,0,1-2.87,1.55,3.7,3.7,0,0,1-3.63-4A3.64,3.64,0,0,1,49.51,8.23Zm.25,1.11a2.59,2.59,0,0,0-2.59,2.83,2.61,2.61,0,1,0,5.19,0A2.62,2.62,0,0,0,49.76,9.34Z"/><path d="M59.07,8.23a3.33,3.33,0,0,1,3.54,2.59H61.24a2.1,2.1,0,0,0-2.17-1.51c-1.4,0-2.44,1-2.44,2.87s1,2.9,2.44,2.9a2.06,2.06,0,0,0,2.17-1.51h1.37a3.41,3.41,0,0,1-3.54,2.59,3.65,3.65,0,0,1-3.74-4A3.64,3.64,0,0,1,59.07,8.23Z"/><path d="M64.3,5.67h1.28v3.8a2.86,2.86,0,0,1,2.53-1.25,3,3,0,0,1,3.07,3.29V16H69.92V11.69a2.06,2.06,0,0,0-2.14-2.36c-1.31,0-2.2.81-2.2,2.46V16H64.3Z"/><path d="M81.4,6.15A4.59,4.59,0,0,1,85.92,9.1H84.4a3.09,3.09,0,0,0-3-1.83,3.54,3.54,0,0,0-3.57,3.88A3.53,3.53,0,0,0,81.4,15a3.09,3.09,0,0,0,3-1.82h1.52a4.59,4.59,0,0,1-4.52,2.93,4.8,4.8,0,0,1-4.88-5A4.82,4.82,0,0,1,81.4,6.15Z"/><path d="M91.15,16.16a3.72,3.72,0,0,1-3.82-4,3.88,3.88,0,1,1,7.76,0A3.81,3.81,0,0,1,91.15,16.16Zm0-1.12a2.61,2.61,0,0,0,2.64-2.86A2.58,2.58,0,0,0,91.2,9.34a2.55,2.55,0,0,0-2.57,2.84C88.63,14.13,89.82,15,91.15,15Z"/><path d="M107.85,11.69c0-1.57-.84-2.36-2.1-2.36s-2.18.82-2.18,2.48V16h-1.26V11.69c0-1.57-.84-2.36-2.1-2.36S98,10.15,98,11.81V16H96.77V8.36H98V9.47a2.77,2.77,0,0,1,2.42-1.25,2.88,2.88,0,0,1,2.82,1.71A2.84,2.84,0,0,1,106,8.22a3,3,0,0,1,3.11,3.29V16h-1.26Z"/><path d="M115.33,8.23A3.64,3.64,0,0,1,119,12.17a3.7,3.7,0,0,1-3.65,4,3.31,3.31,0,0,1-2.87-1.54v5.06h-1.27V8.36h1.27V9.77A3.24,3.24,0,0,1,115.33,8.23Zm-.26,1.11a2.64,2.64,0,0,0-2.61,2.84,2.62,2.62,0,1,0,5.21,0A2.59,2.59,0,0,0,115.07,9.34Z"/><path d="M123.82,8.23a3.16,3.16,0,0,1,2.85,1.53V8.36H128V16h-1.29V14.61a3.2,3.2,0,0,1-2.87,1.55,3.7,3.7,0,0,1-3.63-4A3.64,3.64,0,0,1,123.82,8.23Zm.25,1.11a2.59,2.59,0,0,0-2.59,2.83,2.61,2.61,0,1,0,5.19,0A2.62,2.62,0,0,0,124.07,9.34Z"/><path d="M135.73,11.69c0-1.57-.85-2.36-2.14-2.36s-2.2.81-2.2,2.46V16h-1.28V8.36h1.28V9.45a2.82,2.82,0,0,1,2.46-1.23A3,3,0,0,1,137,11.51V16h-1.26Z"/><path d="M144.37,8.36h1.32l-4.63,11.29h-1.31l1.51-3.7-3.1-7.59h1.42L142,14.58Z"/><circle class="cls-1" cx="161.65" cy="11.23" r="8.12"/><circle class="cls-2" cx="163.27" cy="11.55" r="8.12"/><path class="cls-2" d="M177.75,5s-2.56,1.54-4.89.82-3.57-3.45-3.57-3.45,2.56-1.54,4.89-.82S177.75,5,177.75,5Z"/><line class="cls-2" x1="166.52" y1="5.7" x2="169.45" y2="0.18"/><line class="cls-2" x1="160.84" y1="7" x2="160.84" y2="7.65"/><line class="cls-2" x1="159.21" y1="9.43" x2="159.21" y2="10.09"/><line class="cls-2" x1="163.28" y1="8.67" x2="163.28" y2="9.33"/></g></g></svg>