<svg width="20" height="20" viewBox="0 0 20 20" xmlns="http://www.w3.org/2000/svg">
<path d="M10 6.40625C8 6.40625 6.40625 8.03125 6.40625 10C6.40625 12 8 13.5938 10 13.5938C11.9688 13.5938 13.5938 12 13.5938 10C13.5938 8.03125 11.9688 6.40625 10 6.40625ZM10 12.3438C8.71875 12.3438 7.65625 11.3125 7.65625 10C7.65625 8.71875 8.6875 7.6875 10 7.6875C11.2812 7.6875 12.3125 8.71875 12.3125 10C12.3125 11.3125 11.2812 12.3438 10 12.3438ZM14.5625 6.28125C14.5625 6.75 14.1875 7.125 13.7188 7.125C13.25 7.125 12.875 6.75 12.875 6.28125C12.875 5.8125 13.25 5.4375 13.7188 5.4375C14.1875 5.4375 14.5625 5.8125 14.5625 6.28125ZM16.9375 7.125C16.875 6 16.625 5 15.8125 4.1875C15 3.375 14 3.125 12.875 3.0625C11.7188 3 8.25 3 7.09375 3.0625C5.96875 3.125 5 3.375 4.15625 4.1875C3.34375 5 3.09375 6 3.03125 7.125C2.96875 8.28125 2.96875 11.75 3.03125 12.9062C3.09375 14.0312 3.34375 15 4.15625 15.8438C5 16.6562 5.96875 16.9062 7.09375 16.9688C8.25 17.0312 11.7188 17.0312 12.875 16.9688C14 16.9062 15 16.6562 15.8125 15.8438C16.625 15 16.875 14.0312 16.9375 12.9062C17 11.75 17 8.28125 16.9375 7.125ZM15.4375 14.125C15.2188 14.75 14.7188 15.2188 14.125 15.4688C13.1875 15.8438 11 15.75 10 15.75C8.96875 15.75 6.78125 15.8438 5.875 15.4688C5.25 15.2188 4.78125 14.75 4.53125 14.125C4.15625 13.2188 4.25 11.0312 4.25 10C4.25 9 4.15625 6.8125 4.53125 5.875C4.78125 5.28125 5.25 4.8125 5.875 4.5625C6.78125 4.1875 8.96875 4.28125 10 4.28125C11 4.28125 13.1875 4.1875 14.125 4.5625C14.7188 4.78125 15.1875 5.28125 15.4375 5.875C15.8125 6.8125 15.7188 9 15.7188 10C15.7188 11.0312 15.8125 13.2188 15.4375 14.125Z"/>
</svg>
