<svg width="20" height="20" viewBox="0 0 20 20" xmlns="http://www.w3.org/2000/svg">
<path d="M18.1562 5.90625C17.9688 5.15625 17.375 4.5625 16.6562 4.375C15.3125 4 10 4 10 4C10 4 4.65625 4 3.3125 4.375C2.59375 4.5625 2 5.15625 1.8125 5.90625C1.4375 7.21875 1.4375 10.0312 1.4375 10.0312C1.4375 10.0312 1.4375 12.8125 1.8125 14.1562C2 14.9062 2.59375 15.4688 3.3125 15.6562C4.65625 16 10 16 10 16C10 16 15.3125 16 16.6562 15.6562C17.375 15.4688 17.9688 14.9062 18.1562 14.1562C18.5312 12.8125 18.5312 10.0312 18.5312 10.0312C18.5312 10.0312 18.5312 7.21875 18.1562 5.90625ZM8.25 12.5625V7.5L12.6875 10.0312L8.25 12.5625Z"/>
</svg>
