<svg id="Ebene_1" data-name="Ebene 1" xmlns="http://www.w3.org/2000/svg" viewBox="0 0 580 580"><defs><style>.cls-1{fill:none;stroke:#cd0f2d;stroke-linecap:round;stroke-linejoin:round;stroke-width:9px;}</style></defs><title>LY_NIM-2020002_WEBSITE_SVG</title><path class="cls-1" d="M315.12,130.15h31m-170.74,0h31.05M222,99.1,206.47,83.58M299.6,99.1l15.52-15.52M260.79,99.1v-31m32,419.09h37.84A93.12,93.12,0,0,0,423.77,394V262.09a23.28,23.28,0,1,0-46.56,0V246.56a23.29,23.29,0,0,0-46.57,0v0a23.28,23.28,0,1,0-46.56,0V153.43a23.29,23.29,0,0,0-46.57,0V363l-35.7-61a23.53,23.53,0,0,0-39,26L211,438.62A93.12,93.12,0,0,0,292.8,487.15Z"/></svg>