<svg xmlns="http://www.w3.org/2000/svg" width="30" height="30" viewBox="0 0 30 30">
  <g fill="#222">
    <path d="M1,15 C1,22.7331601 7.26736558,29 15,29 C22.7331601,29 29,22.7326344 29,15 C29,7.26683989 22.7326344,1 15,1 C7.26683989,1 1,7.26736558 1,15 Z M0,15 C0,6.71572875 6.71390727,0 15,0 C23.2842712,0 30,6.71390727 30,15 C30,23.2842712 23.2860927,30 15,30 C6.71572875,30 0,23.2860927 0,15 Z"/>
    <path d="M23.94586,11.28931 C23.9309065,10.5426888 23.7894582,9.80400855 23.52753,9.10468 C23.3015394,8.50414041 22.9472753,7.96012249 22.48944,7.51056 C22.0398775,7.05272475 21.4958596,6.6984606 20.89532,6.47247 C20.1959915,6.21054181 19.4573112,6.06909355 18.71069,6.05414 C17.75073,6.01038 17.44427,6 15,6 C12.55573,6 12.24927,6.01038 11.28931,6.05414 C10.5426888,6.06909355 9.80400855,6.21054181 9.10468,6.47247 C8.50414041,6.6984606 7.96012249,7.05272475 7.51056,7.51056 C7.05272475,7.96012249 6.6984606,8.50414041 6.47247,9.10468 C6.21054181,9.80400855 6.06909355,10.5426888 6.05414,11.28931 C6.01038,12.24927 6,12.55573 6,15 C6,17.44427 6.01038,17.75073 6.05414,18.71069 C6.06909355,19.4573112 6.21054181,20.1959915 6.47247,20.89532 C6.6984606,21.4958596 7.05272475,22.0398775 7.51056,22.48944 C7.96010612,22.9472953 8.50412874,23.3015625 9.10468,23.52753 C9.80400855,23.7894582 10.5426888,23.9309065 11.28931,23.94586 C12.24927,23.98969 12.55573,24 15,24 C17.44427,24 17.75073,23.98969 18.71069,23.94586 C19.4573112,23.9309065 20.1959915,23.7894582 20.89532,23.52753 C22.1042544,23.0599688 23.0599588,22.1042644 23.52752,20.89533 C23.7894482,20.1960015 23.9308965,19.4573212 23.94585,18.7107 C23.98962,17.75073 24,17.44427 24,15 C24,12.55573 23.98962,12.24927 23.94586,11.28931 Z M22.32593,18.63678 C22.3191752,19.2074749 22.2143342,19.7727584 22.01599,20.30792 C21.7132468,21.0928479 21.0928462,21.7132522 20.30792,22.016 C19.7727565,22.2143373 19.2074742,22.319178 18.63678,22.32594 C17.68787,22.3692 17.40326,22.37836 15,22.37836 C12.59674,22.37836 12.31213,22.3692 11.36322,22.32593 C10.7925264,22.3191712 10.2272441,22.2143339 9.69208,22.016 C9.30115027,21.8717562 8.94752965,21.6417088 8.65723,21.34278 C8.3582963,21.0524785 8.12824542,20.6988542 7.984,20.30792 C7.78565581,19.7727584 7.68081482,19.2074749 7.67406,18.63678 C7.6308,17.68774 7.62164,17.40314 7.62164,15 C7.62164,12.59686 7.6308,12.31226 7.67407,11.36322 C7.68082875,10.7925264 7.78566614,10.2272441 7.984,9.69208 C8.12824383,9.30115027 8.35829116,8.94752965 8.65722,8.65723 C8.94752151,8.3582963 9.30114575,8.12824542 9.69208,7.984 C10.2272435,7.78566272 10.7925258,7.68082196 11.36322,7.67406 C12.31226,7.6308 12.59686,7.62164 15,7.62164 C17.40314,7.62164 17.68774,7.6308 18.63678,7.67407 C19.2074742,7.68083196 19.7727565,7.78567272 20.30792,7.98401 C20.6988497,8.12825383 21.0524704,8.35830116 21.34277,8.65723 C21.6417025,8.94752863 21.8717533,9.30114933 22.016,9.69208 C22.2143373,10.2272435 22.319178,10.7925258 22.32594,11.36322 C22.36921,12.31222 22.37837,12.59692 22.37837,15 C22.37837,17.40308 22.3692,17.68774 22.32593,18.63678 L22.32593,18.63678 Z M15,10.37836 C12.4475387,10.37836 10.37836,12.4475387 10.37836,15 C10.37836,17.5524613 12.4475387,19.62164 15,19.62164 C17.5524613,19.62164 19.62164,17.5524613 19.62164,15 C19.6216124,12.4475501 17.5524499,10.3783876 15,10.37836 L15,10.37836 Z M15,18 C13.3431458,18 12,16.6568542 12,15 C12,13.3431458 13.3431458,12 15,12 C16.6568542,12 18,13.3431458 18,15 C18,15.7956495 17.6839295,16.5587112 17.1213203,17.1213203 C16.5587112,17.6839295 15.7956495,18 15,18 Z M20.88422,10.1958 C20.88422,10.7922675 20.4006875,11.2758 19.80422,11.2758 C19.2077525,11.2758 18.72422,10.7922675 18.72422,10.1958 C18.72422,9.59933247 19.2077525,9.1158 19.80422,9.1158 C20.4006875,9.1158 20.88422,9.59933247 20.88422,10.1958 L20.88422,10.1958 Z"/>
  </g>
</svg>
