<svg xmlns="http://www.w3.org/2000/svg" width="30" height="30" viewBox="0 0 30 30">
  <path fill="#222" fill-rule="evenodd" d="M1,15 C1,22.7331601 7.26736558,29 15,29 C22.7331601,29 29,22.7326344 29,15 C29,7.26683989 22.7326344,1 15,1 C7.26683989,1 1,7.26736558 1,15 Z M0,15 C0,6.71572875 6.71390727,0 15,0 C23.2842712,0 30,6.71390727 30,15 C30,23.2842712 23.2860927,30 15,30 C6.71572875,30 0,23.2860927 0,15 Z M21.625,9 L8.625,9 C7.73125,9 7.008125,9.73125 7.008125,10.625 L7,20.375 C7,21.26875 7.73125,22 8.625,22 L21.625,22 C22.51875,22 23.25,21.26875 23.25,20.375 L23.25,10.625 C23.25,9.73125 22.51875,9 21.625,9 L21.625,9 Z M21.625,20.375 L8.625,20.375 L8.625,12.25 L15.125,16.3125 L21.625,12.25 L21.625,20.375 L21.625,20.375 Z M15.125,14.6875 L8.625,10.625 L21.625,10.625 L15.125,14.6875 L15.125,14.6875 Z"/>
</svg>
