<svg xmlns="http://www.w3.org/2000/svg" width="500" height="260" fill="none" xmlns:v="https://vecta.io/nano"><style><![CDATA[.B{fill:#d1d5db}.C{fill:#fff}.D{color-interpolation-filters:sRGB}.E{flood-opacity:0}.F{stroke-width:2.618}.G{fill:#3b82f6}.H{stroke:#e1e2e4}]]></style><g clip-path="url(#I)" filter="url(#A)"><path transform="translate(0 .809)" fill="#f3f4f6" d="M0 0h500v259.162H0z"/><g filter="url(#B)"><g clip-path="url(#J)"><path d="M54.974-22.75c0-5.783 4.689-10.472 10.472-10.472h371.726c5.784 0 10.472 4.688 10.472 10.472v293.192c0 5.784-4.688 10.472-10.472 10.472H65.446c-5.783 0-10.472-4.688-10.472-10.472V-22.75z" class="C"/><path d="M447.644 3.427H54.974v-26.178c0-5.783 4.688-10.471 10.471-10.471h371.728c5.783 0 10.471 4.688 10.471 10.471V3.427z" class="C"/><path stroke="#f3f4f6" d="M54.974 2.118h392.67" class="F"/></g><path d="M65.446-30.604h371.726v-5.236H65.446v5.236zm379.58 7.854v293.192h5.236V-22.75h-5.236zm-7.854 301.046H65.446v5.236h371.726v-5.236zm-379.58-7.854V-22.75h-5.236v293.192h5.236zm7.854 7.854c-4.338 0-7.854-3.516-7.854-7.854h-5.236c0 7.229 5.861 13.09 13.09 13.09v-5.236zm379.58-7.854c0 4.338-3.516 7.854-7.854 7.854v5.236c7.229 0 13.09-5.861 13.09-13.09h-5.236zm-7.854-301.046c4.338 0 7.854 3.516 7.854 7.854h5.236c0-7.229-5.861-13.09-13.09-13.09v5.236zM65.446-35.84c-7.229 0-13.09 5.86-13.09 13.09h5.236c0-4.338 3.516-7.854 7.854-7.854v-5.236z" fill="#e7e8ea"/></g><g filter="url(#C)"><rect x="75.916" y="40.076" width="102.094" height="164.267" rx="5.236" class="C"/><g style="mix-blend-mode:multiply"><path d="M175.393 115.338H78.534V42.694h96.859v72.644z" fill="url(#F)"/></g><rect x="86.387" y="128.427" width="68.063" height="7.853" rx="3.927" class="G"/><rect x="86.387" y="146.752" width="52.356" height="7.853" rx="3.927" class="B"/><rect x="86.387" y="165.076" width="78.534" height="7.853" rx="3.927" class="B"/><rect x="86.387" y="183.401" width="39.267" height="7.853" rx="3.927" class="B"/><rect x="77.225" y="41.385" width="99.476" height="161.649" rx="3.927" class="F H"/></g><g filter="url(#D)"><rect x="198.953" y="40.076" width="104.712" height="164.267" rx="5.236" class="C"/><g style="mix-blend-mode:multiply"><path d="M301.047 115.338h-99.476V42.694h99.476v72.644z" fill="url(#G)"/></g><rect x="209.424" y="128.427" width="68.063" height="7.853" rx="3.927" class="G"/><rect x="209.424" y="146.752" width="52.356" height="7.853" rx="3.927" class="B"/><rect x="209.424" y="165.076" width="78.534" height="7.853" rx="3.927" class="B"/><rect x="209.424" y="183.401" width="39.267" height="7.853" rx="3.927" class="B"/><rect x="200.262" y="41.385" width="102.094" height="161.649" rx="3.927" class="F H"/></g><g filter="url(#E)"><rect x="324.607" y="40.076" width="102.094" height="164.267" rx="5.236" class="C"/><g style="mix-blend-mode:multiply"><path d="M424.084 115.338h-96.859V42.694h96.859v72.644z" fill="url(#H)"/></g><rect x="335.079" y="128.427" width="68.063" height="7.853" rx="3.927" class="G"/><rect x="335.079" y="146.752" width="52.356" height="7.853" rx="3.927" class="B"/><rect x="335.079" y="165.076" width="78.534" height="7.853" rx="3.927" class="B"/><rect x="335.079" y="183.401" width="39.267" height="7.853" rx="3.927" class="B"/><rect x="325.916" y="41.385" width="99.476" height="161.649" rx="3.927" class="F H"/></g></g><defs><filter id="A" x="-3.321" y="-.851" width="506.641" height="265.804" filterUnits="userSpaceOnUse" class="D"><feFlood result="A" class="E"/><feColorMatrix in="SourceAlpha" values="0 0 0 0 0 0 0 0 0 0 0 0 0 0 0 0 0 0 127 0"/><feOffset dy="1.66036"/><feGaussianBlur stdDeviation="1.66"/><feColorMatrix values="0 0 0 0 0 0 0 0 0 0 0 0 0 0 0 0 0 0 0.05 0"/><feBlend in2="A"/><feBlend in="SourceGraphic"/></filter><filter id="B" x="47.12" y="-38.458" width="408.377" height="329.843" filterUnits="userSpaceOnUse" class="D"><feFlood result="A" class="E"/><feColorMatrix in="SourceAlpha" values="0 0 0 0 0 0 0 0 0 0 0 0 0 0 0 0 0 0 127 0"/><feOffset dy="2.6178"/><feGaussianBlur stdDeviation="2.618"/><feColorMatrix values="0 0 0 0 0 0 0 0 0 0 0 0 0 0 0 0 0 0 0.05 0"/><feBlend in2="A"/><feBlend in="SourceGraphic"/></filter><filter id="C" x="70.681" y="37.459" width="112.565" height="174.738" filterUnits="userSpaceOnUse" class="D"><feFlood result="A" class="E"/><feColorMatrix in="SourceAlpha" values="0 0 0 0 0 0 0 0 0 0 0 0 0 0 0 0 0 0 127 0"/><feOffset dy="2.6178"/><feGaussianBlur stdDeviation="2.618"/><feColorMatrix values="0 0 0 0 0 0 0 0 0 0 0 0 0 0 0 0 0 0 0.05 0"/><feBlend in2="A"/><feBlend in="SourceGraphic"/></filter><filter id="D" x="193.717" y="37.459" width="115.183" height="174.738" filterUnits="userSpaceOnUse" class="D"><feFlood result="A" class="E"/><feColorMatrix in="SourceAlpha" values="0 0 0 0 0 0 0 0 0 0 0 0 0 0 0 0 0 0 127 0"/><feOffset dy="2.6178"/><feGaussianBlur stdDeviation="2.618"/><feColorMatrix values="0 0 0 0 0 0 0 0 0 0 0 0 0 0 0 0 0 0 0.05 0"/><feBlend in2="A"/><feBlend in="SourceGraphic"/></filter><filter id="E" x="319.372" y="37.459" width="112.565" height="174.738" filterUnits="userSpaceOnUse" class="D"><feFlood result="A" class="E"/><feColorMatrix in="SourceAlpha" values="0 0 0 0 0 0 0 0 0 0 0 0 0 0 0 0 0 0 127 0"/><feOffset dy="2.6178"/><feGaussianBlur stdDeviation="2.618"/><feColorMatrix values="0 0 0 0 0 0 0 0 0 0 0 0 0 0 0 0 0 0 0.05 0"/><feBlend in2="A"/><feBlend in="SourceGraphic"/></filter><linearGradient id="F" x1="78.534" y1="115.993" x2="175.393" y2="42.694" gradientUnits="userSpaceOnUse"><stop offset=".557" stop-color="#f9fafb"/><stop offset=".557" stop-color="#f3f4f6"/></linearGradient><linearGradient id="G" x1="201.571" y1="115.993" x2="299.101" y2="40.191" gradientUnits="userSpaceOnUse"><stop offset=".557" stop-color="#f9fafb"/><stop offset=".557" stop-color="#f3f4f6"/></linearGradient><linearGradient id="H" x1="327.225" y1="115.993" x2="424.084" y2="42.694" gradientUnits="userSpaceOnUse"><stop offset=".557" stop-color="#f9fafb"/><stop offset=".557" stop-color="#f3f4f6"/></linearGradient><clipPath id="I"><path transform="translate(0 .809)" d="M0 0h500v259.162H0z" class="C"/></clipPath><clipPath id="J"><path d="M54.974-22.75c0-5.783 4.689-10.472 10.472-10.472h371.726c5.784 0 10.472 4.688 10.472 10.472v293.192c0 5.784-4.688 10.472-10.472 10.472H65.446c-5.783 0-10.472-4.688-10.472-10.472V-22.75z" class="C"/></clipPath></defs></svg>