<svg xmlns="http://www.w3.org/2000/svg" width="500" height="260" fill="none" xmlns:v="https://vecta.io/nano"><g clip-path="url(#E)" filter="url(#B)"><path transform="translate(0 .134)" fill="#f3f4f6" d="M0 0h500v259.162H0z"/><g filter="url(#C)"><g clip-path="url(#F)"><path d="M54.974-23.425c0-5.783 4.689-10.472 10.472-10.472h371.726c5.784 0 10.472 4.688 10.472 10.472v293.192c0 5.783-4.688 10.472-10.472 10.472H65.446c-5.783 0-10.472-4.689-10.472-10.472V-23.425z" fill="#fff"/><path d="M447.644 2.752H54.974v-26.178c0-5.783 4.688-10.471 10.471-10.471h371.728c5.783 0 10.471 4.688 10.471 10.471V2.752z" fill="#fff"/><path stroke="#f3f4f6" stroke-width="2.618" d="M54.974 1.443h392.67"/></g><path d="M65.446-31.279h371.726v-5.236H65.446v5.236zm379.58 7.854v293.192h5.236V-23.425h-5.236zm-7.854 301.046H65.446v5.236h371.726v-5.236zm-379.58-7.854V-23.425h-5.236v293.192h5.236zm7.854 7.854c-4.338 0-7.854-3.516-7.854-7.854h-5.236c0 7.229 5.861 13.09 13.09 13.09v-5.236zm379.58-7.854c0 4.338-3.516 7.854-7.854 7.854v5.236c7.229 0 13.09-5.861 13.09-13.09h-5.236zm-7.854-301.046c4.338 0 7.854 3.516 7.854 7.854h5.236c0-7.229-5.861-13.09-13.09-13.09v5.236zM65.446-36.515c-7.229 0-13.09 5.86-13.09 13.09h5.236c0-4.338 3.516-7.854 7.854-7.854v-5.236z" fill="#e7e8ea"/></g><mask id="A" fill="#fff"><path d="M369.11 196.469H133.508V39.401H369.11v157.068z"/></mask><path d="M369.11 196.469H133.508V39.401H369.11v157.068z" fill="url(#D)" stroke="#e7e8ea" stroke-width="5.236" mask="url(#A)"/><path d="M170.157 131.024l-13.089-13.089 13.089-13.089" stroke="#3b82f6" stroke-width="5.236" stroke-linecap="round" stroke-linejoin="round"/><path d="M332.461 104.846l13.089 13.089-13.089 13.089" stroke="#3b82f6" stroke-width="5.236" stroke-linecap="round" stroke-linejoin="round"/><circle cx="230.366" cy="209.558" r="5.236" fill="#3b82f6"/><circle cx="251.309" cy="209.558" r="5.236" fill="#3b82f6"/><circle cx="272.251" cy="209.558" r="5.236" fill="#3b82f6"/></g><defs><filter id="B" x="-3.321" y="-1.526" width="506.641" height="265.804" filterUnits="userSpaceOnUse" color-interpolation-filters="sRGB"><feFlood flood-opacity="0" result="A"/><feColorMatrix in="SourceAlpha" values="0 0 0 0 0 0 0 0 0 0 0 0 0 0 0 0 0 0 127 0"/><feOffset dy="1.66036"/><feGaussianBlur stdDeviation="1.66"/><feColorMatrix values="0 0 0 0 0 0 0 0 0 0 0 0 0 0 0 0 0 0 0.05 0"/><feBlend in2="A"/><feBlend in="SourceGraphic"/></filter><filter id="C" x="47.12" y="-39.133" width="408.377" height="329.843" filterUnits="userSpaceOnUse" color-interpolation-filters="sRGB"><feFlood flood-opacity="0" result="A"/><feColorMatrix in="SourceAlpha" values="0 0 0 0 0 0 0 0 0 0 0 0 0 0 0 0 0 0 127 0"/><feOffset dy="2.6178"/><feGaussianBlur stdDeviation="2.618"/><feColorMatrix values="0 0 0 0 0 0 0 0 0 0 0 0 0 0 0 0 0 0 0.05 0"/><feBlend in2="A"/><feBlend in="SourceGraphic"/></filter><linearGradient id="D" x1="133.508" y1="197.884" x2="348.331" y2="14.994" gradientUnits="userSpaceOnUse"><stop offset=".557" stop-color="#f9fafb"/><stop offset=".557" stop-color="#f3f4f6"/></linearGradient><clipPath id="E"><path fill="#fff" transform="translate(0 .134)" d="M0 0h500v259.162H0z"/></clipPath><clipPath id="F"><path d="M54.974-23.425c0-5.783 4.689-10.472 10.472-10.472h371.726c5.784 0 10.472 4.688 10.472 10.472v293.192c0 5.783-4.688 10.472-10.472 10.472H65.446c-5.783 0-10.472-4.689-10.472-10.472V-23.425z" fill="#fff"/></clipPath></defs></svg>