<svg width="20" height="20" viewBox="0 0 20 20" xmlns="http://www.w3.org/2000/svg">
<path d="M10 18C14.4062 18 18 14.4375 18 10C18 5.59375 14.4062 2 10 2C5.5625 2 2 5.59375 2 10C2 14.4375 5.5625 18 10 18ZM8.75 12.5H9.5V10.5H8.75C8.3125 10.5 8 10.1875 8 9.75C8 9.34375 8.3125 9 8.75 9H10.25C10.6562 9 11 9.34375 11 9.75V12.5H11.25C11.6562 12.5 12 12.8438 12 13.25C12 13.6875 11.6562 14 11.25 14H8.75C8.3125 14 8 13.6875 8 13.25C8 12.8438 8.3125 12.5 8.75 12.5ZM10 8C9.4375 8 9 7.5625 9 7C9 6.46875 9.4375 6 10 6C10.5312 6 11 6.46875 11 7C11 7.5625 10.5312 8 10 8Z"/>
</svg>
