<svg width="20" height="20" viewBox="0 0 20 20" xmlns="http://www.w3.org/2000/svg">
<path d="M10 18C14.4062 18 18 14.4375 18 10C18 5.59375 14.4062 2 10 2C5.5625 2 2 5.59375 2 10C2 14.4375 5.5625 18 10 18ZM13.5312 8.53125L9.53125 12.5312C9.21875 12.8438 8.75 12.8438 8.46875 12.5312L6.46875 10.5312C6.15625 10.25 6.15625 9.78125 6.46875 9.5C6.75 9.1875 7.21875 9.1875 7.53125 9.5L9 10.9688L12.4688 7.46875C12.75 7.1875 13.2188 7.1875 13.5 7.46875C13.8125 7.78125 13.8125 8.25 13.5 8.53125H13.5312Z"/>
</svg>
