<svg width="20" height="20" viewBox="0 0 20 20" xmlns="http://www.w3.org/2000/svg">
<path d="M10 18C14.4062 18 18 14.4375 18 10C18 5.59375 14.4062 2 10 2C5.5625 2 2 5.59375 2 10C2 14.4375 5.5625 18 10 18ZM7.46875 7.46875C7.75 7.1875 8.21875 7.1875 8.5 7.46875L9.96875 8.9375L11.4375 7.46875C11.75 7.1875 12.2188 7.1875 12.5 7.46875C12.8125 7.78125 12.8125 8.25 12.5 8.53125L11.0312 10L12.5 11.4688C12.8125 11.7812 12.8125 12.25 12.5 12.5312C12.2188 12.8438 11.75 12.8438 11.4375 12.5312L9.96875 11.0625L8.5 12.5312C8.21875 12.8438 7.75 12.8438 7.46875 12.5312C7.15625 12.25 7.15625 11.7812 7.46875 11.4688L8.9375 10L7.46875 8.53125C7.15625 8.25 7.15625 7.78125 7.46875 7.46875Z"/>
</svg>
