<svg width="28" height="22" viewBox="0 0 28 22" fill="none" xmlns="http://www.w3.org/2000/svg">
<path d="M14 0.5C10.2031 0.5 7.15625 2.23438 4.95312 4.29688C2.75 6.3125 1.29688 8.75 0.59375 10.4375C0.453125 10.8125 0.453125 11.2344 0.59375 11.6094C1.29688 13.25 2.75 15.6875 4.95312 17.75C7.15625 19.8125 10.2031 21.5 14 21.5C17.75 21.5 20.7969 19.8125 23 17.75C25.2031 15.6875 26.6562 13.25 27.3594 11.6094C27.5 11.2344 27.5 10.8125 27.3594 10.4375C26.6562 8.75 25.2031 6.3125 23 4.29688C20.7969 2.23438 17.75 0.5 14 0.5ZM20.75 11C20.75 14.75 17.7031 17.75 14 17.75C10.25 17.75 7.25 14.75 7.25 11C7.25 7.29688 10.25 4.25 14 4.25C17.7031 4.25 20.75 7.29688 20.75 11ZM14 8C14 9.6875 12.6406 11 11 11C10.4375 11 9.92188 10.8594 9.5 10.625C9.5 10.7656 9.5 10.9062 9.5 11C9.5 13.4844 11.5156 15.5 14 15.5C16.4844 15.5 18.5 13.4844 18.5 11C18.5 8.51562 16.4844 6.5 14 6.5C13.8594 6.5 13.7188 6.54688 13.5781 6.54688C13.8125 6.96875 14 7.48438 14 8Z" fill="currentColor"/>
</svg>
