<svg width="19" height="18" viewBox="0 0 19 18" fill="none" xmlns="http://www.w3.org/2000/svg">
<path d="M9.5 4.50781C7 4.50781 5.00781 6.53906 5.00781 9C5.00781 11.5 7 13.4922 9.5 13.4922C11.9609 13.4922 13.9922 11.5 13.9922 9C13.9922 6.53906 11.9609 4.50781 9.5 4.50781ZM9.5 11.9297C7.89844 11.9297 6.57031 10.6406 6.57031 9C6.57031 7.39844 7.85938 6.10938 9.5 6.10938C11.1016 6.10938 12.3906 7.39844 12.3906 9C12.3906 10.6406 11.1016 11.9297 9.5 11.9297ZM15.2031 4.35156C15.2031 4.9375 14.7344 5.40625 14.1484 5.40625C13.5625 5.40625 13.0938 4.9375 13.0938 4.35156C13.0938 3.76562 13.5625 3.29688 14.1484 3.29688C14.7344 3.29688 15.2031 3.76562 15.2031 4.35156ZM18.1719 5.40625C18.0938 4 17.7812 2.75 16.7656 1.73438C15.75 0.71875 14.5 0.40625 13.0938 0.328125C11.6484 0.25 7.3125 0.25 5.86719 0.328125C4.46094 0.40625 3.25 0.71875 2.19531 1.73438C1.17969 2.75 0.867188 4 0.789062 5.40625C0.710938 6.85156 0.710938 11.1875 0.789062 12.6328C0.867188 14.0391 1.17969 15.25 2.19531 16.3047C3.25 17.3203 4.46094 17.6328 5.86719 17.7109C7.3125 17.7891 11.6484 17.7891 13.0938 17.7109C14.5 17.6328 15.75 17.3203 16.7656 16.3047C17.7812 15.25 18.0938 14.0391 18.1719 12.6328C18.25 11.1875 18.25 6.85156 18.1719 5.40625ZM16.2969 14.1562C16.0234 14.9375 15.3984 15.5234 14.6562 15.8359C13.4844 16.3047 10.75 16.1875 9.5 16.1875C8.21094 16.1875 5.47656 16.3047 4.34375 15.8359C3.5625 15.5234 2.97656 14.9375 2.66406 14.1562C2.19531 13.0234 2.3125 10.2891 2.3125 9C2.3125 7.75 2.19531 5.01562 2.66406 3.84375C2.97656 3.10156 3.5625 2.51562 4.34375 2.20312C5.47656 1.73438 8.21094 1.85156 9.5 1.85156C10.75 1.85156 13.4844 1.73438 14.6562 2.20312C15.3984 2.47656 15.9844 3.10156 16.2969 3.84375C16.7656 5.01562 16.6484 7.75 16.6484 9C16.6484 10.2891 16.7656 13.0234 16.2969 14.1562Z" fill="currentColor"/>
</svg>
