<svg width="23" height="16" viewBox="0 0 23 16" fill="none" xmlns="http://www.w3.org/2000/svg">
<path d="M21.6953 2.88281C21.4609 1.94531 20.7188 1.20312 19.8203 0.96875C18.1406 0.5 11.5 0.5 11.5 0.5C11.5 0.5 4.82031 0.5 3.14062 0.96875C2.24219 1.20312 1.5 1.94531 1.26562 2.88281C0.796875 4.52344 0.796875 8.03906 0.796875 8.03906C0.796875 8.03906 0.796875 11.5156 1.26562 13.1953C1.5 14.1328 2.24219 14.8359 3.14062 15.0703C4.82031 15.5 11.5 15.5 11.5 15.5C11.5 15.5 18.1406 15.5 19.8203 15.0703C20.7188 14.8359 21.4609 14.1328 21.6953 13.1953C22.1641 11.5156 22.1641 8.03906 22.1641 8.03906C22.1641 8.03906 22.1641 4.52344 21.6953 2.88281ZM9.3125 11.2031V4.875L14.8594 8.03906L9.3125 11.2031Z" fill="currentColor"/>
</svg>
