<svg width="32" height="33" viewBox="0 0 32 33" fill="none" xmlns="http://www.w3.org/2000/svg">
<path d="M28 20H20V23H28C28.5 23 29 23.5 29 24V29C29 29.5625 28.5 30 28 30H4C3.4375 30 3 29.5625 3 29V24C3 23.5 3.4375 23 4 23H12V20H4C1.75 20 0 21.8125 0 24V29C0 31.25 1.75 33 4 33H28C30.1875 33 32 31.25 32 29V24C32 21.8125 30.1875 20 28 20ZM8.5 12.0625L14.5 6.125V23C14.5 23.875 15.125 24.5 16 24.5C16.8125 24.5 17.5 23.875 17.5 23V6.125L23.4375 12.0625C23.6875 12.375 24.0625 12.5 24.5 12.5C24.875 12.5 25.25 12.375 25.5 12.0625C26.125 11.5 26.125 10.5625 25.5 10L17 1.5C16.4375 0.875 15.5 0.875 14.9375 1.5L6.4375 10C5.8125 10.5625 5.8125 11.5 6.4375 12.0625C7 12.6875 7.9375 12.6875 8.5 12.0625ZM27 26.5C27 25.6875 26.3125 25 25.5 25C24.625 25 24 25.6875 24 26.5C24 27.375 24.625 28 25.5 28C26.3125 28 27 27.375 27 26.5Z" fill="#9CA3AF"/>
</svg>
